<?xml version="1.0" encoding="UTF-8" standalone="no"?>
<!-- Created with Inkscape (http://www.inkscape.org/) -->

<svg
   xmlns:dc="http://purl.org/dc/elements/1.1/"
   xmlns:cc="http://creativecommons.org/ns#"
   xmlns:rdf="http://www.w3.org/1999/02/22-rdf-syntax-ns#"
   xmlns:svg="http://www.w3.org/2000/svg"
   xmlns="http://www.w3.org/2000/svg"
   xmlns:sodipodi="http://sodipodi.sourceforge.net/DTD/sodipodi-0.dtd"
   xmlns:inkscape="http://www.inkscape.org/namespaces/inkscape"
   width="210mm"
   height="297mm"
   viewBox="0 0 210 297"
   version="1.1"
   id="svg8"
   inkscape:version="0.92.4 (5da689c313, 2019-01-14)"
   sodipodi:docname="IslandsLayout.svg">
  <defs
     id="defs2" />
  <sodipodi:namedview
     id="base"
     pagecolor="#ffffff"
     bordercolor="#666666"
     borderopacity="1.0"
     inkscape:pageopacity="0.0"
     inkscape:pageshadow="2"
     inkscape:zoom="0.98994949"
     inkscape:cx="211.79328"
     inkscape:cy="841.11634"
     inkscape:document-units="mm"
     inkscape:current-layer="layer1"
     showgrid="false"
     showguides="false"
     inkscape:window-width="1920"
     inkscape:window-height="1001"
     inkscape:window-x="-9"
     inkscape:window-y="-9"
     inkscape:window-maximized="1"
     inkscape:snap-global="false" />
  <metadata
     id="metadata5">
    <rdf:RDF>
      <cc:Work
         rdf:about="">
        <dc:format>image/svg+xml</dc:format>
        <dc:type
           rdf:resource="http://purl.org/dc/dcmitype/StillImage" />
        <dc:title></dc:title>
      </cc:Work>
    </rdf:RDF>
  </metadata>
  <g
     inkscape:label="Layer 1"
     inkscape:groupmode="layer"
     id="layer1">
    <path
       style="opacity:0.25;fill:#ffeeaa;fill-opacity:1;stroke:none;stroke-width:2.83464622;stroke-miterlimit:4;stroke-dasharray:none;stroke-dashoffset:0"
       d="M 361.97852 37.683594 C 330.39632 37.478236 297.2852 46.817305 267.03906 71.132812 C 262.04751 75.14562 251.87105 79.427386 239.38086 83.150391 C 226.89067 86.873395 212.03324 90.216074 197.16211 93.277344 C 182.29098 96.33861 167.40211 99.122927 154.73242 101.78125 C 142.06274 104.43957 131.76938 106.85987 125.25586 109.70312 C 121.91035 111.16349 119.11096 113.35593 118.30859 116.72266 C 117.50623 120.08938 119.01544 123.01339 120.72266 125.22656 C 124.13709 129.65291 129.56177 133.32088 134.72656 137.16211 C 139.89136 141.00333 144.72712 145.06684 146.18359 147.46094 C 146.91183 148.65799 146.80202 148.85704 146.73633 149.0332 C 146.67064 149.20937 146.0592 150.20093 143.51953 151.41797 C 122.17147 161.64825 109.75717 174.55327 107.16211 188.25391 C 104.56704 201.95453 112.97475 215.04985 129.08789 223.0293 C 161.31416 238.98819 225.45626 239.06864 317.99609 201.92383 C 337.93852 193.91906 349.08888 189.21611 356.98047 184.50391 C 354.23919 187.21497 351.49332 189.99308 349.16406 193.62695 C 343.04398 203.17488 338.54663 215.26301 338.99023 226.80078 C 339.21186 232.56527 341.55525 237.41578 344.74219 241.26172 C 347.92913 245.10766 351.89174 248.11803 355.84375 250.99219 C 363.74776 256.7405 371.40338 261.94129 374.52734 269.63086 C 377.688 277.41083 382.84078 282.35996 389.00391 283.08008 C 395.16703 283.80019 400.90218 280.44604 405.48633 275.35938 C 414.65459 265.18603 420.72529 246.92446 418.14648 226.0918 C 416.51758 212.93323 409.37272 206.35838 402.25391 201.57031 C 395.13509 196.78225 388.12389 193.07204 382.375 183.08594 C 380.01952 178.99438 375.89682 176.40324 371.72266 176.375 C 369.70264 176.36133 367.80754 176.92306 365.96484 177.68164 C 369.04306 174.78748 371.80023 171.62585 374.68164 167.76172 C 385.79668 152.85584 393.19151 146.7006 405.56055 144.58984 C 417.92958 142.47909 436.15581 144.98549 466.89648 149.80859 C 479.43042 151.77512 489.13872 151.69151 496.60938 149.67578 C 504.08003 147.66005 509.51161 143.27592 511.6543 137.34766 C 513.79699 131.41939 512.75246 124.7352 509.8457 117.93359 C 506.93898 111.13199 502.07623 104.01566 495.62695 96.835938 C 469.82983 68.117061 418.37493 38.050317 361.97852 37.683594 z M 91.734375 139.96484 A 4.3767538 4.3767538 0 0 0 91.298828 139.96875 A 4.3767538 4.3767538 0 0 0 90.472656 140.10156 C 90.040411 140.21412 89.605813 140.32692 89.166016 140.44141 A 4.3767538 4.3767538 0 0 0 88.996094 140.49219 C 80.162053 143.17804 73.974431 150.01458 69.5 156.79102 C 69.496315 156.79659 69.490006 156.80106 69.486328 156.80664 C 58.151703 173.3173 48.123397 191.36436 42.673828 211.29102 C 39.559739 222.71235 39.122436 235.56008 44.091797 247.08008 C 44.095871 247.08952 44.095527 247.09993 44.099609 247.10938 C 48.912566 259.04741 55.779742 269.18426 59.070312 280.14258 A 4.3767538 4.3767538 0 0 0 59.099609 280.23047 C 62.231152 289.96399 63.183815 300.44524 61.919922 310.63086 A 4.3767538 4.3767538 0 0 0 61.896484 310.79883 C 61.180763 319.31256 59.752894 328.31725 60.589844 337.78125 A 4.3767538 4.3767538 0 0 0 60.783203 338.73242 C 61.933506 342.32899 64.923513 344.69211 68.017578 345.61328 C 71.031457 346.51058 74.348958 346.22977 77.244141 344.51367 C 84.602491 340.91814 88.865353 334.22198 92.259766 328.47852 A 4.3767538 4.3767538 0 0 0 92.339844 328.33203 C 100.30061 313.61877 101.54804 296.00108 97.308594 280.14258 C 93.424672 264.94106 85.384254 251.98384 78.691406 239.21094 C 75.113358 232.22379 72.503343 224.84528 73.242188 217.78125 A 4.3767538 4.3767538 0 0 0 73.242188 217.73633 C 74.160053 208.14682 78.804865 198.97722 85.128906 191.41992 C 90.741187 185.02606 99.58014 179.98638 105.42773 170.61719 A 4.3767538 4.3767538 0 0 0 105.53125 170.44141 C 109.37877 163.57514 108.70274 155.13176 104.49023 148.78125 C 101.94245 144.66804 97.844826 140.79098 92.169922 140.00586 A 4.3767538 4.3767538 0 0 0 91.734375 139.96484 z M 486.72461 160.91016 C 473.71895 161.06978 460.25921 168.4756 448.0957 184.30273 C 435.93224 200.12987 424.72675 224.46963 415.4375 259.84961 C 411.56073 274.61518 411.41694 284.14354 413.85742 292.04297 C 416.2979 299.9424 420.85365 305.5446 425.52148 313.42773 C 434.60709 328.7712 434.78395 338.33972 432.02539 344.1875 C 429.45951 349.62685 423.607 352.70535 417.15039 354.09375 C 417.11532 354.01049 417.1268 354.05256 417.0918 353.96094 C 416.44739 352.27482 416.06499 349.5013 413.70312 346.74219 C 402.50941 333.66552 389.69822 316.58827 376.24805 302.35547 C 362.79786 288.12266 348.76855 276.28765 333.54297 275.02734 C 294.84809 271.82433 260.45901 303.74134 242.49414 339.19141 C 236.3901 343.10761 230.13966 347.52242 224.83789 349.93164 C 222.07269 351.18819 219.60437 351.86846 217.72852 351.91602 C 215.85266 351.96357 214.61998 351.59147 213.21094 350.35156 C 200.18311 338.88746 184.64216 331.29612 169.59961 328.51562 C 154.55706 325.73513 139.77029 327.77166 129.00586 336.3418 C 118.24144 344.91194 112.25373 359.79382 113.91797 380.33008 C 115.5822 400.86629 124.58498 427.37849 143.83594 461.13281 C 151.36968 474.34234 157.90084 481.1698 165.14844 484.97461 C 172.39604 488.77938 179.51322 489.40706 188.25977 491.55273 C 198.07467 493.96048 204.44771 496.06724 207.99219 498.06445 C 211.53666 500.06163 212.22098 501.21987 212.62109 503.73242 C 213.42133 508.75753 209.53835 520.65329 207.72656 541.1875 C 205.87481 562.1745 213.49729 577.37552 226.45508 585.73047 C 239.41286 594.08542 256.93047 595.90651 275.21875 593.14258 C 310.13092 587.86624 348.48969 565.71023 364.8125 533.04688 C 387.82076 549.14513 407.06995 557.38757 422.83398 559.14062 C 439.5734 561.00216 452.67544 555.43829 460.77734 545.44141 C 475.56165 527.19918 474.11519 496.68465 461.29492 470.02734 C 488.21434 477.70455 517.39373 477.55482 539.47656 462.16602 C 564.06961 445.02794 578.20401 409.96458 569.7793 351.66602 C 568.02775 339.54561 573.16114 321.78086 579.11719 305.07812 C 582.09519 296.72676 585.22041 288.60656 587.62109 281.33789 C 590.02174 274.06922 591.789 267.76621 591.70312 262.22656 C 591.6541 259.06416 590.30107 256.11888 588.33594 254.01758 C 586.37085 251.91628 583.9255 250.49655 581.2793 249.3457 C 575.98686 247.04402 569.6757 245.75669 563.51953 244.34766 C 557.36332 242.93862 551.38536 241.40993 547.33008 239.34961 C 543.27483 237.28929 541.51325 235.43379 541.29102 232.18164 C 540.01973 213.57771 533.73762 196.00006 524.17383 182.8418 C 514.61004 169.68354 501.46443 160.72922 486.72461 160.91016 z M 264.80273 227.45117 C 256.35475 227.6006 248.72584 232.33668 244.18555 239.17969 A 4.3767538 4.3767538 0 0 0 243.8457 239.79297 C 241.17742 245.66095 244.08913 252.0927 249.54492 254.66016 C 256.96921 258.6693 264.60943 262.02323 272.22852 265.1582 A 4.3767538 4.3767538 0 0 0 272.27344 265.17969 C 281.22325 268.7507 290.39109 271.8956 299.77148 274.35547 A 4.3767538 4.3767538 0 0 0 300.11719 274.43555 C 306.14914 275.50233 311.86589 273.52258 316.41797 270.67969 A 4.3767538 4.3767538 0 0 0 316.45508 270.65039 C 322.10959 267.03549 326.10518 261.71506 328.9668 256.19531 C 329.99325 254.30172 331.13824 252.28021 332.12695 249.98828 A 4.3767538 4.3767538 0 0 0 332.30273 249.51562 C 334.00556 243.85894 331.09836 238.40131 326.46484 235.76953 C 325.97363 235.44359 325.35082 235.01394 324.29297 234.65625 C 323.22784 234.29609 321.60568 234.11753 320.0625 234.63867 C 314.95584 235.96489 310.17464 237.56775 305.47656 238.81836 C 298.23002 237.8084 290.95228 235.06332 283.14648 232.58789 L 283.08008 232.56641 C 277.93108 230.84873 272.66643 229.02661 267.1582 227.60547 A 4.3767538 4.3767538 0 0 0 266.30078 227.47266 C 265.7532 227.44349 265.25281 227.44347 264.80273 227.45117 z M 125.39648 237.46875 C 124.76285 237.45879 124.12335 237.46979 123.47656 237.49805 A 4.3767538 4.3767538 0 0 0 123.43945 237.49805 C 118.94162 237.73667 113.58953 239.24131 110.19727 243.86133 C 106.38117 248.91651 105.86956 255.04105 106.21875 260.22656 A 4.3767538 4.3767538 0 0 0 106.22461 260.30078 C 106.83806 267.52047 108.28072 274.57039 110.16016 281.4043 A 4.3767538 4.3767538 0 0 0 110.39648 282.04688 C 112.95352 287.70011 118.70823 291.97333 125.43359 291.31836 A 4.3767538 4.3767538 0 0 0 125.60352 291.29688 C 130.57676 290.62284 133.52142 287.44133 135.65039 285.8418 A 4.3767538 4.3767538 0 0 0 135.74609 285.76758 C 142.42911 280.44388 147.91438 273.67667 151.86719 266.08008 C 152.86318 264.38444 153.85777 262.69012 154.84961 261.00195 A 4.3767538 4.3767538 0 0 0 155.28516 259.99805 C 155.98121 257.57373 156.58459 255.17901 157.18945 252.84375 A 4.3767538 4.3767538 0 0 0 157.33008 251.66992 C 157.29298 249.36216 156.23406 247.39993 155.10156 246.08984 C 153.96906 244.77976 152.74371 243.938 151.72656 243.29883 A 4.3767538 4.3767538 0 0 0 151.49805 243.16016 C 146.49663 240.43605 141.55588 240.23632 137.92969 239.27734 A 4.3767538 4.3767538 0 0 0 137.70898 239.22461 C 133.92761 238.42883 129.8301 237.53623 125.39648 237.46875 z M 200.09375 241.08594 C 199.68739 241.07758 199.27265 241.08358 198.8457 241.09961 A 4.3767538 4.3767538 0 0 0 198.41016 241.13672 C 188.37534 242.51214 180.44823 250.54117 178.2793 260.27148 C 178.27708 260.28142 178.27564 260.29084 178.27344 260.30078 C 177.26727 264.35493 176.23017 268.50429 175.4375 272.79102 A 4.3767538 4.3767538 0 0 0 175.39453 273.12305 C 174.73527 279.25729 178.46653 284.48157 183.46289 286.85938 C 186.06809 288.12573 188.29413 288.41077 189.66992 288.86719 A 4.3767538 4.3767538 0 0 0 189.85547 288.91992 C 198.64104 291.40888 207.84776 294.29027 217.76562 294.87695 A 4.3767538 4.3767538 0 0 0 217.97266 294.88477 C 224.30366 294.96404 230.24838 292.07194 234.35352 287.44336 A 4.3767538 4.3767538 0 0 0 234.99414 286.49023 C 237.2992 281.85048 235.93801 277.14022 234.3457 273.80078 C 229.94681 264.3022 224.05836 255.39502 216.57812 247.94336 A 4.3767538 4.3767538 0 0 0 216.35547 247.73633 C 211.95729 243.92156 206.30564 241.21873 200.10156 241.08594 A 4.3767538 4.3767538 0 0 0 200.09375 241.08594 z M 254.91211 276.84375 A 4.3767538 4.3767538 0 0 0 253.89258 276.95312 C 253.78342 276.97768 253.63968 277.00777 253.45703 277.04883 A 4.3767538 4.3767538 0 0 0 252.19531 277.54492 C 246.71429 280.77155 244.57663 287.07566 245.49219 292.82422 C 245.75089 295.40742 246.43048 297.6459 246.99023 299.54883 A 4.3767538 4.3767538 0 0 0 248.44531 301.72656 C 253.68265 305.94047 260.82722 305.63833 266.05078 302.25195 C 269.36158 300.26284 271.74714 297.43103 273.5293 294.56641 A 4.3767538 4.3767538 0 0 0 274.19336 292.24219 C 274.17573 286.49041 270.35647 282.14495 265.94727 280.00977 C 262.49758 278.15317 258.83277 277.27203 255.35352 276.87305 A 4.3767538 4.3767538 0 0 0 254.91211 276.84375 z M 161.07227 295.50391 C 159.69106 295.48786 158.3254 295.49481 156.96875 295.51172 A 4.3767538 4.3767538 0 0 0 156.93164 295.51172 C 154.57249 295.55984 152.20796 295.60401 149.83789 295.65234 A 4.3767538 4.3767538 0 0 0 148.58984 295.85938 C 146.03313 296.67696 144.70712 298.89833 144.39062 300.89258 C 144.08068 302.84555 144.64973 305.24111 146.66992 306.83594 C 154.65175 315.69126 164.73528 321.94362 175.11328 326.48633 A 4.3767538 4.3767538 0 0 0 175.12109 326.49414 C 186.20716 331.32406 198.23243 334.07585 210.39062 334.15625 A 4.3767538 4.3767538 0 0 0 210.87109 334.13477 C 214.24009 333.78408 218.73641 332.92008 221.93555 329.14453 A 4.3767538 4.3767538 0 0 0 222.20312 328.79688 C 226.15917 323.05441 224.27282 315.26225 218.2832 311.86914 C 211.63863 307.34485 204.31888 305.34797 197.85742 303.16602 A 4.3767538 4.3767538 0 0 0 197.73828 303.13086 C 187.53811 299.99638 176.86558 296.30929 165.28125 295.63086 A 4.3767538 4.3767538 0 0 0 165.23633 295.63086 C 163.8386 295.56137 162.45235 295.51975 161.07227 295.50391 z M 327.23633 355.74609 L 327.23828 355.74609 L 327.24609 355.74609 C 328.09981 355.73476 328.95019 356.07869 329.55469 356.68164 L 338.97266 366.08984 C 339.58536 366.70387 340.57871 366.70387 341.19141 366.08984 L 342.66992 364.60938 C 343.85821 363.42453 346.01918 363.42166 347.20508 364.60938 C 349.11578 366.52253 353.77569 368.81139 350.68555 371.04883 C 350.68555 371.04883 347.30255 368.52334 344.93555 366.87891 L 340.07812 371.73438 L 327.29297 358.95117 L 314.50977 371.73438 L 309.6543 366.87891 L 304.34766 372.18555 C 304.35899 371.76201 304.19644 371.35195 303.90039 371.04883 L 302.41992 369.57812 L 307.38281 364.60938 C 308.56871 363.42162 310.73164 363.42453 311.91992 364.60938 L 313.39453 366.08984 C 314.00742 366.70519 315.00235 366.70519 315.61523 366.08984 L 325.01953 356.68164 C 325.60218 356.10058 326.41355 355.75682 327.23633 355.74609 z M 357.42969 373.27734 L 364.43555 380.23828 C 365.62988 381.42622 365.62988 383.59334 364.43555 384.78125 L 362.18945 387.01367 C 361.89427 387.30923 361.72892 387.71123 361.73047 388.12891 L 361.73047 389.27344 C 361.73036 389.61586 361.84209 389.94778 362.04883 390.2207 C 362.50128 390.81469 362.92782 391.30844 363.24609 391.76758 C 363.25365 391.77892 363.2621 391.78749 363.27344 391.79883 C 363.30367 391.83965 363.30381 391.844 363.3125 391.85156 C 363.31628 391.85912 363.31861 391.86145 363.32617 391.86523 L 363.33398 391.87695 C 363.33663 391.88073 363.33802 391.88477 363.3418 391.88477 C 363.38753 391.94977 363.43896 392.01091 363.49414 392.06836 L 363.39258 391.96094 L 363.36523 391.92773 C 363.37279 391.93907 363.37721 391.9496 363.38477 391.96094 C 364.13175 393.05783 364.8335 394.18981 365.47852 395.35156 C 365.49363 395.37802 365.50485 395.4009 365.52148 395.42773 L 365.54102 395.46289 L 365.56641 395.5 C 365.60571 395.56917 365.64555 395.64234 365.6875 395.7168 L 365.6875 395.72461 C 365.69506 395.73973 365.70351 395.75876 365.71484 395.77539 C 366.29217 396.84636 366.82585 397.94155 367.3125 399.05859 C 367.31628 399.06993 367.32057 399.08046 367.32812 399.0918 C 367.42601 399.30458 367.52503 399.52354 367.61914 399.73633 C 367.6267 399.75145 367.62916 399.77042 367.63672 399.78516 C 367.64428 399.80027 367.64869 399.81275 367.65625 399.82031 C 368.07419 400.83583 368.45363 401.86446 368.79492 402.91211 C 368.79488 402.91967 368.79488 402.922 368.79492 402.92578 L 368.83203 403.03906 C 368.83468 403.04662 368.83606 403.05103 368.83984 403.05859 C 368.94454 403.35831 369.04916 403.64773 369.14062 403.92969 L 369.14844 403.94531 C 369.15978 403.96799 369.16041 403.9949 369.16797 404.01758 C 369.17061 404.02514 369.172 404.02955 369.17578 404.03711 C 369.45433 404.98358 369.69059 405.93941 369.90625 406.91211 C 369.91381 406.93479 369.91627 406.95193 369.92383 406.97461 L 369.93945 407.03125 C 370.04188 407.45822 370.13963 407.88115 370.22656 408.29883 C 370.23034 408.32151 370.2345 408.34646 370.23828 408.36914 C 370.24093 408.37292 370.24231 408.37708 370.24609 408.38086 C 370.40861 409.25661 370.53748 410.14065 370.64648 411.0293 C 370.65026 411.05197 370.65455 411.07498 370.66211 411.09766 L 370.66211 411.10938 L 370.66797 411.13672 C 370.74167 411.66793 370.8081 412.20863 370.86328 412.75391 C 370.86593 412.76147 370.86536 412.77174 370.86914 412.7793 C 370.87175 412.80575 370.87317 412.82901 370.87695 412.85547 C 370.99185 414.09784 371.05305 415.34731 371.0625 416.59766 L 371.0625 416.60547 C 371.06269 416.62815 371.06269 416.6531 371.0625 416.67578 L 371.0625 416.6875 C 371.04738 417.50369 371.00301 418.32543 370.94141 419.13867 C 370.94118 419.15379 370.94118 419.16501 370.94141 419.18164 C 370.90361 419.94363 370.84663 420.70794 370.76953 421.4668 C 370.76609 421.47814 370.7655 421.49257 370.76172 421.50391 C 370.75794 421.53414 370.75573 421.56559 370.75195 421.59961 C 370.6877 422.08226 370.61364 422.56504 370.53125 423.05664 C 370.52781 423.07176 370.52722 423.08298 370.52344 423.09961 C 370.39493 424.02068 370.23734 424.93203 370.05078 425.8418 L 370.05078 425.84961 C 370.03944 425.88363 370.03478 425.91911 370.02344 425.95312 C 370.0234 425.96068 370.0234 425.96497 370.02344 425.96875 C 369.92933 426.35759 369.83258 426.73117 369.73242 427.10156 L 369.74023 427.09375 L 369.70703 427.20703 C 369.70325 427.22215 369.69519 427.24118 369.69141 427.25781 C 369.45481 428.23267 369.18056 429.20273 368.87695 430.16016 C 368.87355 430.16772 368.86914 430.17213 368.86914 430.17969 C 368.86158 430.20236 368.85717 430.22732 368.84961 430.25 L 368.83594 430.27539 C 368.75543 430.50254 368.66348 430.74797 368.56445 431.01367 C 368.56067 431.02501 368.55261 431.04026 368.54883 431.05273 C 368.16778 432.16021 367.7482 433.24472 367.2832 434.31055 C 367.27564 434.33322 367.26134 434.35818 367.25 434.38086 C 367.24622 434.38842 367.24206 434.40064 367.23828 434.4082 C 367.16798 434.55712 367.09727 434.69734 367.02734 434.8418 C 367.02466 434.84558 367.01953 434.84974 367.01953 434.85352 L 366.96094 434.97461 C 366.95754 434.98217 366.9569 434.98463 366.95312 434.99219 C 366.44096 436.10821 365.8803 437.20522 365.27539 438.27539 C 365.27535 438.27917 365.27535 438.27942 365.27539 438.2832 C 365.25271 438.321 365.22813 438.36064 365.20508 438.39844 L 365.19727 438.41016 C 365.2086 438.39126 365.20469 438.40268 365.14648 438.49414 C 365.13515 438.51304 365.12462 438.52451 365.11328 438.54492 C 364.42567 439.73555 363.67388 440.89618 362.875 442.01953 L 362.875 442.02734 C 359.42554 446.85134 354.98073 450.96542 349.9043 454.0293 C 349.98367 453.98281 349.98239 453.98502 349.83008 454.07422 C 349.82743 454.078 349.82605 454.07825 349.82227 454.08203 C 349.81849 454.08581 349.8142 454.08385 349.80664 454.08789 L 349.78125 454.10742 L 349.74219 454.12695 C 349.25924 454.41646 348.76622 454.6958 348.27148 454.9668 C 348.24881 454.97814 348.2246 454.98866 348.20117 455 C 347.07529 455.61123 345.92603 456.17592 344.75195 456.68555 C 344.7255 456.69689 344.70073 456.70836 344.67578 456.72461 L 344.66797 456.72461 C 344.53077 456.78622 344.3792 456.84893 344.21094 456.92188 L 344.20508 456.92969 C 344.18996 456.93725 344.17294 456.94166 344.1582 456.94922 L 344.15234 456.94922 C 343.06157 457.40133 341.94768 457.8098 340.82422 458.17188 C 340.81666 458.17565 340.80847 458.17786 340.80469 458.18164 C 340.52916 458.27537 340.26193 458.36097 340.00391 458.44336 C 339.99635 458.44336 339.99193 458.45117 339.98438 458.45117 C 339.96548 458.45495 339.94663 458.46314 339.92773 458.4707 C 338.91278 458.77155 337.88344 459.03451 336.85352 459.25977 C 336.84596 459.26355 336.83568 459.2638 336.82812 459.26758 C 336.42311 459.36358 336.02146 459.459 335.62695 459.54102 L 335.61914 459.54102 C 335.59646 459.5448 335.57774 459.54895 335.55469 459.55273 C 334.66366 459.71752 333.76334 459.85095 332.85742 459.96094 C 332.83474 459.96472 332.81609 459.96888 332.79492 459.97266 C 332.26552 460.04598 331.72191 460.11121 331.17773 460.16602 C 331.15128 460.1698 331.12329 460.172 331.0957 460.17578 C 329.84759 460.29332 328.59177 460.36158 327.33398 460.36914 L 327.32617 460.36914 C 327.30349 460.36937 327.28049 460.36937 327.25781 460.36914 C 326.30654 460.35402 325.35389 460.30606 324.41211 460.23047 C 324.46238 460.23047 324.44982 460.23363 324.30469 460.2207 C 324.29713 460.22067 324.28894 460.22067 324.28516 460.2207 C 323.45831 460.16401 322.62961 460.08163 321.79883 459.97656 C 321.79127 459.97652 321.78503 459.97652 321.78125 459.97656 C 321.76991 459.97656 321.76147 459.97253 321.75391 459.96875 C 321.74635 459.96867 321.73985 459.96867 321.72852 459.96875 C 321.22614 459.90147 320.72459 459.82414 320.22656 459.74023 L 320.21094 459.74023 C 319.26545 459.58716 318.32574 459.40237 317.39258 459.1875 C 317.38502 459.18372 317.36876 459.18347 317.35742 459.17969 C 317.35364 459.17969 317.34753 459.17188 317.34375 459.17188 C 317.31729 459.16432 317.28931 459.15612 317.26172 459.15234 C 316.89284 459.06126 316.5222 458.96029 316.1543 458.85938 L 316.13867 458.85938 C 315.06967 458.57856 314.01989 458.25787 312.97852 457.89844 C 312.95584 457.89088 312.93561 457.88842 312.91406 457.88086 C 312.68049 457.79809 312.45559 457.71483 312.23438 457.63281 L 312.22656 457.63281 C 311.04754 457.19949 309.88884 456.71658 308.75195 456.18359 C 308.74817 456.17981 308.74011 456.17956 308.73633 456.17578 C 308.73255 456.172 308.72644 456.17175 308.72266 456.16797 C 308.72198 456.16797 308.72174 456.16016 308.71875 456.16016 C 308.70741 456.1526 308.69884 456.14831 308.6875 456.14453 C 308.61078 456.10674 308.54308 456.07698 308.47656 456.04297 C 308.46522 456.03541 308.44997 456.03295 308.4375 456.02539 C 307.6226 455.64895 306.82309 455.2455 306.02734 454.81641 L 306.01953 454.81641 C 305.98174 454.79751 305.95312 454.7728 305.91797 454.75391 L 305.91797 454.76172 C 305.50513 454.51832 305.10311 454.27534 304.71484 454.0293 C 304.64719 453.98697 304.57597 453.93862 304.51172 453.89062 C 304.50416 453.88307 304.49389 453.87865 304.48633 453.87109 C 304.44589 453.84086 304.40517 453.81004 304.36133 453.7832 C 303.55712 453.29496 302.77007 452.80748 302.03125 452.29297 C 302.00857 452.27785 301.98399 452.25882 301.96094 452.24219 C 301.95338 452.23463 301.94493 452.23022 301.93359 452.22266 C 301.72307 452.06694 301.52065 451.90971 301.32227 451.75781 C 301.31471 451.75025 301.30821 451.74584 301.29688 451.73828 C 301.3479 451.7723 301.2854 451.72776 301.25781 451.70508 C 301.21851 451.67862 301.21447 451.67446 301.23828 451.69336 C 301.23072 451.6858 301.23814 451.70092 301.23047 451.69336 C 301.22291 451.6858 301.21264 451.68334 301.20508 451.67578 C 300.29043 451.00034 299.40536 450.29505 298.55273 449.55664 C 298.53006 449.53774 298.50793 449.51071 298.48828 449.49219 C 298.47694 449.48463 298.46837 449.4724 298.45703 449.46484 C 298.31757 449.3371 298.19097 449.21785 298.0625 449.09766 C 298.05985 449.09388 298.06042 449.09362 298.05664 449.08984 C 298.00637 449.04336 297.97763 449.02255 297.97461 449.01953 L 297.94727 448.99414 C 297.0457 448.18154 296.1806 447.33178 295.35156 446.44922 L 295.33984 446.4375 L 295.28906 446.38672 C 295.24976 446.3425 295.1769 446.26037 295.07031 446.13867 L 295.04492 446.10547 C 294.1522 445.13421 293.30553 444.12185 292.50586 443.07617 L 292.48633 443.05664 C 292.46743 443.03396 292.45218 443.00901 292.43555 442.98633 C 292.41665 442.95987 292.37216 442.89616 292.33398 442.83984 L 292.3418 442.83984 C 291.51877 441.74662 290.7484 440.61743 290.0332 439.45508 C 290.0332 439.4513 290.02526 439.45105 290.02148 439.44727 C 290.0177 439.44349 290.01745 439.43933 290.01367 439.43555 C 290.00611 439.42421 290.00365 439.41368 289.99609 439.40234 C 289.99231 439.39478 289.98815 439.39037 289.98438 439.38281 C 290.01461 439.43384 290.00213 439.4131 289.94922 439.32617 C 289.94778 439.31861 289.94675 439.31615 289.94531 439.30859 C 289.20679 438.09189 288.52219 436.8455 287.9082 435.56836 C 285.06936 429.69146 283.56987 423.16081 283.55664 416.63281 L 283.55664 416.625 C 283.5566 416.61366 283.55664 416.60522 283.55664 416.59766 C 283.57554 414.43694 283.7547 412.27942 284.0918 410.14648 C 284.09221 410.1427 284.09142 410.14245 284.0918 410.13867 C 284.09327 410.13111 284.0943 410.12865 284.0957 410.12109 C 284.0957 410.11731 284.10352 410.10547 284.10352 410.10547 C 285.1704 402.96526 288.29282 396.21509 292.68164 390.38672 C 292.8846 390.11497 292.99294 389.78434 292.99219 389.44531 L 292.99219 388.25391 C 292.99408 387.83627 292.83003 387.43423 292.53516 387.13867 L 290.16211 384.78516 C 288.96782 383.59721 288.96782 381.43009 290.16211 380.24219 L 297.16602 373.28125 L 299.44922 375.54883 L 292.43945 382.50781 L 296.04102 386.08398 L 296.04102 385.86719 C 306.35746 384.2223 316.76098 383.33492 327.26758 383.30469 C 337.68501 383.27445 348.20338 384.08206 358.83398 385.82227 L 362.16992 382.50977 L 355.16016 375.55078 L 357.42969 373.27734 z M 327.27344 387.82227 C 316.91553 387.8525 306.65731 388.716 296.48438 390.31641 C 291.59091 396.0778 288.40651 403.09204 287.29102 410.56836 C 286.97316 412.56251 286.8045 414.57841 286.78711 416.59766 C 286.79845 422.67446 288.17875 428.67088 290.82227 434.14258 C 291.39445 435.33022 292.02383 436.48897 292.70898 437.61523 C 292.73166 437.65303 292.7507 437.68681 292.77148 437.72461 C 293.43857 438.81107 294.15734 439.86599 294.92383 440.88477 C 294.97372 440.95506 295.02395 441.02578 295.07422 441.0957 C 295.8164 442.06723 296.60077 443.00382 297.42773 443.9043 C 297.52033 444.01088 297.6133 444.11721 297.70703 444.22266 C 298.50126 445.06772 299.33154 445.87849 300.19531 446.65234 C 300.34536 446.79408 300.49654 446.93314 300.64844 447.07227 C 301.47612 447.78894 302.33379 448.47182 303.2168 449.11914 C 303.42996 449.28506 303.6448 449.44949 303.86133 449.61133 C 304.68636 450.18869 305.5327 450.73572 306.39844 451.25 L 306.44922 451.28516 C 306.8181 451.51949 307.19215 451.7485 307.56836 451.9707 C 308.30136 452.36721 309.04668 452.74106 309.80273 453.0918 C 309.90251 453.14055 310.00141 453.18637 310.10156 453.23438 C 311.16433 453.73293 312.24757 454.1854 313.34961 454.58984 C 313.56542 454.67035 313.78268 454.74945 314 454.82617 C 314.9933 455.17086 316.00043 455.47573 317.01758 455.74219 C 317.36 455.83479 317.70233 455.92428 318.04688 456.00781 C 318.94727 456.21758 319.85494 456.3968 320.76758 456.54492 C 321.24433 456.62543 321.72185 456.69665 322.20117 456.75977 C 322.99056 456.85917 323.78427 456.93575 324.57812 456.98828 C 325.48767 457.06463 326.39794 457.10988 327.31055 457.125 C 328.49615 457.11744 329.68113 457.05441 330.86133 456.94141 C 331.38819 456.88811 331.91508 456.82213 332.43945 456.74805 C 333.29075 456.64524 334.13737 456.516 334.98047 456.35938 C 335.38125 456.27585 335.78163 456.18547 336.17969 456.08984 C 337.13553 455.88008 338.08333 455.63597 339.02148 455.35742 C 339.29777 455.26898 339.57315 455.17847 339.84766 455.08398 C 340.88941 454.74874 341.91656 454.37167 342.92773 453.95312 C 343.09101 453.88094 343.25391 453.80845 343.41602 453.73438 C 344.52432 453.25679 345.61058 452.72886 346.67188 452.1543 C 347.17039 451.88179 347.66374 451.59993 348.15039 451.30664 C 348.17685 451.29152 348.20363 451.2764 348.23047 451.25977 C 352.95522 448.40993 357.04943 444.62434 360.25977 440.13672 C 361.00044 439.0964 361.69092 438.0216 362.33008 436.91602 C 362.37921 436.83589 362.42781 436.75629 362.47656 436.67578 C 363.0588 435.64828 363.59566 434.59589 364.08594 433.52148 C 364.16947 433.35065 364.25272 433.17944 364.33398 433.00781 C 364.76576 432.0172 365.15654 431.00831 365.50781 429.98633 C 365.61137 429.71345 365.71304 429.44079 365.81055 429.16602 C 366.10535 428.23697 366.36484 427.29744 366.5918 426.34961 C 366.69611 425.965 366.79532 425.57892 366.88867 425.19141 C 367.06291 424.34559 367.2103 423.49394 367.33008 422.63867 C 367.41587 422.1352 367.4917 421.63134 367.55859 421.125 C 367.63343 420.37752 367.68782 419.62742 367.7207 418.87695 C 367.77966 418.11991 367.81773 417.36068 367.83398 416.60156 C 367.82643 415.41948 367.7646 414.23926 367.65234 413.0625 C 367.59716 412.52082 367.53023 411.98037 367.45312 411.44141 C 367.35259 410.60828 367.22634 409.77835 367.07422 408.95312 C 366.9854 408.52729 366.88953 408.10243 366.78711 407.67969 C 366.58301 406.7531 366.34658 405.83382 366.07812 404.92383 C 365.9791 404.61391 365.87769 404.30532 365.77148 403.99805 C 365.44607 402.98986 365.08127 401.9952 364.67773 401.01562 C 364.59081 400.81796 364.50049 400.61999 364.41016 400.42383 C 363.94822 399.35649 363.44067 398.31079 362.88867 397.28711 C 362.82782 397.18015 362.76706 397.073 362.70508 396.9668 C 362.0965 395.86665 361.43669 394.7947 360.72852 393.75586 C 360.7134 393.73318 360.69443 393.71018 360.67969 393.6875 C 359.86543 392.50428 358.98989 391.36552 358.05469 390.27539 C 358.21003 390.30185 358.36423 390.32315 358.51953 390.34961 L 358.51953 390.29102 C 347.99823 388.58683 337.58599 387.79203 327.27344 387.82227 z M 350.28516 403.9375 C 350.28545 403.93818 350.29267 403.93678 350.29297 403.9375 C 350.29397 403.93977 350.29196 403.94304 350.29297 403.94531 L 350.28516 403.9375 z M 351.71094 407.90039 A 4.3767538 4.3767538 0 0 0 351.7168 407.90039 C 351.68993 407.82374 351.70585 407.88446 351.7168 407.91602 C 351.72844 407.94829 351.69798 407.86339 351.71094 407.90039 z M 269.65234 412.32227 C 269.65081 412.33194 269.65388 412.34192 269.65234 412.35156 C 269.65153 412.35697 269.64729 412.36178 269.64648 412.36719 L 269.65234 412.32227 z M 353.01758 441.15625 L 355.56445 443.20898 C 355.56378 443.21012 355.55664 443.2168 355.55664 443.2168 C 355.55664 443.2168 354.1411 442.22728 352.90625 441.36328 A 4.3767538 4.3767538 0 0 0 352.96484 441.26758 C 352.98491 441.23216 352.9976 441.1917 353.01758 441.15625 z M 334.36914 452.67969 C 334.35264 452.6897 334.34268 452.70682 334.32617 452.7168 A 4.3767538 4.3767538 0 0 0 334.27344 452.75391 A 4.3767538 4.3767538 0 0 0 334.23633 452.77539 A 4.3767538 4.3767538 0 0 0 334.20117 452.79688 A 4.3767538 4.3767538 0 0 0 334.18555 452.8125 A 4.3767538 4.3767538 0 0 0 334.17773 452.8125 C 334.05486 452.88616 333.92529 452.95466 333.80078 453.02734 L 334.00781 452.82031 L 334.36914 452.67969 z M 286.29883 454.28906 C 286.38044 454.35237 286.46102 454.41773 286.54297 454.48047 C 286.39143 454.52023 286.36229 454.52651 286.19531 454.57031 L 286.29883 454.28906 z M 286.60156 454.52539 C 286.71683 454.6133 286.82548 454.71209 286.94141 454.79883 C 286.50564 455.10539 286.37296 455.19509 285.83398 455.57422 L 286.1582 454.66602 C 286.37402 454.59866 286.41104 454.5848 286.60156 454.52539 z M 297.25391 454.63672 L 297.29883 454.6582 L 297.32812 454.67969 C 297.33181 454.68127 297.34737 454.68656 297.34961 454.6875 C 297.35609 454.69136 297.35461 454.69361 297.35742 454.69531 L 297.38672 454.70898 L 297.4082 454.72461 C 297.4134 454.72835 297.49049 454.78352 297.51172 454.79883 C 297.41913 454.74675 297.38064 454.72921 297.32031 454.69531 C 297.31343 454.69055 297.27262 454.66036 297.26953 454.6582 C 297.28819 454.66618 297.31814 454.67542 297.32812 454.67969 A 4.3767538 4.3767538 0 0 0 297.25391 454.63672 z M 325.2168 456.88672 C 325.20334 456.89734 325.14351 456.94486 325.11328 456.96875 C 325.10324 456.97174 325.10171 456.97365 325.0918 456.97656 C 325.10487 456.96568 325.17201 456.91008 325.17188 456.91016 L 325.2168 456.88672 z M 310.76367 463.77539 C 310.78105 463.77664 310.79707 463.78004 310.81445 463.78125 C 310.4863 464.98922 309.97266 466.89062 309.97266 466.89062 L 309.78125 466.83008 C 309.78125 466.83008 310.3794 464.96927 310.76367 463.77539 z M 310.94727 463.78906 C 310.95483 463.78967 310.96118 463.79627 310.96875 463.79688 C 311.05322 463.80379 311.1364 463.79834 311.2207 463.80469 L 311.0957 467.04492 C 311.02744 467.04492 310.69398 467.0231 310.69727 467.02344 C 310.69768 467.02348 310.45288 466.99215 310.45312 466.99219 C 310.45312 466.99219 310.7577 465.02991 310.94727 463.79688 C 310.9477 463.79408 310.94684 463.79182 310.94727 463.78906 z "
       transform="scale(0.26458333)"
       id="path1592" />
    <path
       style="opacity:0.5;fill:#ffeeaa;fill-opacity:1;stroke:none;stroke-width:2.83464622;stroke-miterlimit:4;stroke-dasharray:none;stroke-dashoffset:0"
       d="M 361.94531 42.0625 C 331.23745 41.862828 299.24302 50.856077 269.78125 74.541016 C 245.92513 93.719407 149.92926 103.6989 127.00195 113.70703 C 105.26198 123.19687 170.16772 143.50209 145.4082 155.36719 C 62.870763 194.92026 132.61419 271.62351 316.36523 197.86719 C 356.35744 181.81457 360.85164 178.98912 371.17383 165.14648 C 393.88315 134.69201 406.05949 135.83067 467.57617 145.48242 C 564.8594 160.7458 471.61616 42.775648 361.94531 42.0625 z M 91.572266 144.33594 C 91.136127 144.44951 90.701775 144.56224 90.265625 144.67578 C 82.90535 146.91356 77.323384 152.8811 73.138672 159.22266 C 61.947211 175.51584 52.17324 193.1629 46.900391 212.44336 C 43.977795 223.16237 43.648139 235.03783 48.115234 245.37305 C 52.693104 256.76763 59.705969 267.0453 63.261719 278.88672 C 66.593977 289.24411 67.603648 300.35149 66.261719 311.16602 C 65.528906 319.88303 64.179871 328.62871 64.955078 337.39453 C 66.278884 341.53358 71.718201 342.87236 75.167969 340.71484 C 81.23992 337.83359 85.142243 331.92679 88.496094 326.25195 C 95.851844 312.65691 97.05423 296.09654 93.068359 281.22461 C 89.396348 266.85249 81.589332 254.16891 74.796875 241.20117 C 71.053665 233.89151 68.010529 225.72002 68.888672 217.32422 C 69.915033 206.60118 75.025866 196.6535 81.806641 188.56445 C 88.061343 181.42153 96.599699 176.49251 101.71484 168.29688 C 104.67396 163.01604 104.15963 156.12244 100.83203 151.14258 C 98.771623 147.78649 95.522877 144.88251 91.572266 144.33594 z M 486.77344 165.28711 C 463.96497 165.56706 438.05789 190.93064 419.66992 260.96484 C 412.13124 289.67754 419.65482 294.92674 429.28906 311.19727 C 448.26804 343.24831 432.7675 356.24925 416.52344 358.89062 C 412.85642 359.4869 412.79595 352.41324 410.37891 349.5918 C 387.75052 323.17742 359.30158 281.54866 333.18359 279.38672 C 296.68763 276.36572 262.8189 307.54664 245.60352 342.41797 C 233.21634 350.29062 219.21488 361.46341 210.31836 353.63477 C 160.53599 309.82776 71.436341 325.34943 147.64062 458.96484 C 162.28546 484.64284 171.22321 482.86363 189.30273 487.29883 C 229.07857 497.05651 215.63061 501.44429 212.08984 541.57422 C 205.09281 620.87566 335.30726 593.19267 363.2168 526.73633 C 461.47327 598.32009 485.74929 518.4309 454.11914 464.50195 C 453.91429 464.15272 453.73951 463.80276 453.57812 463.44922 C 510.21941 483.89994 582.03232 467.06038 565.44727 352.29297 C 561.46115 324.70965 587.59933 280.04439 587.32422 262.29492 C 587.06343 245.46466 538.29968 252.58191 536.92578 232.47656 C 534.49271 196.87086 512.62302 164.96979 486.77344 165.28711 z M 371.69141 180.75586 C 359.99446 180.67676 342.57285 206.17393 343.35938 226.63086 C 344.08746 245.56834 371.04455 249.43487 378.58203 267.98828 C 389.83168 295.67938 418.67022 265.93651 413.80469 226.63086 C 410.84536 202.72457 391.18902 207.17245 378.58203 185.27344 C 376.78667 182.15481 374.39071 180.77412 371.69141 180.75586 z M 264.875 231.82617 C 258.06718 231.94659 251.6207 235.89333 247.83203 241.60352 C 246.29821 244.97665 248.20723 249.22068 251.41797 250.7207 C 258.68958 254.66162 266.26721 257.97607 273.89648 261.11523 C 282.71426 264.63356 291.70734 267.71846 300.87695 270.12305 C 305.47676 270.93655 310.1921 269.40446 314.10156 266.96289 C 318.89292 263.8998 322.47625 259.22088 325.0957 254.16211 C 326.14801 252.21959 327.23552 250.2802 328.11133 248.25 C 329.12156 244.89407 327.199 241.17723 324.28711 239.54102 C 323.43389 238.97688 322.39888 238.36676 321.36328 238.82227 C 316.06431 240.18784 310.88234 241.9864 305.58008 243.33984 C 297.36923 242.31628 289.61329 239.22171 281.75977 236.73438 C 276.56092 235.00062 271.37176 233.2145 266.06641 231.8457 C 265.66903 231.8245 265.27284 231.81937 264.875 231.82617 z M 125.33203 241.84766 C 124.77917 241.83866 124.22456 241.84464 123.66992 241.86914 C 119.97106 242.06537 116.00012 243.30738 113.69922 246.46484 C 110.82594 250.25268 110.2732 255.28547 110.58594 259.92969 C 111.17068 266.81149 112.55196 273.60304 114.37891 280.24609 C 116.2246 284.32666 120.52389 287.40366 125.00977 286.9668 C 128.16473 286.5392 130.56338 284.19203 133.02344 282.34375 C 139.20354 277.42068 144.30399 271.12397 147.98242 264.05469 C 149.01385 262.29914 150.04671 260.54462 151.07812 258.78906 C 151.74842 256.45448 152.34203 254.09786 152.95117 251.74609 C 152.91607 249.5594 151.07067 248.05155 149.40039 247.00195 C 145.50617 244.8809 141.01325 244.61782 136.80859 243.50586 C 133.02667 242.70996 129.20202 241.90656 125.33203 241.84766 z M 200.00586 245.45898 C 199.67515 245.45198 199.34191 245.4538 199.00977 245.4668 C 191.02483 246.56125 184.31155 253.28334 182.54688 261.24609 C 181.53151 265.33775 180.50539 269.43551 179.73828 273.58398 C 179.31372 277.53441 181.92624 281.2965 185.34375 282.91992 C 187.14909 283.80554 189.15879 284.08263 191.05273 284.71094 C 199.90289 287.21819 208.80098 289.96043 218.02148 290.50586 C 222.94744 290.56756 227.78031 288.25298 231.07422 284.53906 C 232.47935 281.71073 231.68243 278.36405 230.38867 275.6582 C 226.17673 266.55715 220.55757 258.07746 213.49414 251.04102 C 209.73932 247.78426 204.96648 245.56516 200.00586 245.45898 z M 254.85547 281.2168 C 254.70931 281.2497 254.56407 281.28155 254.41797 281.31445 C 250.79641 283.44643 249.12651 288.09145 249.80469 292.20312 C 249.98576 294.29784 250.60003 296.31654 251.18945 298.32031 C 254.74874 301.18408 260.01703 301.01432 263.74023 298.56641 C 266.27442 297.06726 268.25982 294.76495 269.81836 292.25977 C 269.80706 288.56013 267.1321 285.38684 263.97266 283.88477 C 261.15785 282.34798 258.00888 281.57841 254.85547 281.2168 z M 161.02344 299.88281 C 159.68979 299.86731 158.35741 299.87187 157.02344 299.88867 C 154.65883 299.93687 152.2943 299.98497 149.92969 300.0332 C 148.5735 300.46688 148.23706 302.59495 149.38086 303.45117 C 156.86822 311.96916 166.65511 318.00586 176.87305 322.47852 C 187.45436 327.08853 198.90298 329.70315 210.41797 329.7793 C 213.37323 329.47168 216.56928 328.71256 218.59961 326.31641 C 220.96547 322.8822 219.65584 317.57738 216.05859 315.60352 C 210.14284 311.50275 203.16102 309.57768 196.45312 307.3125 C 186.168 304.15191 175.82595 300.63253 165.02539 300 C 163.69266 299.9337 162.35709 299.89812 161.02344 299.88281 z M 327.23633 355.74609 L 327.23828 355.74609 L 327.24609 355.74609 C 328.09981 355.73476 328.95019 356.07869 329.55469 356.68164 L 338.97266 366.08984 C 339.58536 366.70387 340.57871 366.70387 341.19141 366.08984 L 342.66992 364.60938 C 343.85821 363.42453 346.01918 363.42166 347.20508 364.60938 C 349.11578 366.52253 353.77569 368.81139 350.68555 371.04883 C 350.68555 371.04883 347.30255 368.52334 344.93555 366.87891 L 340.07812 371.73438 L 327.29297 358.95117 L 314.50977 371.73438 L 309.6543 366.87891 L 304.34766 372.18555 C 304.35899 371.76201 304.19644 371.35195 303.90039 371.04883 L 302.41992 369.57812 L 307.38281 364.60938 C 308.56871 363.42162 310.73164 363.42453 311.91992 364.60938 L 313.39453 366.08984 C 314.00742 366.70519 315.00235 366.70519 315.61523 366.08984 L 325.01953 356.68164 C 325.60218 356.10058 326.41355 355.75682 327.23633 355.74609 z M 357.42969 373.27734 L 364.43555 380.23828 C 365.62988 381.42622 365.62988 383.59334 364.43555 384.78125 L 362.18945 387.01367 C 361.89427 387.30923 361.72892 387.71123 361.73047 388.12891 L 361.73047 389.27344 C 361.73036 389.61586 361.84209 389.94778 362.04883 390.2207 C 362.50128 390.81469 362.92782 391.30844 363.24609 391.76758 C 363.25365 391.77892 363.2621 391.78749 363.27344 391.79883 C 363.30367 391.83965 363.30381 391.844 363.3125 391.85156 C 363.31628 391.85912 363.31861 391.86145 363.32617 391.86523 L 363.33398 391.87695 C 363.33663 391.88073 363.33802 391.88477 363.3418 391.88477 C 363.38753 391.94977 363.43896 392.01091 363.49414 392.06836 L 363.39258 391.96094 L 363.36523 391.92773 C 363.37279 391.93907 363.37721 391.9496 363.38477 391.96094 C 364.13175 393.05783 364.8335 394.18981 365.47852 395.35156 C 365.49363 395.37802 365.50485 395.4009 365.52148 395.42773 L 365.54102 395.46289 L 365.56641 395.5 C 365.60571 395.56917 365.64555 395.64234 365.6875 395.7168 L 365.6875 395.72461 C 365.69506 395.73973 365.70351 395.75876 365.71484 395.77539 C 366.29217 396.84636 366.82585 397.94155 367.3125 399.05859 C 367.31628 399.06993 367.32057 399.08046 367.32812 399.0918 C 367.42601 399.30458 367.52503 399.52354 367.61914 399.73633 C 367.6267 399.75145 367.62916 399.77042 367.63672 399.78516 C 367.64428 399.80027 367.64869 399.81275 367.65625 399.82031 C 368.07419 400.83583 368.45363 401.86446 368.79492 402.91211 C 368.79488 402.91967 368.79488 402.922 368.79492 402.92578 L 368.83203 403.03906 C 368.83468 403.04662 368.83606 403.05103 368.83984 403.05859 C 368.94454 403.35831 369.04916 403.64773 369.14062 403.92969 L 369.14844 403.94531 C 369.15978 403.96799 369.16041 403.9949 369.16797 404.01758 C 369.17061 404.02514 369.172 404.02955 369.17578 404.03711 C 369.45433 404.98358 369.69059 405.93941 369.90625 406.91211 C 369.91381 406.93479 369.91627 406.95193 369.92383 406.97461 L 369.93945 407.03125 C 370.04188 407.45822 370.13963 407.88115 370.22656 408.29883 C 370.23034 408.32151 370.2345 408.34646 370.23828 408.36914 C 370.24093 408.37292 370.24231 408.37708 370.24609 408.38086 C 370.40861 409.25661 370.53748 410.14065 370.64648 411.0293 C 370.65026 411.05197 370.65455 411.07498 370.66211 411.09766 L 370.66211 411.10938 L 370.66797 411.13672 C 370.74167 411.66793 370.8081 412.20863 370.86328 412.75391 C 370.86593 412.76147 370.86536 412.77174 370.86914 412.7793 C 370.87175 412.80575 370.87317 412.82901 370.87695 412.85547 C 370.99185 414.09784 371.05305 415.34731 371.0625 416.59766 L 371.0625 416.60547 C 371.06269 416.62815 371.06269 416.6531 371.0625 416.67578 L 371.0625 416.6875 C 371.04738 417.50369 371.00301 418.32543 370.94141 419.13867 C 370.94118 419.15379 370.94118 419.16501 370.94141 419.18164 C 370.90361 419.94363 370.84663 420.70794 370.76953 421.4668 C 370.76609 421.47814 370.7655 421.49257 370.76172 421.50391 C 370.75794 421.53414 370.75573 421.56559 370.75195 421.59961 C 370.6877 422.08226 370.61364 422.56504 370.53125 423.05664 C 370.52781 423.07176 370.52722 423.08298 370.52344 423.09961 C 370.39493 424.02068 370.23734 424.93203 370.05078 425.8418 L 370.05078 425.84961 C 370.03944 425.88363 370.03478 425.91911 370.02344 425.95312 C 370.0234 425.96068 370.0234 425.96497 370.02344 425.96875 C 369.92933 426.35759 369.83258 426.73117 369.73242 427.10156 L 369.74023 427.09375 L 369.70703 427.20703 C 369.70325 427.22215 369.69519 427.24118 369.69141 427.25781 C 369.45481 428.23267 369.18056 429.20273 368.87695 430.16016 C 368.87355 430.16772 368.86914 430.17213 368.86914 430.17969 C 368.86158 430.20236 368.85717 430.22732 368.84961 430.25 L 368.83594 430.27539 C 368.75543 430.50254 368.66348 430.74797 368.56445 431.01367 C 368.56067 431.02501 368.55261 431.04026 368.54883 431.05273 C 368.16778 432.16021 367.7482 433.24472 367.2832 434.31055 C 367.27564 434.33322 367.26134 434.35818 367.25 434.38086 C 367.24622 434.38842 367.24206 434.40064 367.23828 434.4082 C 367.16798 434.55712 367.09727 434.69734 367.02734 434.8418 C 367.02466 434.84558 367.01953 434.84974 367.01953 434.85352 L 366.96094 434.97461 C 366.95754 434.98217 366.9569 434.98463 366.95312 434.99219 C 366.44096 436.10821 365.8803 437.20522 365.27539 438.27539 C 365.27535 438.27917 365.27535 438.27942 365.27539 438.2832 C 365.25271 438.321 365.22813 438.36064 365.20508 438.39844 L 365.19727 438.41016 C 365.2086 438.39126 365.20469 438.40268 365.14648 438.49414 C 365.13515 438.51304 365.12462 438.52451 365.11328 438.54492 C 364.42567 439.73555 363.67388 440.89618 362.875 442.01953 L 362.875 442.02734 C 359.42554 446.85134 354.98073 450.96542 349.9043 454.0293 C 349.98367 453.98281 349.98239 453.98502 349.83008 454.07422 C 349.82743 454.078 349.82605 454.07825 349.82227 454.08203 C 349.81849 454.08581 349.8142 454.08385 349.80664 454.08789 L 349.78125 454.10742 L 349.74219 454.12695 C 349.25924 454.41646 348.76622 454.6958 348.27148 454.9668 C 348.24881 454.97814 348.2246 454.98866 348.20117 455 C 347.07529 455.61123 345.92603 456.17592 344.75195 456.68555 C 344.7255 456.69689 344.70073 456.70836 344.67578 456.72461 L 344.66797 456.72461 C 344.53077 456.78622 344.3792 456.84893 344.21094 456.92188 L 344.20508 456.92969 C 344.18996 456.93725 344.17294 456.94166 344.1582 456.94922 L 344.15234 456.94922 C 343.06157 457.40133 341.94768 457.8098 340.82422 458.17188 C 340.81666 458.17565 340.80847 458.17786 340.80469 458.18164 C 340.52916 458.27537 340.26193 458.36097 340.00391 458.44336 C 339.99635 458.44336 339.99193 458.45117 339.98438 458.45117 C 339.96548 458.45495 339.94663 458.46314 339.92773 458.4707 C 338.91278 458.77155 337.88344 459.03451 336.85352 459.25977 C 336.84596 459.26355 336.83568 459.2638 336.82812 459.26758 C 336.42311 459.36358 336.02146 459.459 335.62695 459.54102 L 335.61914 459.54102 C 335.59646 459.5448 335.57774 459.54895 335.55469 459.55273 C 334.66366 459.71752 333.76334 459.85095 332.85742 459.96094 C 332.83474 459.96472 332.81609 459.96888 332.79492 459.97266 C 332.26552 460.04598 331.72191 460.11121 331.17773 460.16602 C 331.15128 460.1698 331.12329 460.172 331.0957 460.17578 C 329.84759 460.29332 328.59177 460.36158 327.33398 460.36914 L 327.32617 460.36914 C 327.30349 460.36937 327.28049 460.36937 327.25781 460.36914 C 326.30654 460.35402 325.35389 460.30606 324.41211 460.23047 C 324.46238 460.23047 324.44982 460.23363 324.30469 460.2207 C 324.29713 460.22067 324.28894 460.22067 324.28516 460.2207 C 323.45831 460.16401 322.62961 460.08163 321.79883 459.97656 C 321.79127 459.97652 321.78503 459.97652 321.78125 459.97656 C 321.76991 459.97656 321.76147 459.97253 321.75391 459.96875 C 321.74635 459.96867 321.73985 459.96867 321.72852 459.96875 C 321.22614 459.90147 320.72459 459.82414 320.22656 459.74023 L 320.21094 459.74023 C 319.26545 459.58716 318.32574 459.40237 317.39258 459.1875 C 317.38502 459.18372 317.36876 459.18347 317.35742 459.17969 C 317.35364 459.17969 317.34753 459.17188 317.34375 459.17188 C 317.31729 459.16432 317.28931 459.15612 317.26172 459.15234 C 316.89284 459.06126 316.5222 458.96029 316.1543 458.85938 L 316.13867 458.85938 C 315.06967 458.57856 314.01989 458.25787 312.97852 457.89844 C 312.95584 457.89088 312.93561 457.88842 312.91406 457.88086 C 312.68049 457.79809 312.45559 457.71483 312.23438 457.63281 L 312.22656 457.63281 C 311.04754 457.19949 309.88884 456.71658 308.75195 456.18359 C 308.74817 456.17981 308.74011 456.17956 308.73633 456.17578 C 308.73255 456.172 308.72644 456.17175 308.72266 456.16797 C 308.72198 456.16797 308.72174 456.16016 308.71875 456.16016 C 308.70741 456.1526 308.69884 456.14831 308.6875 456.14453 C 308.61078 456.10674 308.54308 456.07698 308.47656 456.04297 C 308.46522 456.03541 308.44997 456.03295 308.4375 456.02539 C 307.6226 455.64895 306.82309 455.2455 306.02734 454.81641 L 306.01953 454.81641 C 305.98174 454.79751 305.95312 454.7728 305.91797 454.75391 L 305.91797 454.76172 C 305.50513 454.51832 305.10311 454.27534 304.71484 454.0293 C 304.64719 453.98697 304.57597 453.93862 304.51172 453.89062 C 304.50416 453.88307 304.49389 453.87865 304.48633 453.87109 C 304.44589 453.84086 304.40517 453.81004 304.36133 453.7832 C 303.55712 453.29496 302.77007 452.80748 302.03125 452.29297 C 302.00857 452.27785 301.98399 452.25882 301.96094 452.24219 C 301.95338 452.23463 301.94493 452.23022 301.93359 452.22266 C 301.72307 452.06694 301.52065 451.90971 301.32227 451.75781 C 301.31471 451.75025 301.30821 451.74584 301.29688 451.73828 C 301.3479 451.7723 301.2854 451.72776 301.25781 451.70508 C 301.21851 451.67862 301.21447 451.67446 301.23828 451.69336 C 301.23072 451.6858 301.23814 451.70092 301.23047 451.69336 C 301.22291 451.6858 301.21264 451.68334 301.20508 451.67578 C 300.29043 451.00034 299.40536 450.29505 298.55273 449.55664 C 298.53006 449.53774 298.50793 449.51071 298.48828 449.49219 C 298.47694 449.48463 298.46837 449.4724 298.45703 449.46484 C 298.31757 449.3371 298.19097 449.21785 298.0625 449.09766 C 298.05985 449.09388 298.06042 449.09362 298.05664 449.08984 C 298.00637 449.04336 297.97763 449.02255 297.97461 449.01953 L 297.94727 448.99414 C 297.0457 448.18154 296.1806 447.33178 295.35156 446.44922 L 295.33984 446.4375 L 295.28906 446.38672 C 295.24976 446.3425 295.1769 446.26037 295.07031 446.13867 L 295.04492 446.10547 C 294.1522 445.13421 293.30553 444.12185 292.50586 443.07617 L 292.48633 443.05664 C 292.46743 443.03396 292.45218 443.00901 292.43555 442.98633 C 292.41665 442.95987 292.37216 442.89616 292.33398 442.83984 L 292.3418 442.83984 C 291.51877 441.74662 290.7484 440.61743 290.0332 439.45508 C 290.0332 439.4513 290.02526 439.45105 290.02148 439.44727 C 290.0177 439.44349 290.01745 439.43933 290.01367 439.43555 C 290.00611 439.42421 290.00365 439.41368 289.99609 439.40234 C 289.99231 439.39478 289.98815 439.39037 289.98438 439.38281 C 290.01461 439.43384 290.00213 439.4131 289.94922 439.32617 C 289.94778 439.31861 289.94675 439.31615 289.94531 439.30859 C 289.20679 438.09189 288.52219 436.8455 287.9082 435.56836 C 285.06936 429.69146 283.56987 423.16081 283.55664 416.63281 L 283.55664 416.625 C 283.5566 416.61366 283.55664 416.60522 283.55664 416.59766 C 283.57554 414.43694 283.7547 412.27942 284.0918 410.14648 C 284.09221 410.1427 284.09142 410.14245 284.0918 410.13867 C 284.09327 410.13111 284.0943 410.12865 284.0957 410.12109 C 284.0957 410.11731 284.10352 410.10547 284.10352 410.10547 C 285.1704 402.96526 288.29282 396.21509 292.68164 390.38672 C 292.8846 390.11497 292.99294 389.78434 292.99219 389.44531 L 292.99219 388.25391 C 292.99408 387.83627 292.83003 387.43423 292.53516 387.13867 L 290.16211 384.78516 C 288.96782 383.59721 288.96782 381.43009 290.16211 380.24219 L 297.16602 373.28125 L 299.44922 375.54883 L 292.43945 382.50781 L 296.04102 386.08398 L 296.04102 385.86719 C 306.35746 384.2223 316.76098 383.33492 327.26758 383.30469 C 337.68501 383.27445 348.20338 384.08206 358.83398 385.82227 L 362.16992 382.50977 L 355.16016 375.55078 L 357.42969 373.27734 z M 327.27344 387.82227 C 316.91553 387.8525 306.65731 388.716 296.48438 390.31641 C 291.59091 396.0778 288.40651 403.09204 287.29102 410.56836 C 286.97316 412.56251 286.8045 414.57841 286.78711 416.59766 C 286.79845 422.67446 288.17875 428.67088 290.82227 434.14258 C 291.39445 435.33022 292.02383 436.48897 292.70898 437.61523 C 292.73166 437.65303 292.7507 437.68681 292.77148 437.72461 C 293.43857 438.81107 294.15734 439.86599 294.92383 440.88477 C 294.97372 440.95506 295.02395 441.02578 295.07422 441.0957 C 295.8164 442.06723 296.60077 443.00382 297.42773 443.9043 C 297.52033 444.01088 297.6133 444.11721 297.70703 444.22266 C 298.50126 445.06772 299.33154 445.87849 300.19531 446.65234 C 300.34536 446.79408 300.49654 446.93314 300.64844 447.07227 C 301.47612 447.78894 302.33379 448.47182 303.2168 449.11914 C 303.42996 449.28506 303.6448 449.44949 303.86133 449.61133 C 304.68636 450.18869 305.5327 450.73572 306.39844 451.25 L 306.44922 451.28516 C 306.8181 451.51949 307.19215 451.7485 307.56836 451.9707 C 308.30136 452.36721 309.04668 452.74106 309.80273 453.0918 C 309.90251 453.14055 310.00141 453.18637 310.10156 453.23438 C 311.16433 453.73293 312.24757 454.1854 313.34961 454.58984 C 313.56542 454.67035 313.78268 454.74945 314 454.82617 C 314.9933 455.17086 316.00043 455.47573 317.01758 455.74219 C 317.36 455.83479 317.70233 455.92428 318.04688 456.00781 C 318.94727 456.21758 319.85494 456.3968 320.76758 456.54492 C 321.24433 456.62543 321.72185 456.69665 322.20117 456.75977 C 322.99056 456.85917 323.78427 456.93575 324.57812 456.98828 C 325.48767 457.06463 326.39794 457.10988 327.31055 457.125 C 328.49615 457.11744 329.68113 457.05441 330.86133 456.94141 C 331.38819 456.88811 331.91508 456.82213 332.43945 456.74805 C 333.29075 456.64524 334.13737 456.516 334.98047 456.35938 C 335.38125 456.27585 335.78163 456.18547 336.17969 456.08984 C 337.13553 455.88008 338.08333 455.63597 339.02148 455.35742 C 339.29777 455.26898 339.57315 455.17847 339.84766 455.08398 C 340.88941 454.74874 341.91656 454.37167 342.92773 453.95312 C 343.09101 453.88094 343.25391 453.80845 343.41602 453.73438 C 344.52432 453.25679 345.61058 452.72886 346.67188 452.1543 C 347.17039 451.88179 347.66374 451.59993 348.15039 451.30664 C 348.17685 451.29152 348.20363 451.2764 348.23047 451.25977 C 352.95522 448.40993 357.04943 444.62434 360.25977 440.13672 C 361.00044 439.0964 361.69092 438.0216 362.33008 436.91602 C 362.37921 436.83589 362.42781 436.75629 362.47656 436.67578 C 363.0588 435.64828 363.59566 434.59589 364.08594 433.52148 C 364.16947 433.35065 364.25272 433.17944 364.33398 433.00781 C 364.76576 432.0172 365.15654 431.00831 365.50781 429.98633 C 365.61137 429.71345 365.71304 429.44079 365.81055 429.16602 C 366.10535 428.23697 366.36484 427.29744 366.5918 426.34961 C 366.69611 425.965 366.79532 425.57892 366.88867 425.19141 C 367.06291 424.34559 367.2103 423.49394 367.33008 422.63867 C 367.41587 422.1352 367.4917 421.63134 367.55859 421.125 C 367.63343 420.37752 367.68782 419.62742 367.7207 418.87695 C 367.77966 418.11991 367.81773 417.36068 367.83398 416.60156 C 367.82643 415.41948 367.7646 414.23926 367.65234 413.0625 C 367.59716 412.52082 367.53023 411.98037 367.45312 411.44141 C 367.35259 410.60828 367.22634 409.77835 367.07422 408.95312 C 366.9854 408.52729 366.88953 408.10243 366.78711 407.67969 C 366.58301 406.7531 366.34658 405.83382 366.07812 404.92383 C 365.9791 404.61391 365.87769 404.30532 365.77148 403.99805 C 365.44607 402.98986 365.08127 401.9952 364.67773 401.01562 C 364.59081 400.81796 364.50049 400.61999 364.41016 400.42383 C 363.94822 399.35649 363.44067 398.31079 362.88867 397.28711 C 362.82782 397.18015 362.76706 397.073 362.70508 396.9668 C 362.0965 395.86665 361.43669 394.7947 360.72852 393.75586 C 360.7134 393.73318 360.69443 393.71018 360.67969 393.6875 C 359.86543 392.50428 358.98989 391.36552 358.05469 390.27539 C 358.21003 390.30185 358.36423 390.32315 358.51953 390.34961 L 358.51953 390.29102 C 347.99823 388.58683 337.58599 387.79203 327.27344 387.82227 z "
       transform="scale(0.26458333)"
       id="path1622" />
    <path
       style="opacity:1;fill:#ffeeaa;fill-opacity:1;stroke:none;stroke-width:0.75000012;stroke-miterlimit:4;stroke-dasharray:none;stroke-dashoffset:0"
       d="m 95.013837,12.772273 c -8.492709,-0.0017 -16.810614,3.3239 -23.345862,8.742102 -0.04336,0.03635 -0.08969,0.06902 -0.138491,0.09767 -5.650727,3.269068 -12.102616,4.265081 -18.089853,5.658054 -0.0013,7.93e-4 -0.0028,0.0013 -0.0041,0.0021 -6.527932,1.488914 -13.257853,2.251369 -15.799554,3.854545 -2.541704,1.603179 -1.205701,2.463655 0.149347,3.45612 1.355045,0.992463 2.749224,2.146445 3.566189,3.900538 0.01926,0.04173 0.03565,0.08473 0.04909,0.128672 0.388313,1.251172 -0.205943,2.445112 -0.957048,3.12901 -0.729297,0.664041 -1.596345,1.059114 -2.270662,1.341519 -1.686906,0.913853 -3.49332,2.047979 -4.860168,3.414263 -1.363197,1.362633 -2.26726,2.907945 -2.372982,4.767667 0.07907,1.750822 0.979197,3.067114 2.370915,4.158401 1.401348,1.098841 3.276458,1.889831 4.972823,2.38642 8.84728,2.389391 18.33599,0.997384 27.302727,-1.077971 l 0.0036,-0.0021 c 9.242491,-2.311522 18.247315,-5.660686 26.838153,-9.769427 0.0038,-0.0021 0.0076,-0.0042 0.01137,-0.0062 1.953739,-0.904094 3.340203,-2.545935 4.785238,-4.388363 1.443466,-1.840429 2.932311,-3.871045 5.211051,-5.222936 4.8833,-3.014559 10.68733,-1.740847 15.49982,-1.191144 0.002,1.94e-4 0.004,-1.93e-4 0.006,0 0.004,5.3e-4 0.008,0.0015 0.0114,0.0021 4.81636,0.471754 9.34407,2.079868 13.50822,0.667657 0.007,-0.0027 0.0141,-0.0052 0.0212,-0.0077 0.8046,-0.252282 1.19939,-0.791921 1.38907,-1.570447 0.18968,-0.778526 0.0676,-1.764581 -0.3049,-2.50579 -0.007,-0.01278 -0.0134,-0.02569 -0.0196,-0.03876 -2.44142,-5.413283 -7.4379,-9.30262 -12.57029,-12.611633 -7.49675,-4.59368 -16.18305,-7.402938 -24.953,-7.314282 -0.0033,1.6e-5 -0.0065,1.6e-5 -0.0098,0 z M 38.172863,43.082567 c 0.01013,-0.0055 0.02038,-0.01158 0.03049,-0.01705 l -0.09405,0.04444 c 0.01979,-0.0083 0.0434,-0.01894 0.06356,-0.02739 z M 24.212992,39.938055 c -2.916499,1.133401 -4.377782,4.589264 -6.398576,7.613489 -2.460726,4.616656 -4.938073,9.562018 -4.306714,14.564487 0.907024,4.419295 4.423351,8.308591 5.287016,13.552662 1.17354,4.70921 -0.312959,9.194694 0.0078,13.256037 0.0077,7.94e-4 0.01888,0.01817 0.02739,0.01912 0.07987,0.0089 0.252451,-0.01413 0.484725,-0.126606 0.464548,-0.224959 1.073085,-0.783778 1.415934,-1.197342 0.0012,-0.0019 0.0024,-0.0038 0.0036,-0.0057 3.799164,-4.518306 3.604586,-11.342082 1.013891,-16.562814 -0.01191,-0.02299 -0.02295,-0.04644 -0.03307,-0.07028 -0.815085,-2.01766 -2.178851,-4.09149 -3.304708,-6.339666 -1.125856,-2.248175 -2.018834,-4.723558 -1.689302,-7.501866 0.559524,-4.777337 3.675358,-8.670729 7.23005,-11.416358 0.707301,-0.551137 1.353824,-1.31849 1.683618,-2.087729 0.329793,-0.769239 0.381207,-1.481984 0.0078,-2.234488 h -0.0015 C 25.437683,40.990635 25.14214,40.532813 24.847713,40.247066 24.589129,39.996106 24.40474,39.944528 24.213126,39.93804 Z m 104.690768,5.436362 c -0.10529,-2.35e-4 -0.2108,0.0021 -0.31575,0.0072 -4.48443,0.331086 -7.73405,4.438123 -10.03711,8.380883 -0.001,0.0024 -0.003,0.0052 -0.004,0.0078 -3.23683,5.903349 -5.42306,12.412366 -6.67763,19.042766 -7.9e-4,0.0033 -0.001,0.0066 -0.002,0.0098 -0.48748,2.447394 0.47609,5.114412 2.05466,7.222813 0.0158,0.02096 0.0308,0.0425 0.045,0.0646 1.02075,1.610902 2.13619,3.46383 2.81844,5.482352 0.68225,2.018519 0.92263,4.250976 0.0878,6.449219 -0.006,0.01442 -0.0114,0.02873 -0.0176,0.04289 -1.21426,2.806719 -4.21676,4.50006 -7.14272,4.459158 -0.16006,-0.0024 -0.31729,-0.04264 -0.45889,-0.117306 -1.04027,-0.545645 -1.39324,-1.555369 -4.46587,-5.497853 -3.07264,-3.942488 -7.287465,-10.393847 -13.467396,-14.244609 -3.972166,-2.295787 -9.174509,-0.91989 -13.160439,1.389063 -5.241433,3.100342 -9.140994,8.129995 -11.989964,13.538708 -0.09083,0.172061 -0.229108,0.314462 -0.398425,0.41031 -2.405396,1.366131 -5.208619,4.240673 -9.021673,3.820438 -0.05079,-0.006 -0.101065,-0.01587 -0.150378,-0.02946 -1.237075,-0.328173 -2.149264,-1.065506 -2.941423,-1.736328 -0.792158,-0.670819 -1.482979,-1.281536 -2.191597,-1.601452 -0.03693,-0.01677 -0.07282,-0.03577 -0.107487,-0.05684 -4.384453,-2.640944 -10.225146,-4.248001 -14.750005,-1.761651 -1.82354,1.06354 -2.876957,2.775132 -3.419427,4.812628 -0.54347,2.04125 -0.532016,4.380248 -0.195339,6.427514 1.226222,7.49418 4.735306,14.50225 8.76174,21.02766 0.0013,0.002 0.0024,0.004 0.0036,0.006 1.308828,2.15641 3.62281,3.70618 6.107639,4.02352 0.0427,0.006 0.08498,0.0142 0.126606,0.0253 3.023179,0.78449 6.756693,1.09313 9.648507,3.48455 0.03531,0.0289 0.06862,0.0602 0.09973,0.0935 1.196279,1.2986 1.361265,2.95073 1.214914,4.39095 -0.146352,1.44021 -0.549037,2.79901 -0.660427,3.84937 -0.0024,0.0242 -0.0057,0.0484 -0.0098,0.0724 -0.394253,2.20406 -0.776526,4.60579 -0.65991,6.82645 0.116377,2.21605 0.70359,4.20539 2.207101,5.80637 3.512349,3.5702 9.345231,3.55961 14.242026,2.55075 8.21631,-1.86321 16.246956,-6.68735 20.143988,-14.20741 0.09735,-0.48961 0.235654,-0.90683 0.523999,-1.27692 0.323536,-0.41525 0.945404,-0.68447 1.441257,-0.64233 0.950659,0.0808 1.462979,0.62041 2.029333,1.13636 4.93774,3.31504 10.3967,6.57169 16.24603,6.33243 0.005,-7.9e-4 0.009,-0.001 0.014,-0.002 3.43257,-0.0953 6.38056,-2.93193 7.09569,-6.2792 0.002,-0.0119 0.005,-0.0238 0.008,-0.0357 1.38429,-5.50462 -0.38796,-11.35315 -3.27112,-16.33956 -0.0498,-0.086 -0.0867,-0.17876 -0.10955,-0.27543 -0.0677,-0.28581 -0.0551,-0.83789 0.32814,-1.19734 0.38324,-0.35946 0.76441,-0.338 0.99632,-0.3204 0.46383,0.0352 0.76664,0.17309 1.12293,0.31264 0.3563,0.13955 0.71954,0.29756 1.02939,0.41599 0.30986,0.11844 0.59685,0.1841 0.58757,0.18345 0.0742,0.005 0.14772,0.0182 0.2191,0.0393 6.35744,1.8836 13.83136,1.95425 19.22415,-2.11511 l 0.002,-0.002 c 5.04348,-3.8257 6.84603,-10.62883 6.97684,-16.87494 2.6e-4,-0.0143 0.001,-0.0286 0.002,-0.0429 0.23996,-3.735444 -0.57943,-7.569415 -0.72502,-11.586367 -0.001,-0.02858 -0.001,-0.0572 0,-0.08578 0.37571,-7.671057 6.18522,-14.999459 4.09691,-19.94917 -2.08831,-4.949709 -8.01753,-4.079955 -10.66705,-7.170105 -0.0312,-0.03568 -0.0599,-0.07349 -0.0858,-0.113171 -0.70805,-1.105558 -0.85133,-2.291151 -0.93741,-3.332096 -0.0861,-1.040947 -0.12928,-1.963867 -0.40463,-2.712498 -0.0131,-0.03587 -0.0241,-0.07244 -0.0331,-0.109553 -1.22634,-5.022562 -4.01567,-10.242986 -8.83615,-12.062312 -0.71071,-0.236434 -1.45302,-0.365257 -2.19005,-0.366903 z M 94.220087,139.84617 c -0.01188,0.0598 -0.02593,0.11617 -0.03669,0.17828 l 0.0956,-0.28887 c -0.01905,0.0373 -0.03966,0.0735 -0.05891,0.11059 z m 3.953764,-90.521606 c -0.01429,0.0046 0.03005,0.04567 0.191204,0.162264 -2.083829,0.555839 -3.489796,2.826832 -4.658114,5.019847 -0.585401,1.316159 -1.141757,2.829102 -1.288809,4.216797 -0.147577,1.392549 0.07126,2.585135 0.976167,3.593581 1.241959,1.277718 2.933895,2.360282 4.553209,3.650422 1.617326,1.288558 3.182592,2.833529 3.937232,5.08186 0.18318,0.493615 0.64248,0.967795 1.10174,1.160653 0.45925,0.19286 0.82182,0.195852 1.25987,-0.177768 0.0133,-0.01156 0.0269,-0.02275 0.0408,-0.03359 2.77418,-2.133386 3.73625,-6.055654 3.79667,-9.581843 5.3e-4,-0.0098 10e-4,-0.01966 0.002,-0.02946 0.11967,-2.565315 -0.62383,-5.248603 -2.77141,-6.452836 -0.008,-0.0046 -0.0155,-0.0092 -0.0232,-0.01395 -2.64356,-1.580536 -5.20889,-3.606154 -6.791321,-6.494177 0.02064,0.05691 -0.294648,-0.111812 -0.326078,-0.101801 z M 69.923897,63.012616 c -1.135597,0.125876 -2.314032,0.850876 -2.769856,1.732196 0.113638,0.277764 0.236013,0.490582 0.736388,0.728636 0.603223,0.286985 1.449803,0.507653 2.247408,1.021127 3.440977,1.467528 6.864127,2.988371 10.367843,3.547071 1.157729,-0.139968 2.13314,-0.736638 2.961058,-1.659848 0.800909,-0.893088 1.391507,-2.078559 1.804543,-3.21324 -0.03987,-0.125386 -0.081,-0.258247 -0.1695,-0.30851 -0.122772,-0.06972 -0.187227,-0.09951 -0.371555,0.03721 -0.09203,0.06828 -0.194937,0.12052 -0.304374,0.154511 -1.625361,0.503978 -3.669223,1.412539 -5.860105,0.556556 -3.078009,-0.755618 -5.860288,-2.074465 -8.64185,-2.595708 z m 8.64185,2.595708 c 0.01733,0.0043 0.03433,0.0092 0.05168,0.01344 l -0.148828,-0.04857 c 0.03249,0.01344 0.06472,0.02246 0.09715,0.03514 z m -8.42791,0.886251 c -0.02445,-0.01042 -0.04892,-0.02058 -0.07338,-0.03101 l 0.173633,0.09405 c -0.03319,-0.02257 -0.06687,-0.04155 -0.100253,-0.06305 z M 33.261535,65.632094 c -0.16256,-0.0058 -0.322368,-0.0055 -0.480073,0.0016 -0.02806,0.0011 -0.05617,0.0011 -0.08423,0 -0.869378,-0.03288 -1.267769,0.338833 -1.609204,1.056783 -0.341437,0.717952 -0.427606,1.782543 -0.24598,2.568318 0.0019,0.0063 0.0039,0.01272 0.0057,0.01912 0.422534,2.020958 0.382969,3.894989 1.30483,4.931997 0.303837,0.307787 0.462751,0.306205 0.867132,0.181385 0.410856,-0.12682 0.950132,-0.50119 1.33015,-0.890384 0.02,-0.0205 0.04086,-0.04016 0.06253,-0.05891 2.000118,-1.731785 3.507836,-3.994549 4.259689,-6.464721 -0.32239,-0.262411 -0.631714,-0.511336 -1.230416,-0.636653 -0.781158,-0.16351 -1.741935,-0.222869 -2.708878,-0.534334 -0.508061,-0.09038 -0.999861,-0.157324 -1.471229,-0.174152 z m 1.471229,0.174152 c 0.0176,0.0031 0.03457,0.0056 0.05219,0.0088 l -0.144177,-0.03669 c 0.03069,0.0104 0.0613,0.01802 0.09199,0.02791 z m 18.054195,0.788064 c -1.031057,0.152326 -1.759204,0.711716 -2.335776,1.578197 -0.586599,0.881552 -0.954616,2.067388 -1.084172,3.169833 -0.01333,0.115527 -0.04635,0.227917 -0.09767,0.332279 -0.208174,0.420736 -0.221083,0.954363 -0.06821,1.337903 0.152871,0.383543 0.376463,0.612807 0.857314,0.679545 0.02689,0.0041 0.05362,0.0093 0.0801,0.01551 3.187385,0.710605 6.125525,2.114518 8.771557,1.453139 0.0072,-0.0019 0.01446,-0.0039 0.02171,-0.0057 0.397174,-0.08981 0.661641,-0.328806 0.777213,-0.568441 0.115565,-0.239636 0.134761,-0.454967 -0.07803,-0.773597 -0.01984,-0.02951 -0.03813,-0.06004 -0.05478,-0.09147 C 58.109802,70.934321 56.561031,68.01386 54.006006,66.81135 53.603752,66.664456 53.187012,66.58927 52.786959,66.59431 Z M 42.693518,81.082832 c 3.760078,2.979799 8.552415,4.771504 13.3165,4.665864 0.02207,-2.9e-5 0.04413,4.79e-4 0.06615,0.0021 0.257101,0.01064 0.405291,-0.127238 0.486275,-0.308507 0.07398,-0.165597 0.06115,-0.266126 -0.08578,-0.412379 -2.958547,-1.869707 -6.630916,-2.63144 -10.257771,-3.642154 -1.150446,-0.260051 -2.333692,-0.280231 -3.525367,-0.30489 z m 43.880524,12.555821 h 0.0021 c 0.3874,-0.0051 0.753075,0.144512 1.027326,0.418063 h 0.0021 l 2.374532,2.370915 0.273886,-0.273368 h 0.0016 c 0.563218,-0.561602 1.456303,-0.56407 2.019514,0 0.16806,0.16827 0.614312,0.453697 0.968933,0.834057 0.177311,0.19018 0.369702,0.432816 0.390673,0.800984 0.02098,0.36817 -0.211735,0.731229 -0.510045,0.947229 -0.204819,0.148363 -0.482216,0.146685 -0.685231,-0.0041 0,0 -0.612548,-0.44591 -1.115177,-0.80822 l -0.93586,0.935345 c -0.226314,0.226832 -0.593791,0.226832 -0.820105,0 l -2.972427,-2.97243 -2.970879,2.97243 c -0.226372,0.227176 -0.594249,0.227176 -0.820621,0 l -0.874882,-0.874882 -0.994257,0.994254 c -0.344831,0.345215 -0.93586,0.135503 -0.985985,-0.349851 L 79.607138,98.28905 c -0.227261,-0.225885 -0.22792,-0.593363 -0.0015,-0.820105 l 1.312066,-1.314649 c 0.5632,-0.564091 1.456285,-0.561602 2.019514,0 h 0.0021 l 0.27337,0.273368 2.371431,-2.370915 h 0.0016 c 0.264149,-0.26343 0.613328,-0.413412 0.988568,-0.418063 z m 7.985042,4.640027 0.001,5.18e-4 c 0.156385,-0.0026 0.307168,0.05817 0.418063,0.168466 l 1.853634,1.841746 c 0.565348,0.56232 0.565369,1.45876 0,2.02106 l -0.543121,0.54106 v 0.1819 c 0.08931,0.11452 0.181231,0.22669 0.271817,0.35346 0.0026,0.003 0.0052,0.007 0.0078,0.01 7.94e-4,0.001 0.0013,0.002 0.0021,0.004 0.0013,10e-4 0.0024,0.003 0.0036,0.004 0.0013,0.002 0.0028,0.004 0.0041,0.006 2.01e-4,2.1e-4 0.0015,0.002 0.0015,0.002 0.0013,7.9e-4 0.0028,10e-4 0.0041,0.002 0.0013,0.002 0.0028,0.004 0.0041,0.006 5.3e-4,7.9e-4 10e-4,0.001 0.0016,0.002 0.0013,0.003 0.0028,0.005 0.0041,0.008 0.0077,0.008 0.0056,0.007 0.0078,0.01 0.0053,0.008 0.01053,0.0154 0.01551,0.0233 0.0013,0.003 0.0028,0.005 0.0041,0.008 h 0.0021 c 0.0081,0.0121 -0.003,-0.005 0.0015,0.002 v 0.002 l 0.0021,0.003 c 2.64e-4,5.3e-4 -2.62e-4,0.002 0,0.002 l 0.0026,0.002 c 0.0055,0.0103 0.01066,0.0208 0.0155,0.0315 l -0.0057,-0.0155 c 0.2007,0.29603 0.388049,0.60033 0.56224,0.91363 l 0.0021,0.004 0.0021,0.002 c 0.0026,0.004 0.0052,0.008 0.0078,0.0114 l 0.0057,0.01 c 0.0026,0.004 0.0052,0.008 0.0077,0.0119 0.01032,0.0182 0.0217,0.0394 0.03359,0.0605 0.004,0.008 0.0078,0.0168 0.01137,0.0253 -0.0024,-0.005 0.0048,0.008 0.0021,0.002 v 0.002 c 0.0055,0.0102 0.01063,0.0205 0.0155,0.031 7.94e-4,0.001 0.0013,0.003 0.0021,0.004 0.151241,0.28264 0.293798,0.57317 0.423749,0.87126 2.64e-4,8e-4 0.0015,7.6e-4 0.0021,0.002 0.0021,0.005 0.0035,0.009 0.0057,0.0139 0.02143,0.0469 0.04151,0.0924 0.06098,0.13643 0.03414,0.0683 0.03588,0.0723 0.0083,0.0186 l 0.0031,0.007 c 0.0034,0.008 0.0063,0.0165 0.0093,0.0248 8e-6,2e-5 -0.0034,-0.006 -0.0036,-0.006 0.01519,0.0389 0.03147,0.0855 0.02894,0.0765 -0.0018,-0.006 -0.02468,-0.0693 -0.0248,-0.0698 0.0021,0.004 0.0042,0.008 0.0062,0.0114 0.115023,0.27946 0.222676,0.56421 0.318326,0.85783 0.0021,0.007 0.0039,0.0141 0.0057,0.0212 1.4e-4,2.7e-4 -1.3e-4,0.002 0,0.002 7.94e-4,0.001 0.0013,0.002 0.0021,0.004 0.02727,0.0781 0.05279,0.15508 0.07803,0.23254 v 0.002 c -0.0013,-0.002 0.0059,0.0173 0.0036,0.0119 -0.0021,-0.005 0.0072,0.0163 0.0041,0.008 -5.29e-4,-0.001 5.3e-4,0.003 0,0.002 l 0.0021,0.006 c 0.0028,0.008 0.0054,0.0168 0.0078,0.0253 0.07428,0.2524 0.13652,0.50478 0.19327,0.75758 0.0021,0.007 0.0039,0.0131 0.0057,0.0196 0.0029,0.008 0.0057,0.0158 0.0083,0.0238 l 0.0036,0.0155 c 1e-5,0.002 1e-5,0.004 0,0.006 0.02559,0.10669 0.0507,0.21619 0.07441,0.32815 0.0016,0.008 0.004,0.0157 0.0057,0.0238 0.0021,0.007 0.0039,0.0141 0.0057,0.0212 7.94e-4,0.004 0.0018,0.008 0.0026,0.0119 0.04322,0.23292 0.0752,0.46436 0.10387,0.6935 7.7e-5,5.3e-4 -7.9e-5,7.6e-4 0,0.002 3.7e-5,2.3e-4 -2.1e-5,0.002 0,0.003 5.26e-4,0.003 0.001,0.005 0.0015,0.008 7.93e-4,0.006 0.0013,0.0118 0.0021,0.0176 0.0013,0.005 0.0028,0.009 0.0041,0.014 0.0048,0.029 0.0074,0.0584 0.0078,0.0878 v -0.0372 c 0.01632,0.11882 0.03138,0.24232 0.04496,0.36897 0.0019,0.0168 0.004,0.0322 0.0057,0.0491 7.91e-4,0.001 0.0013,0.002 0.0021,0.004 0.0052,0.0363 0.0033,0.0371 0,0.004 7.94e-4,0.008 0.0015,0.0169 0.0021,0.0253 0.03195,0.34549 0.05009,0.69063 0.05271,1.03714 2e-6,0.001 2e-6,0.002 0,0.004 v 0.004 c 4e-5,0.006 4e-5,0.0113 0,0.0176 v 0.004 c -5.29e-4,0.003 -0.0013,0.007 -0.0021,0.01 -0.004,0.21787 -0.01614,0.43135 -0.03152,0.64027 -4e-5,-0.003 -2.9e-5,0.008 0,0.006 -2.41e-4,0.0104 -7.57e-4,0.0207 -0.0015,0.031 v 0.004 c -0.0104,0.20884 -0.02559,0.4194 -0.04703,0.63045 -0.0013,0.008 -0.0027,0.0159 -0.0041,0.0238 5.29e-4,-0.005 -5.29e-4,0.006 0,0.002 0.0036,-0.0283 0.005,-0.0293 0,0.0155 -5.29e-4,0.004 -0.001,0.008 -0.0016,0.0114 -0.01812,0.13619 -0.04002,0.2703 -0.06253,0.40463 l 0.0016,-0.004 c -0.03359,0.24075 -0.07717,0.48073 -0.125058,0.71882 -0.0028,0.0136 -0.005,0.0272 -0.0078,0.0408 v 0.004 c -0.0024,0.0104 -0.0049,0.0207 -0.0078,0.031 -0.0011,0.007 -0.0024,0.0145 -0.0036,0.0217 -0.02222,0.0918 -0.04494,0.18019 -0.06873,0.26975 -5.29e-4,0.003 -0.001,0.005 -0.0015,0.008 -0.0031,0.0117 -0.0066,0.0234 -0.0098,0.0351 -0.0013,0.007 -0.0027,0.0131 -0.0041,0.0196 l -0.0021,0.002 c -5.26e-4,0.003 -0.001,0.005 -0.0015,0.008 l -0.0062,0.0217 c -0.06458,0.26391 -0.136581,0.52633 -0.218591,0.78496 -0.0013,0.003 -0.0027,0.005 -0.0041,0.008 -5.29e-4,10e-4 -0.001,0.003 -0.0015,0.004 0.0021,-0.006 -0.0036,0.007 -0.0026,0.004 0.0034,-0.01 0.004,-0.0107 -0.0041,0.014 -5.29e-4,0.001 -0.001,0.002 -0.0015,0.004 -0.0013,0.004 -0.0027,0.009 -0.0041,0.014 -0.0037,0.0106 -0.0076,0.0211 -0.01189,0.0315 -0.01831,0.0506 -0.03775,0.10076 -0.05633,0.15038 -0.0029,0.008 -0.0049,0.0156 -0.0078,0.0233 v -0.004 c -0.09965,0.28963 -0.210812,0.57581 -0.332279,0.85783 -0.02394,0.0718 -0.01698,0.0437 -0.02325,0.0527 -0.0053,0.013 -0.0085,0.021 -0.01189,0.0289 -7.93e-4,0.002 -0.0015,0.006 -0.0021,0.008 0.0011,-0.002 -0.0049,0.009 -0.0036,0.006 l -0.0021,0.006 c -0.02151,0.0449 -0.04033,0.0819 -0.05271,0.10749 -0.0038,0.007 -0.0078,0.014 -0.01188,0.0212 -7.94e-4,0.003 -0.0013,0.005 -0.0021,0.008 h -0.0015 c -0.0011,0.002 -0.001,0.002 -0.0021,0.004 v 0.002 c -0.02585,0.0443 -0.05749,0.0849 -0.09405,0.12092 l 0.06667,-0.0661 c -0.127069,0.27301 -0.264621,0.54259 -0.41238,0.80667 -0.0011,0.003 -0.0024,0.005 -0.0036,0.008 -0.0069,0.0122 -0.01276,0.025 -0.01964,0.0372 -0.0024,0.005 -0.0051,0.0104 -0.0078,0.0155 -0.005,0.008 -0.0044,0.004 -0.0078,0.01 -0.0073,0.0118 -0.01549,0.0258 -0.01395,0.0233 -0.0034,0.006 -0.0082,0.0125 -0.01137,0.0176 -0.01291,0.0233 0.0013,-1.5e-4 0,0.002 -2.03e-4,2.6e-4 -0.0013,0.003 -0.0021,0.004 -1.58e-4,2.4e-4 -0.0018,-2.5e-4 -0.0021,0 v 0.002 l -0.0057,0.01 c -0.18025,0.3114 -0.377042,0.6147 -0.583944,0.90847 -7.93e-4,0.001 -0.0013,0.002 -0.0021,0.004 -0.004,0.006 -0.0078,0.0118 -0.01189,0.0176 -0.0056,0.009 -0.01148,0.017 -0.01757,0.0253 v 0.002 l -0.0021,0.002 c -0.94451,1.32088 -2.160048,2.44378 -3.544485,3.29128 2.9e-5,4e-5 0.0016,0.004 0.0016,0.004 l -0.01551,0.0119 c -6.8e-5,5e-5 -0.02654,0.0179 -0.02945,0.0196 -0.0086,0.005 -0.01125,0.007 -0.01551,0.009 h -0.0021 c -0.0259,0.0179 -0.0532,0.0336 -0.08165,0.047 -0.12414,0.0736 -0.248748,0.14593 -0.371038,0.21291 -0.0058,0.003 -0.01167,0.007 -0.01757,0.01 0.0331,-0.0166 0.0065,-0.003 -0.01964,0.01 l -0.0062,0.004 c -0.296219,0.16003 -0.598326,0.30652 -0.907954,0.44184 -0.003,7.9e-4 -0.02397,0.0131 -0.01757,0.01 -0.0027,10e-4 -0.0051,0.002 -0.0078,0.004 -0.0058,0.003 -0.01167,0.005 -0.01757,0.008 -0.0033,0.002 -0.0065,0.003 -0.0098,0.004 -0.03096,0.0138 -0.06003,0.0259 -0.08992,0.0388 -0.0075,0.004 -0.01074,0.006 -0.0078,0.004 -0.0064,0.003 -0.01321,0.005 -0.01964,0.008 -0.0077,0.004 -0.01542,0.008 -0.02326,0.0119 -0.01606,0.007 -0.03301,0.011 -0.04909,0.0176 -0.266689,0.10905 -0.537215,0.20561 -0.808217,0.29455 -0.02029,0.0104 -0.04117,0.0195 -0.06253,0.0274 -0.08476,0.0288 -0.162105,0.0503 -0.224793,0.0703 -0.0013,7.9e-4 -0.0028,0.001 -0.0041,0.002 -0.0089,0.003 -0.01783,0.007 -0.02687,0.01 -0.277529,0.0823 -0.55867,0.1551 -0.840258,0.21704 -5.29e-4,1.4e-4 -0.0015,-1.3e-4 -0.0021,0 -0.0034,7.9e-4 -0.0064,0.003 -0.0098,0.004 h -0.0021 c -2.64e-4,8e-5 -0.0018,-7e-5 -0.0021,0 -1.29e-4,3e-5 1.41e-4,0.002 0,0.002 -0.106418,0.0252 -0.216971,0.0488 -0.33021,0.0724 -0.0096,0.002 -0.01923,0.004 -0.02894,0.006 -0.0084,0.001 -0.01498,0.003 -0.0078,0.002 -0.0013,2.3e-4 -0.0029,-2.3e-4 -0.0041,0 -0.0058,8e-4 -0.0117,0.002 -0.01757,0.002 -0.233051,0.0425 -0.468226,0.0785 -0.704866,0.10749 -0.0052,5.3e-4 -0.01078,7.5e-4 -0.01602,0.002 -0.0019,7.9e-4 -0.0038,0.001 -0.0057,0.002 -0.140459,0.0194 -0.283263,0.036 -0.425815,0.0506 0.02535,-0.004 0.01376,-0.002 -0.02739,0.004 -0.0077,7.9e-4 -0.01548,0.002 -0.02325,0.003 -0.345811,0.0326 -0.693899,0.0527 -1.044898,0.0548 -0.0096,9e-5 -0.01987,9e-5 -0.02946,0 -0.0013,1e-5 -0.0028,1e-5 -0.0041,0 -0.251201,-0.004 -0.501168,-0.0182 -0.74776,-0.0372 -0.0118,-1.9e-4 -0.01548,-0.002 -0.02325,-0.003 -0.0013,1e-5 -0.0028,1e-5 -0.0041,0 -0.0085,-5.3e-4 -0.01691,-0.001 -0.02532,-0.002 -0.0052,7e-5 -0.01035,7e-5 -0.0155,0 -0.2076,-0.0142 -0.415608,-0.0374 -0.623218,-0.0625 h -0.0021 c -0.02212,-0.003 -0.04404,-0.003 -0.06615,-0.006 -0.0079,-5.3e-4 -0.01588,-0.001 -0.02377,-0.002 -0.121959,-0.0163 -0.240813,-0.0368 -0.359153,-0.0563 -0.0066,-5.3e-4 -0.0131,-0.001 -0.01964,-0.002 -0.01243,-0.001 -0.02484,-0.002 -0.03721,-0.004 -0.254799,-0.0412 -0.508992,-0.0932 -0.759643,-0.15037 5.29e-4,10e-5 -0.0094,-0.002 -0.0098,-0.002 -0.0085,-0.002 -0.01694,-0.004 -0.02532,-0.006 h -0.0021 c -0.0013,-8e-4 -0.0024,-10e-4 -0.0036,-0.002 -7.94e-4,-2.2e-4 -0.0032,2.6e-4 -0.0041,0 v -0.002 c -0.0013,0 -0.0024,0 -0.0036,0 h -0.0021 c -0.0013,0 -0.0028,0 -0.0041,0 -0.0013,-8e-4 -0.0024,-0.001 -0.0036,-0.002 -0.0021,-7.9e-4 -0.0041,-10e-4 -0.0062,-0.002 -0.0013,1e-5 -0.0024,1e-5 -0.0036,0 -0.09207,-0.0227 -0.184595,-0.0471 -0.277503,-0.0723 -0.0092,-0.002 -0.01831,-0.004 -0.02739,-0.006 -0.29755,-0.0782 -0.588084,-0.16953 -0.872815,-0.26768 0.07129,0.0238 0.06589,0.0258 -0.02377,-0.006 h -0.0016 c -0.06747,-0.0239 -0.131561,-0.0487 -0.189653,-0.0703 -0.306139,-0.11252 -0.606078,-0.2404 -0.902269,-0.37723 -0.0045,-0.002 -0.0095,-0.004 -0.01395,-0.006 -0.0033,-0.001 -0.0055,-2.1e-4 -0.0098,-0.002 -0.0037,-0.002 -0.0038,-0.003 -0.0077,-0.004 -0.0032,-0.001 -0.0026,-0.002 -0.0057,-0.004 h -0.0021 c -0.0069,-0.003 -0.01428,-0.005 -0.02119,-0.008 -3e-5,-2e-5 -0.0021,3e-5 -0.0021,0 -1e-5,-1e-5 -0.0039,-0.004 -0.0041,-0.004 -2.65e-4,-2e-4 -0.005,-0.003 -0.0057,-0.004 -0.0013,-7.9e-4 -0.0028,-0.001 -0.0041,-0.002 -0.0045,-0.002 -0.009,-0.004 -0.01344,-0.006 -0.0079,-0.004 -0.02766,-0.0126 -0.0646,-0.0315 -0.0093,-0.005 -0.01839,-0.0101 -0.02739,-0.0155 -0.0098,-0.006 -0.01947,-0.0114 -0.02894,-0.0176 0.03012,0.0201 0.03046,0.0208 0.0098,0.008 -0.19653,-0.0921 -0.39183,-0.18769 -0.58446,-0.29093 -0.0045,-0.002 -0.009,-0.004 -0.01344,-0.006 -0.02183,-0.0109 0.0066,0.002 -0.0078,-0.006 -0.0064,-0.003 7.85e-4,6e-5 -0.0041,-0.003 -5.29e-4,-2.7e-4 -10e-4,2.6e-4 -0.0016,0 -0.01664,-0.009 -0.02041,-0.0124 -0.01395,-0.01 -0.0045,-0.003 -0.009,-0.005 -0.01344,-0.008 -0.0073,-0.003 -0.01453,-0.006 -0.0217,-0.01 -0.110511,-0.0652 -0.220594,-0.13164 -0.330213,-0.20102 -0.01537,-0.01 -0.03382,-0.0216 -0.05064,-0.0331 -0.0013,-7.9e-4 -0.0057,-0.004 -0.0057,-0.004 1e-5,1e-5 -0.0021,-0.002 -0.0021,-0.002 -2.1e-5,-10e-6 -0.0039,-0.002 -0.0041,-0.002 -0.0096,-0.007 -0.01696,-0.0119 -0.02739,-0.0196 -0.003,-0.002 -0.0047,-0.006 -0.0078,-0.008 -0.0011,-5.3e-4 -0.0027,5.3e-4 -0.0036,0 -0.0047,-0.003 -0.0092,-0.007 -0.01395,-0.01 -0.203118,-0.12352 -0.408334,-0.24921 -0.609264,-0.38861 -0.04867,-0.0324 -0.03527,-0.0258 -0.02532,-0.0196 -0.0033,-0.002 -0.0066,-0.004 -0.0098,-0.006 -0.0046,-0.004 -0.009,-0.008 -0.01344,-0.0119 -0.01005,-0.007 -0.01987,-0.0142 -0.02946,-0.0217 -0.04015,-0.0301 -0.07791,-0.0587 -0.113172,-0.0858 -0.0016,-0.001 -4.79e-4,-0.001 -0.0021,-0.002 -0.0026,-0.002 -0.0052,-0.004 -0.0078,-0.006 -0.0026,-0.002 -0.0052,-0.004 -0.0078,-0.006 h -0.0026 l -0.0041,-0.004 c -0.0026,-0.002 -0.0052,-0.004 -0.0078,-0.006 -0.0026,-0.001 -0.0052,-0.003 -0.0078,-0.004 -0.0011,-8e-4 -7.44e-4,-0.001 -0.0021,-0.002 -5.3e-4,-2.7e-4 -0.001,-0.001 -0.0016,-0.002 h -0.0021 c -5.29e-4,-5.3e-4 -0.0033,-10e-4 -0.0041,-0.002 l -0.0021,-0.002 c -0.0016,-0.001 -0.0021,-0.003 -0.0036,-0.004 -0.0011,-8e-4 -0.003,-0.001 -0.0041,-0.002 -0.0026,-0.002 -0.0052,-0.004 -0.0078,-0.006 -0.0026,-0.002 -0.0052,-0.004 -0.0078,-0.006 -0.0078,-0.006 -0.01344,-0.0139 -0.02119,-0.0196 -0.234051,-0.17452 -0.463627,-0.35445 -0.683678,-0.54467 -0.05422,-0.0452 -0.03999,-0.0357 -0.03152,-0.0295 -0.0038,-0.004 -0.0076,-0.008 -0.01137,-0.0119 h -0.0021 c -0.04557,-0.0417 -0.0804,-0.0759 -0.107487,-0.10129 -5.29e-4,-5.3e-4 -0.0015,5.3e-4 -0.0021,0 -0.0033,-0.003 -0.0066,-0.007 -0.0098,-0.01 -0.0019,-0.002 -0.0018,-0.003 -0.0036,-0.004 l -0.0021,-0.002 c -0.0029,-0.003 -0.0056,-0.004 -0.0078,-0.006 -0.0045,-0.004 -0.0095,-0.007 -0.01395,-0.0114 l -0.0078,-0.008 c -0.238858,-0.21635 -0.467199,-0.44225 -0.687295,-0.67593 l -0.0021,-0.002 -0.01344,-0.0119 c -0.0082,-0.008 -0.01612,-0.0166 -0.02377,-0.0253 -0.01,-0.0112 -0.02956,-0.0356 -0.05633,-0.0661 -0.0013,-0.001 -0.0029,-0.003 -0.0041,-0.004 -0.0095,-0.0107 -0.01868,-0.0217 -0.02739,-0.0331 l -0.0021,-0.002 c -0.218731,-0.24014 -0.425508,-0.49147 -0.622699,-0.7462 -2.59e-4,-2.7e-4 -0.0018,2.6e-4 -0.0021,0 -0.01381,-0.0136 -0.02691,-0.028 -0.03928,-0.0429 -0.01635,-0.0196 -0.0016,-0.005 -0.0098,-0.0155 -0.01876,-0.0249 -0.04361,-0.058 -0.02532,-0.0331 -0.0013,-0.002 -0.0024,-0.004 -0.0036,-0.006 -0.04676,-0.0655 -0.03686,-0.0555 -0.03359,-0.0507 -0.0095,-0.0132 -0.01849,-0.0268 -0.02687,-0.0408 -0.19626,-0.26402 -0.382363,-0.53648 -0.557072,-0.81649 -0.0074,-0.01 -0.01444,-0.0194 -0.02119,-0.0294 -0.0048,-0.006 -0.0094,-0.0116 -0.01395,-0.0176 -0.0024,-0.003 -0.0013,-0.004 -0.0036,-0.008 -7.94e-4,-10e-4 -0.0018,-0.002 -0.0026,-0.004 -0.0024,-0.004 -0.0034,-0.004 -0.0057,-0.008 -0.0056,-0.01 -0.01096,-0.0191 -0.01602,-0.0289 -5.29e-4,-7.9e-4 -0.001,-0.002 -0.0016,-0.003 -2.64e-4,-5.3e-4 2.62e-4,-0.002 0,-0.002 l -0.0021,-0.002 c -2.49e-4,-2.6e-4 2.2e-4,-10e-4 0,-0.002 -2.65e-4,-5.3e-4 -0.0018,-0.002 -0.0021,-0.002 -0.0013,-0.001 -0.0024,-0.003 -0.0036,-0.004 -5.29e-4,-7.9e-4 -0.0015,-0.003 -0.0021,-0.004 8e-6,1e-5 1.8e-5,-0.002 0,-0.002 l -0.0021,-0.002 c -1.88e-4,-2.6e-4 -0.0021,-0.004 -0.0021,-0.004 -6.1e-5,-1.5e-4 6.1e-5,-0.002 0,-0.002 l -0.0021,-0.002 c -2.65e-4,-5.3e-4 2.64e-4,-0.002 0,-0.002 -5.29e-4,-0.001 -0.001,-0.002 -0.0016,-0.004 -7.93e-4,-10e-4 -0.0013,-0.003 -0.0021,-0.004 -0.0013,-0.002 -0.0028,-0.004 -0.0041,-0.006 -0.0026,-0.004 -0.0031,-0.01 -0.0057,-0.014 -0.0045,-0.007 -0.0074,-0.0158 -0.01188,-0.0233 -0.186761,-0.3123 -0.366543,-0.63165 -0.525034,-0.96118 -0.789529,-1.63447 -1.205547,-3.44474 -1.209227,-5.25963 v -0.002 c -2.2e-5,-0.005 0,-0.01 0,-0.01 -1.1e-5,-0.002 -1.1e-5,-0.004 0,-0.006 0.005,-0.57222 0.05713,-1.14061 0.142626,-1.70687 0,-1e-5 -6.1e-5,-0.005 0,-0.006 2.3e-4,-0.001 0.0023,-0.0169 0.0031,-0.0217 0.0027,-0.0175 7.86e-4,-0.0352 0.0036,-0.0527 10e-5,-5.3e-4 -9.8e-5,-10e-4 0,-0.002 0.0013,-0.008 0.0027,-0.0155 0.0041,-0.0232 l -0.0078,0.078 c 0.0028,-0.0172 0.007,-0.0415 0.0124,-0.078 l -0.0057,0.0155 c 0.0013,-0.009 0.0064,-0.0165 0.0078,-0.0253 0.0011,-0.008 0.001,-0.0116 0.0021,-0.0176 1.01e-4,-5.3e-4 -9e-5,-0.002 0,-0.003 0.0016,-0.0115 0.0057,-0.0351 0.0057,-0.0351 5e-5,-1.8e-4 0.02524,-0.0644 0.02532,-0.0646 1.8e-5,-6e-5 0.0034,-0.006 0.0041,-0.008 0.316368,-1.91768 1.140719,-3.71408 2.298568,-5.26738 v -0.20929 l -0.577744,-0.57206 v -0.002 c -0.56533,-0.56232 -0.565341,-1.45925 0,-2.02158 l 1.853118,-1.841744 c 0.22547,-0.224857 0.590166,-0.225513 0.816485,-0.0016 l 0.60565,0.599448 c 0.229611,0.226774 0.229611,0.597464 0,0.824238 l -1.441257,1.429368 0.288872,0.28526 c 2.675663,-0.41466 5.374283,-0.64846 8.101314,-0.6563 2.6879,-0.008 5.403631,0.20476 8.144722,0.63666 l 0.26975,-0.26717 -1.439703,-1.429884 c -0.22637,-0.225566 -0.227246,-0.591849 -0.0021,-0.818555 l 0.599962,-0.601514 c 0.106206,-0.106437 0.249637,-0.167405 0.399975,-0.170016 z m 2.016932,5.16506 -0.33383,0.30437 0.36897,-0.26923 c -0.0085,-0.0116 -0.02334,-0.0214 -0.03514,-0.0351 z m -9.455237,0.37259 c -0.336113,-0.003 -0.672835,-0.002 -1.009758,0.002 -2.366389,0.094 -4.866513,0.12327 -7.125663,0.68575 -3.248528,3.97626 -2.360449,10.39477 1.747181,13.41572 4.077883,3.31459 10.744695,2.35795 13.686504,-2.02158 2.465126,-3.34669 2.356271,-8.30145 -0.284221,-11.51661 -2.32755,-0.35213 -4.661246,-0.5455 -7.014043,-0.56534 z m 11.540897,5.27151 c 0.0051,0.0122 0.0097,0.0247 0.01395,0.0372 l -0.0041,-0.0134 c 0.0087,0.025 -0.01016,-0.0224 -0.0098,-0.0238 z m -18.50378,11.50782 0.0155,0.014 c -0.0031,-0.003 -0.0062,-0.007 -0.0093,-0.01 -0.0011,-7.9e-4 -0.0056,-0.004 -0.0062,-0.004 z m 1.127064,0.61134 0.0155,0.014 c -0.0038,-0.004 -0.0076,-0.008 -0.01137,-0.0119 -5.29e-4,-2.6e-4 -0.0037,-0.002 -0.0041,-0.002 z m 9.345684,0.46715 c -0.0028,0.004 -0.0191,0.023 -0.03307,0.0388 0.0096,-0.01 0.017,-0.0162 0.02119,-0.0212 0.01228,-0.0148 0.01604,-0.023 0.01189,-0.0176 z m -0.07441,0.0801 c -0.0038,0.003 -0.0075,0.007 -0.01137,0.01 0.0021,-0.001 0.0114,-0.008 0.01137,-0.008 -1.1e-5,0 -2.1e-5,-0.002 0,-0.002 z m -0.482143,0.20464 c -0.01302,0.003 -0.02611,0.005 -0.03927,0.006 l 0.03359,-0.004 c 0.0083,-0.002 -0.0016,-4.8e-4 0.0057,-0.002 z m -0.07235,0.01 c -0.01307,0.001 -0.02617,0.002 -0.03928,0.002 -5.27e-4,1e-4 -0.0077,0.002 -0.0078,0.002 z m -4.883423,0.40566 0.0047,0.001 c 0.0013,0 0.0024,0 0.0036,0 -0.0032,-7e-5 -0.0051,-7.7e-4 -0.0083,-0.001 z"
       id="path2057"
       inkscape:connector-curvature="0" />
    <path
       style="opacity:1;fill:#ffeeaa;fill-opacity:1;stroke:none;stroke-width:0.75000012;stroke-miterlimit:4;stroke-dasharray:none;stroke-dashoffset:0"
       d="m 67.916016,76.125 c -0.360883,1.255668 -0.893429,0.26549 -0.04492,1.705078 0.326123,0.06891 0.698042,0.08421 1.078125,-0.125 0.332104,-0.182802 0.477971,-0.465941 0.626953,-0.724609 C 69.429427,76.771928 69.311255,76.556547 68.984375,76.396484 68.67254,76.243789 68.287381,76.194652 67.916016,76.125 Z"
       id="path1649" />
    <path
       style="opacity:1;fill:#00af00;fill-opacity:1;stroke:none;stroke-width:2.83464622;stroke-miterlimit:4;stroke-dasharray:none;stroke-dashoffset:0"
       d="M 356.09766 57.771484 C 323.80582 58.016201 294.39393 74.553414 269.11133 93.265625 C 237.18186 109.4134 133.2463 106.06835 157.08789 136.73242 C 170.15047 153.53298 173.0093 162.77188 139.37305 175.30273 C 114.7773 192.11447 121.51658 210.3114 163.50195 211.31836 C 205.48732 212.32532 283.74197 194.02422 339.27734 171.46484 C 363.45415 156.72945 377.27188 123.0533 409.45898 123.625 C 434.99035 122.16569 459.90575 129.47927 485.25195 130.59961 C 486.1841 130.64081 487.38214 131.24153 488.05078 130.58984 C 488.5432 130.11057 488.36323 129.16939 488.11328 128.5293 C 479.71094 107.00996 457.02082 92.764605 439.62109 79.015625 C 415.10164 65.554259 387.30169 57.600947 359.23242 57.798828 C 358.1848 57.772338 357.13933 57.763584 356.09766 57.771484 z M 487.17383 181.02148 C 453.58532 191.40268 440.66253 227.33518 435.29297 257.73438 C 429.73517 289.19921 451.88369 319.47782 458.54102 350.72852 C 465.85139 385.04474 442.09974 438.92817 476.84766 454.38281 C 499.77741 464.58115 539.44346 447.08688 547.31055 419.01758 C 557.84144 388.17074 545.78504 355.48734 551.5625 324.05469 C 568.87478 300.65027 567.97916 259.80696 533.77734 254.77344 C 512.62919 237.35677 524.17877 201.95837 499.73438 186.22656 C 496.05739 183.50774 491.73322 181.58896 487.17383 181.02148 z M 368.63086 200.00977 C 363.76895 199.92227 361.23041 209.52088 360.75195 214.86914 C 360.06297 222.57075 364.50428 230.269 369.0293 236.53906 C 373.89563 243.28206 380.53821 249.45722 388.3418 252.33008 C 390.36675 253.07555 393.13672 253.81595 394.81445 252.45898 C 399.95956 248.29752 400.01562 239.42531 398.57422 232.9668 C 396.4324 223.36989 388.17644 216.05565 381.20117 209.125 C 378.25582 206.19848 374.14655 204.66336 371.08789 201.85547 C 370.53982 201.35233 369.89293 200.85793 369.63477 200.16016 C 369.28992 200.06406 368.95499 200.0156 368.63086 200.00977 z M 131.02344 257.86914 C 116.4538 265.32746 137.65472 269.51412 131.02344 257.86914 z M 199.57812 261.28711 C 185.03471 276.17456 226.75724 273.72527 203.10742 262.98242 C 202.07697 262.13683 200.74874 261.86303 199.57812 261.28711 z M 327.61133 298.26172 C 325.6379 298.22022 323.66924 298.37914 321.70703 298.75586 C 319.2393 299.22964 316.57165 298.88076 313.83203 299.10547 C 255.38678 303.89919 213.02428 416.50108 232.23633 500.70508 C 234.95019 524.21045 213.52023 562.94303 246.91992 572.57617 C 287.46089 579.00881 332.24865 556.12532 349.22656 518.39648 C 379.72884 498.77722 402.20894 547.83567 434.18945 539.07812 C 462.92248 526.52949 443.03818 492.94033 439.77148 470.10742 C 438.92181 464.16858 433.05966 459.28731 433.34766 453.29492 C 435.00613 418.78746 422.59165 397.4602 407.33398 374.32227 C 387.68742 344.52865 357.21268 298.88424 327.61133 298.26172 z M 161.69727 348.01172 C 146.97584 347.65892 133.78077 354.59216 134.16992 372.75977 C 132.66884 400.81261 149.8058 424.92402 158.90039 450.34766 C 168.65608 469.75915 183.87319 475.02149 195.62695 468.16602 C 223.70998 451.78638 218.02553 388.6878 201.77344 370.82812 C 185.52136 352.96846 173.14726 348.28612 161.69727 348.01172 z M 327.1875 351.62695 C 328.83353 351.60711 330.41102 352.27056 331.71875 353.23438 C 335.90331 355.72218 338.66458 364.01073 344.29492 359.63867 C 349.79625 359.54426 354.32594 364.52992 356.04297 369.25 C 360.39437 368.77508 362.69426 373.08321 365.60547 375.62695 C 370.32904 378.50042 370.54712 385.65279 366.33789 388.88281 C 372.35375 397.70903 375.78397 408.48409 375.05469 419.23242 C 374.30314 439.04236 359.72301 457.07537 340.7793 462.54102 C 320.44867 468.95083 296.4646 459.44374 286.14844 440.79688 C 278.29689 428.25882 277.37431 411.8997 283.37891 398.42383 C 283.79613 394.46375 290.46663 390.46448 287.01172 387.4082 C 283.27031 383.11746 285.909 377.46343 289.98633 374.60352 C 293.13125 369.9316 298.63726 369.75648 301.23633 364.99023 C 304.29332 360.26036 310.00833 358.22253 314.93164 361.09766 C 318.73681 357.78558 321.6371 352.24321 327.1875 351.62695 z M 439.86328 364.75586 C 438.34593 364.75114 436.81712 365.11746 435.40234 366.02734 C 433.0299 367.55312 430.79116 370.15579 429.06641 373.48438 C 427.60256 376.30951 426.03569 379.74434 425.91406 383.61719 C 425.61661 393.09556 431.51727 397.79992 434.37305 408.76172 C 436.53274 417.05158 438.9166 427.2663 445.07812 427.32031 C 448.01856 427.34677 449.33677 421.98064 450.28906 418.55469 C 451.64724 413.66859 450.43792 408.22501 450.63672 403.06641 C 450.83666 397.86895 451.56701 392.69456 451.48828 387.49219 C 451.4297 383.61061 451.36811 379.64101 450.50195 375.9082 C 449.84586 373.08074 449.10575 369.99552 447.37109 367.97461 C 445.79594 366.13953 443.4425 365.19986 441.37109 364.87695 C 440.87263 364.79924 440.36906 364.75743 439.86328 364.75586 z "
       transform="scale(0.26458333)"
       id="path1787" />
    <path
       style="opacity:1;fill:#000000;fill-opacity:0.12135922;stroke:none;stroke-width:0.75000012;stroke-miterlimit:4;stroke-dasharray:none;stroke-dashoffset:0"
       d="m 125.57876,28.466142 c 0.4681,0.753059 0.87413,1.540212 1.19788,2.369365 0.0662,0.169357 0.11374,0.418379 -0.0167,0.545186 -0.17693,0.172437 -0.4939,0.01348 -0.74052,0.0026 -6.70621,-0.296423 -13.29838,-2.231475 -20.05356,-1.845365 -8.516174,-0.151263 -12.172107,8.758887 -18.568912,12.657625 -14.693688,5.968835 -35.398603,10.811 -46.507225,10.544576 -3.484173,-0.08356 -6.04998,-0.614492 -7.731312,-1.441256 -0.0092,2.476212 3.289969,4.376273 10.150284,4.540808 11.108629,0.266424 31.813518,-4.57574 46.507233,-10.544576 6.396778,-3.898738 10.052738,-12.808888 18.568912,-12.657625 6.75518,-0.38611 13.34735,1.548942 20.05353,1.845365 0.24665,0.0109 0.56362,0.169858 0.74055,-0.0026 0.13028,-0.126807 0.0827,-0.375829 0.0167,-0.545186 -0.79795,-2.043613 -2.08441,-3.838278 -3.61685,-5.468917 z"
       id="path1862"
       inkscape:connector-curvature="0" />
    <path
       style="opacity:1;fill:#000000;fill-opacity:0.15533981;stroke:none;stroke-width:0.75000012;stroke-miterlimit:4;stroke-dasharray:none;stroke-dashoffset:0"
       d="m 133.48946,51.369371 c 2.28513,4.633334 1.5109,10.933851 5.78826,14.456482 0.0114,0.0016 0.0222,0.004 0.0336,0.0057 -2.25862,-4.637054 -1.49006,-10.942558 -5.82187,-14.462166 z"
       id="path1860"
       inkscape:connector-curvature="0" />
    <path
       style="opacity:1;fill:#000000;fill-opacity:0.15533981;stroke:none;stroke-width:0.75000012;stroke-miterlimit:4;stroke-dasharray:none;stroke-dashoffset:0"
       d="m 145.71857,69.056565 c 1.82615,4.030022 0.8414,9.651706 -2.00245,13.496335 -1.52863,8.316558 1.66129,16.96404 -1.12501,25.1256 -2.0815,7.42667 -12.57646,12.05536 -18.64331,9.35705 -0.63343,-0.28174 -1.19091,-0.61325 -1.68515,-0.9865 0.77343,1.75427 2.05282,3.17369 4.10413,4.08605 6.06685,2.69831 16.56181,-1.93038 18.64331,-9.35705 2.7863,-8.16156 -0.40362,-16.809041 1.12501,-25.125599 3.6947,-4.994878 4.25397,-12.990764 -0.41653,-16.595886 z"
       id="path1858"
       inkscape:connector-curvature="0" />
    <path
       style="opacity:1;fill:#000000;fill-opacity:0.19902913;stroke:none;stroke-width:0.75000012;stroke-miterlimit:4;stroke-dasharray:none;stroke-dashoffset:0"
       d="m 102.32491,56.976131 c 0.28096,0.530082 0.50215,1.085037 0.63357,1.673799 0.38137,1.708814 0.36653,4.056253 -0.99478,5.157306 -0.44389,0.359034 -1.17678,0.163134 -1.71257,-0.0341 -1.312516,-0.483201 -2.500337,-1.319866 -3.522766,-2.323373 0.264478,0.432647 0.547,0.84998 0.831982,1.244886 1.287542,1.784086 3.045064,3.417927 5.109764,4.178038 0.53579,0.197239 1.26868,0.393145 1.71257,0.03411 1.36131,-1.101053 1.37613,-3.448495 0.99476,-5.157309 -0.41212,-1.846667 -1.68175,-3.372292 -3.05253,-4.77335 z"
       id="path1856"
       inkscape:connector-curvature="0" />
    <path
       style="opacity:1;fill:#000000;fill-opacity:0.19417475;stroke:none;stroke-width:0.75000012;stroke-miterlimit:4;stroke-dasharray:none;stroke-dashoffset:0"
       d="m 116.79883,96.131126 c 0.19047,0.932643 0.2082,1.914872 0.22273,2.877344 0.0209,1.37646 -0.17241,2.74552 -0.2253,4.12068 -0.0526,1.36488 0.26736,2.80516 -0.092,4.09794 -0.24342,0.87573 -0.57835,2.22646 -1.30225,2.31097 0.49119,1.63993 1.14757,3.09735 2.34251,3.10782 0.77795,0.007 1.12675,-1.41279 1.37872,-2.31924 0.35935,-1.29278 0.0394,-2.73306 0.092,-4.09794 0.0529,-1.37516 0.24614,-2.74422 0.22532,-4.12068 -0.0156,-1.027 -0.0318,-2.07729 -0.26096,-3.064927 -0.1736,-0.748098 -0.36941,-1.564399 -0.82839,-2.099098 -0.40796,-0.475287 -1.0129,-0.722463 -1.55236,-0.812869 z"
       id="path1850"
       inkscape:connector-curvature="0" />
    <path
       style="opacity:1;fill:#000000;fill-opacity:0.21359223;stroke:none;stroke-width:0.75000012;stroke-miterlimit:4;stroke-dasharray:none;stroke-dashoffset:0"
       d="m 52.349108,96.83174 c 3.242876,6.25837 3.734683,19.97911 -2.900598,23.84919 -2.146591,1.25202 -4.73002,0.97585 -6.973216,-1.00407 2.585186,4.63189 6.409836,5.84311 9.39219,4.10362 7.430302,-4.33378 5.926288,-21.0286 1.626259,-25.753979 -0.390856,-0.429517 -0.770147,-0.821114 -1.144635,-1.194761 z"
       id="path1848"
       inkscape:connector-curvature="0" />
    <path
       style="opacity:1;fill:#000000;fill-opacity:0.15533981;stroke:none;stroke-width:0.75000012;stroke-miterlimit:4;stroke-dasharray:none;stroke-dashoffset:0"
       d="m 99.912743,88.123524 c 2.017107,2.71286 3.859927,5.48845 5.436367,7.879106 4.03693,6.12191 7.32157,11.76475 6.88279,20.89485 -0.0762,1.58548 1.47481,2.87699 1.69963,4.44831 0.86431,6.0412 6.12537,14.92834 -1.4769,18.2485 -8.46151,2.31711 -14.409391,-10.66295 -22.479765,-5.47202 -4.492069,9.98242 -16.342174,16.03701 -27.068621,14.33504 -0.856191,-0.24694 -1.574826,-0.56693 -2.177653,-0.94775 0.605446,1.82956 1.9499,3.28394 4.596606,4.0473 10.726473,1.70197 22.576578,-4.35262 27.068648,-14.33504 8.070365,-5.19093 14.018255,7.78913 22.479765,5.47202 7.60227,-3.32016 2.34121,-12.2073 1.4769,-18.2485 -0.22482,-1.57132 -1.77583,-2.86283 -1.69963,-4.44831 0.43878,-9.1301 -2.84586,-14.77293 -6.88279,-20.894849 -2.18763,-3.317472 -4.88365,-7.376104 -7.855347,-10.978657 z"
       id="path1837"
       inkscape:connector-curvature="0" />
    <path
       style="opacity:1;fill:#000000;fill-opacity:0.18446601;stroke:none;stroke-width:0.75;stroke-miterlimit:4;stroke-dasharray:none;stroke-dashoffset:0"
       d="m 94.952018,100.32541 -0.667417,0.66264 v 0.99721 l 0.684408,0.0784 0.866877,-0.86067 z"
       id="path2323"
       inkscape:connector-curvature="0"
       sodipodi:nodetypes="cccccc" />
    <path
       style="opacity:1;fill:#000000;fill-opacity:0.18446601;stroke:none;stroke-width:0.75;stroke-miterlimit:4;stroke-dasharray:none;stroke-dashoffset:0"
       d="m 78.737483,102.10228 -0.199365,0.19803 0.211682,0.21015 v -0.39596 z"
       id="path2321"
       inkscape:connector-curvature="0" />
    <path
       style="opacity:1;fill:#000000;fill-opacity:0.18446601;stroke:none;stroke-width:0.75;stroke-miterlimit:4;stroke-dasharray:none;stroke-dashoffset:0"
       d="m 94.424956,104.75982 a 9.6049664,9.6049664 0 0 1 0.343447,0.70761 9.6049664,9.6049664 0 0 1 0.06502,0.14523 9.6049664,9.6049664 0 0 1 0.258756,0.70513 9.6049664,9.6049664 0 0 1 0.07285,0.21933 9.6049664,9.6049664 0 0 1 0.168428,0.6549 9.6049664,9.6049664 0 0 1 0.06722,0.29924 9.6049664,9.6049664 0 0 1 0.09061,0.59275 9.6049664,9.6049664 0 0 1 0.0464,0.38202 9.6049664,9.6049664 0 0 1 0.04344,0.83928 9.6049664,9.6049664 0 0 0 0,10e-5 9.6049664,9.6049664 0 0 1 -0.02683,0.53651 9.6049664,9.6049664 0 0 1 -0.03829,0.53622 9.6049664,9.6049664 0 0 1 -0.05395,0.35672 9.6049664,9.6049664 0 0 1 -0.104934,0.60621 9.6049664,9.6049664 0 0 1 -0.07066,0.27652 9.6049664,9.6049664 0 0 1 -0.184853,0.66465 9.6049664,9.6049664 0 0 1 -0.07285,0.19955 9.6049664,9.6049664 0 0 1 -0.276894,0.71106 9.6049664,9.6049664 0 0 1 -0.06054,0.12527 9.6049664,9.6049664 0 0 1 -0.380016,0.74551 9.6049664,9.6049664 0 0 1 -0.03428,0.0559 9.6049664,9.6049664 0 0 1 -3.342427,3.40077 9.6049664,9.6049664 0 0 1 -0.369322,0.21187 9.6049664,9.6049664 0 0 1 -0.771778,0.37467 9.6049664,9.6049664 0 0 1 -0.115532,0.0517 9.6049664,9.6049664 0 0 1 -0.731007,0.2685 9.6049664,9.6049664 0 0 1 -0.195355,0.065 9.6049664,9.6049664 0 0 1 -0.673622,0.17339 9.6049664,9.6049664 0 0 1 -0.283867,0.0637 9.6049664,9.6049664 0 0 1 -0.601152,0.0921 9.6049664,9.6049664 0 0 1 -0.376387,0.0456 9.6049664,9.6049664 0 0 1 -0.8347,0.0435 9.6049664,9.6049664 0 0 1 -0.0057,3.7e-4 9.6049664,9.6049664 0 0 1 -0.648701,-0.0326 9.6049664,9.6049664 0 0 1 -0.561719,-0.0535 9.6049664,9.6049664 0 0 1 -0.341441,-0.0517 9.6049664,9.6049664 0 0 1 -0.6424,-0.12689 9.6049664,9.6049664 0 0 1 -0.247584,-0.0632 9.6049664,9.6049664 0 0 1 -0.712196,-0.21646 9.6049664,9.6049664 0 0 1 -0.156303,-0.0571 9.6049664,9.6049664 0 0 1 -0.768532,-0.32044 9.6049664,9.6049664 0 0 1 -0.0718,-0.0347 9.6049664,9.6049664 0 0 1 -0.529158,-0.26534 9.6049664,9.6049664 0 0 1 -0.260665,-0.15983 9.6049664,9.6049664 0 0 1 -0.618529,-0.39921 9.6049664,9.6049664 0 0 1 -0.149428,-0.11353 9.6049664,9.6049664 0 0 1 -0.612609,-0.48858 9.6049664,9.6049664 0 0 1 -0.101975,-0.0951 9.6049664,9.6049664 0 0 1 -0.593609,-0.5791 9.6049664,9.6049664 0 0 1 -0.06684,-0.0762 9.6049664,9.6049664 0 0 1 -0.557326,-0.66465 9.6049664,9.6049664 0 0 1 -0.03695,-0.0517 9.6049664,9.6049664 0 0 1 -0.01652,-0.0243 9.6049664,9.6049664 0 0 0 0.178169,0.32807 9.6049664,9.6049664 0 0 0 0.01356,0.0237 9.6049664,9.6049664 0 0 0 0.509202,0.7481 9.6049664,9.6049664 0 0 0 0.03695,0.0517 9.6049664,9.6049664 0 0 0 0.557326,0.66465 9.6049664,9.6049664 0 0 0 0.06684,0.0762 9.6049664,9.6049664 0 0 0 0.59361,0.5791 9.6049664,9.6049664 0 0 0 0.101974,0.0951 9.6049664,9.6049664 0 0 0 0.612609,0.48858 9.6049664,9.6049664 0 0 0 0.149429,0.11353 9.6049664,9.6049664 0 0 0 0.618529,0.39921 9.6049664,9.6049664 0 0 0 0.260664,0.15983 9.6049664,9.6049664 0 0 0 0.529159,0.26534 9.6049664,9.6049664 0 0 0 0.0718,0.0347 9.6049664,9.6049664 0 0 0 0.768531,0.32044 9.6049664,9.6049664 0 0 0 0.156303,0.0571 9.6049664,9.6049664 0 0 0 0.712197,0.21646 9.6049664,9.6049664 0 0 0 0.247583,0.0632 9.6049664,9.6049664 0 0 0 0.6424,0.12689 9.6049664,9.6049664 0 0 0 0.341442,0.0517 9.6049664,9.6049664 0 0 0 0.561718,0.0535 9.6049664,9.6049664 0 0 0 0.648702,0.0326 9.6049664,9.6049664 0 0 0 0.0057,-3.7e-4 9.6049664,9.6049664 0 0 0 0.834699,-0.0435 9.6049664,9.6049664 0 0 0 0.376389,-0.0456 9.6049664,9.6049664 0 0 0 0.601152,-0.092 9.6049664,9.6049664 0 0 0 0.283866,-0.0637 9.6049664,9.6049664 0 0 0 0.673622,-0.17339 9.6049664,9.6049664 0 0 0 0.195356,-0.0649 9.6049664,9.6049664 0 0 0 0.731006,-0.2685 9.6049664,9.6049664 0 0 0 0.115533,-0.0517 9.6049664,9.6049664 0 0 0 0.771777,-0.37467 9.6049664,9.6049664 0 0 0 0.369323,-0.21187 9.6049664,9.6049664 0 0 0 3.342427,-3.40077 9.6049664,9.6049664 0 0 0 0.03428,-0.0559 9.6049664,9.6049664 0 0 0 0.380018,-0.74552 9.6049664,9.6049664 0 0 0 0.06053,-0.12527 9.6049664,9.6049664 0 0 0 0.276897,-0.71105 9.6049664,9.6049664 0 0 0 0.07285,-0.19956 9.6049664,9.6049664 0 0 0 0.184853,-0.66464 9.6049664,9.6049664 0 0 0 0.07066,-0.27652 9.6049664,9.6049664 0 0 0 0.104936,-0.60621 9.6049664,9.6049664 0 0 0 0.05394,-0.35672 9.6049664,9.6049664 0 0 0 0.03829,-0.53622 9.6049664,9.6049664 0 0 0 0.0268,-0.53651 9.6049664,9.6049664 0 0 0 0,-1e-4 9.6049664,9.6049664 0 0 0 -0.04346,-0.83928 9.6049664,9.6049664 0 0 0 -0.04642,-0.38202 9.6049664,9.6049664 0 0 0 -0.09061,-0.59275 9.6049664,9.6049664 0 0 0 -0.06722,-0.29924 9.6049664,9.6049664 0 0 0 -0.168429,-0.65491 9.6049664,9.6049664 0 0 0 -0.07285,-0.21932 9.6049664,9.6049664 0 0 0 -0.258755,-0.70513 9.6049664,9.6049664 0 0 0 -0.06502,-0.14523 9.6049664,9.6049664 0 0 0 -0.359296,-0.74037 9.6049664,9.6049664 0 0 0 -0.04354,-0.076 9.6049664,9.6049664 0 0 0 -0.468049,-0.76041 9.6049664,9.6049664 0 0 0 -0.0126,-0.0176 9.6049664,9.6049664 0 0 0 -0.144367,-0.18876 z"
       id="path4523-2"
       inkscape:connector-curvature="0" />
  </g>
</svg>
