<?xml version="1.0" encoding="UTF-8" standalone="no"?>
<!-- Created with Inkscape (http://www.inkscape.org/) -->

<svg
   xmlns:dc="http://purl.org/dc/elements/1.1/"
   xmlns:cc="http://creativecommons.org/ns#"
   xmlns:rdf="http://www.w3.org/1999/02/22-rdf-syntax-ns#"
   xmlns:svg="http://www.w3.org/2000/svg"
   xmlns="http://www.w3.org/2000/svg"
   xmlns:sodipodi="http://sodipodi.sourceforge.net/DTD/sodipodi-0.dtd"
   xmlns:inkscape="http://www.inkscape.org/namespaces/inkscape"
   width="210mm"
   height="297mm"
   viewBox="0 0 210 297"
   version="1.1"
   id="svg8"
   inkscape:version="0.92.4 (5da689c313, 2019-01-14)"
   sodipodi:docname="BoldSphericalCow.svg"
   inkscape:export-filename="C:\Users\nnguyen\Documents\BoldSphericalCow.png"
   inkscape:export-xdpi="600"
   inkscape:export-ydpi="600">
  <defs
     id="defs2" />
  <sodipodi:namedview
     id="base"
     pagecolor="#ffffff"
     bordercolor="#666666"
     borderopacity="1.0"
     inkscape:pageopacity="0.0"
     inkscape:pageshadow="2"
     inkscape:zoom="2.8"
     inkscape:cx="151.56064"
     inkscape:cy="1054.249"
     inkscape:document-units="mm"
     inkscape:current-layer="layer1"
     showgrid="false"
     inkscape:window-width="1920"
     inkscape:window-height="1001"
     inkscape:window-x="-9"
     inkscape:window-y="-9"
     inkscape:window-maximized="1" />
  <metadata
     id="metadata5">
    <rdf:RDF>
      <cc:Work
         rdf:about="">
        <dc:format>image/svg+xml</dc:format>
        <dc:type
           rdf:resource="http://purl.org/dc/dcmitype/StillImage" />
        <dc:title />
      </cc:Work>
    </rdf:RDF>
  </metadata>
  <g
     inkscape:label="Layer 1"
     inkscape:groupmode="layer"
     id="layer1">
    <circle
       style="opacity:1;fill:#ffffff;fill-opacity:1;stroke:#000000;stroke-width:0.74999994;stroke-miterlimit:4;stroke-dasharray:none;stroke-dashoffset:0"
       id="path4523"
       cx="14.982553"
       cy="14.603331"
       r="11.729457" />
    <path
       inkscape:connector-curvature="0"
       style="opacity:1;fill:#000000;fill-opacity:1;stroke:#000000;stroke-width:0.74999994;stroke-miterlimit:4;stroke-dasharray:none;stroke-dashoffset:0"
       d="m 8.3551922,4.9405484 a 11.729456,11.729456 0 0 0 -4.956697,7.9176576 4.6736905,4.6736907 0 0 0 2.538165,0.750093 4.6736905,4.6736907 0 0 0 4.6737078,-4.6737086 4.6736905,4.6736907 0 0 0 -2.2551758,-3.994042 z m 13.8162568,1.726623 a 9.5584515,6.6939315 33.203982 0 0 -5.055342,2.430427 9.5584515,6.6939315 33.203982 0 0 4.332068,10.8353586 9.5584515,6.6939315 33.203982 0 0 3.071264,1.482578 11.729456,11.729456 0 0 0 2.19256,-6.812165 11.729456,11.729456 0 0 0 -3.021708,-7.8379036 9.5584515,6.6939315 33.203982 0 0 -1.518842,-0.0983 z M 5.9862152,17.099908 a 5.6507477,2.3127403 80.431733 0 0 -1.417165,1.770699 5.6507477,2.3127403 80.431733 0 0 -0.148317,0.810842 11.729456,11.729456 0 0 0 4.846861,5.159352 5.6507477,2.3127403 80.431733 0 0 -1.428826,-6.237209 5.6507477,2.3127403 80.431733 0 0 -1.852553,-1.503684 z"
       id="path4525" />
    <path
       style="opacity:1;fill:#d4aa00;fill-opacity:1;stroke:#000000;stroke-width:0.74999994;stroke-miterlimit:4;stroke-dasharray:none;stroke-dashoffset:0"
       d="m 18.624868,11.842846 a 1.5956857,2.0192315 0 0 0 -1.595681,2.019176 1.5956857,2.0192315 0 0 0 1.595681,2.019292 1.5956857,2.0192315 0 0 0 1.595681,-2.019292 1.5956857,2.0192315 0 0 0 -1.595681,-2.019176 z m -7.284632,0.139221 a 1.5956857,2.0192315 0 0 0 -1.5956808,2.019176 1.5956857,2.0192315 0 0 0 1.5956808,2.019292 1.5956857,2.0192315 0 0 0 1.595681,-2.019292 1.5956857,2.0192315 0 0 0 -1.595681,-2.019176 z"
       id="path4553"
       inkscape:connector-curvature="0" />
    <path
       inkscape:connector-curvature="0"
       style="opacity:1;fill:#ff00ff;fill-opacity:1;stroke:#000000;stroke-width:0.74999994;stroke-miterlimit:4;stroke-dasharray:none;stroke-dashoffset:0"
       d="m 14.982546,21.809879 a 6.2416388,3.7088002 0 0 0 -6.0533268,2.823372 11.729456,11.729456 0 0 0 6.0533268,1.699572 11.729456,11.729456 0 0 0 6.055194,-1.697591 6.2416388,3.7088002 0 0 0 -6.055194,-2.825353 z"
       id="path4571" />
    <path
       style="opacity:1;fill:#ffffff;fill-opacity:1;stroke:#000000;stroke-width:0.74999994;stroke-miterlimit:4;stroke-dasharray:none;stroke-dashoffset:0"
       d="m 13.484174,22.427978 a 0.23090135,1.0251967 0 0 0 -0.23087,1.025156 0.23090135,1.0251967 0 0 0 0.23087,1.025272 0.23090135,1.0251967 0 0 0 0.230987,-1.025272 0.23090135,1.0251967 0 0 0 -0.230987,-1.025156 z m 2.99664,0 a 0.23090135,1.0251967 0 0 0 -0.23087,1.025156 0.23090135,1.0251967 0 0 0 0.23087,1.025272 0.23090135,1.0251967 0 0 0 0.230986,-1.025272 0.23090135,1.0251967 0 0 0 -0.230986,-1.025156 z"
       id="path4596"
       inkscape:connector-curvature="0" />
  </g>
</svg>
