<?xml version="1.0" encoding="UTF-8" standalone="no"?>
<!-- Created with Inkscape (http://www.inkscape.org/) -->

<svg
   xmlns:dc="http://purl.org/dc/elements/1.1/"
   xmlns:cc="http://creativecommons.org/ns#"
   xmlns:rdf="http://www.w3.org/1999/02/22-rdf-syntax-ns#"
   xmlns:svg="http://www.w3.org/2000/svg"
   xmlns="http://www.w3.org/2000/svg"
   xmlns:sodipodi="http://sodipodi.sourceforge.net/DTD/sodipodi-0.dtd"
   xmlns:inkscape="http://www.inkscape.org/namespaces/inkscape"
   width="210mm"
   height="297mm"
   viewBox="0 0 210 297"
   version="1.1"
   id="svg8"
   inkscape:version="0.92.4 (5da689c313, 2019-01-14)"
   sodipodi:docname="KingCowBoostBar.svg"
   inkscape:export-filename="C:\Users\nnguyen\Documents\KingCowBoostBar.png"
   inkscape:export-xdpi="600"
   inkscape:export-ydpi="600">
  <defs
     id="defs2">
    <clipPath
       clipPathUnits="userSpaceOnUse"
       id="clipPath1506">
      <path
         id="path1508"
         d="M 22.352124,4.1480671 C 19.930595,4.8397787 21.247187,3.7089794 19.641695,5.2942506 L 18.278987,6.6574747 C 16.958463,6.3321888 15.464591,6.6382855 14.496272,7.6067708 a 2.0398875,2.0398875 0 0 0 0,5.292e-4 l -1.43402,1.4345378 a 2.0398875,2.0398875 0 0 0 -0.220659,0.2645833 c -0.489008,0.1794962 -0.941276,0.4500764 -1.314648,0.8206219 a 2.0398875,2.0398875 0 0 0 -5.3e-4,5.29e-4 l -2.0448355,2.030367 c -1.2372496,1.228376 -1.41507,3.313206 -0.5575887,4.806425 -1.4085856,2.382781 -2.2481935,5.100338 -2.2494754,7.914762 -1.8e-6,0.0027 -2.9e-6,0.0055 0,0.0083 a 2.0398875,2.0398875 0 0 0 0,10e-4 c 0.00509,2.7491 0.7579432,5.460314 2.1321697,7.838283 a 2.0398875,2.0398875 0 0 0 0.098185,0.204637 c 0.013282,0.02363 0.018328,0.03264 0.020672,0.03669 9.789e-4,0.0019 0.00212,0.0034 0.0031,0.0052 1.98e-5,3.4e-5 5.027e-4,0.0011 5.292e-4,0.0011 0.021561,0.0382 0.043831,0.07624 0.066662,0.113689 a 2.0398875,2.0398875 0 0 0 0.00362,0.0057 c 0.2202645,0.358632 0.4622583,0.702188 0.7100342,1.04128 a 2.0398875,2.0398875 0 0 0 0.054777,0.08837 c 0.016812,0.02392 0.03407,0.04813 0.051676,0.07286 0.025564,0.03592 0.051784,0.07142 0.078548,0.106453 a 2.0398875,2.0398875 0 0 0 5.292e-4,5.29e-4 c 0.2477373,0.324107 0.5133893,0.633158 0.7849643,0.936379 a 2.0398875,2.0398875 0 0 0 0.05116,0.06563 c 0.0387,0.04461 0.07804,0.08999 0.118339,0.135393 0.02375,0.02683 0.04787,0.05342 0.07235,0.07958 a 2.0398875,2.0398875 0 0 0 0.0036,0.0036 c 0.266094,0.282919 0.546557,0.550688 0.83199,0.812355 a 2.0398875,2.0398875 0 0 0 0.05478,0.05736 c 0.05332,0.05044 0.110745,0.103881 0.172083,0.160198 a 2.0398875,2.0398875 0 0 0 0.0078,0.0072 c 0.0249,0.02262 0.04998,0.04469 0.07545,0.06666 0.277996,0.241004 0.56852,0.467699 0.862996,0.688848 a 2.0398875,2.0398875 0 0 0 0.05994,0.05168 c 0.08214,0.06362 0.162369,0.124412 0.240295,0.182417 a 2.0398875,2.0398875 0 0 0 0.01292,0.0098 c 0.02516,0.01841 0.05089,0.03645 0.07648,0.05426 0.001,7.93e-4 0.0021,0.0013 0.0031,0.0021 0.326629,0.229018 0.662002,0.446022 1.005106,0.649573 -0.18312,-0.108624 -0.180552,-0.106555 0.0083,0.0052 0.0982,0.06138 0.198369,0.123412 0.304891,0.186552 0.04232,0.02524 0.08543,0.04974 0.128675,0.07338 a 2.0398875,2.0398875 0 0 0 0.0062,0.0036 c 0.286571,0.155363 0.577399,0.301278 0.872298,0.438216 0.0014,5.29e-4 0.0011,5.29e-4 0.0031,0.0016 0.0017,7.94e-4 7.67e-4,7.94e-4 0.0026,0.0016 0.0165,0.008 0.03274,0.01574 0.05064,0.02429 0.0057,0.0027 0.01135,0.0056 0.01705,0.0083 a 2.0398875,2.0398875 0 0 0 0.0072,0.0036 c 0.408568,0.191612 0.825173,0.36516 1.248503,0.520899 a 2.0398875,2.0398875 0 0 0 0.001,5.29e-4 c 0.07528,0.02807 0.147748,0.05471 0.219108,0.0801 0.0038,0.0013 0.0076,0.0027 0.01137,0.0041 0.0052,0.0019 0.01086,0.0039 0.01602,0.0057 a 2.0398875,2.0398875 0 0 0 0.02584,0.0093 c 0.381097,0.132021 0.765459,0.247792 1.151868,0.349332 a 2.0398875,2.0398875 0 0 0 5.29e-4,5.29e-4 c 0.0028,7.93e-4 -0.09776,-0.02524 0.0062,0.0021 0.127409,0.03424 0.25255,0.06585 0.375171,0.0956 a 2.0398875,2.0398875 0 0 0 0.0026,0.0011 c 5.29e-4,1.27e-4 10e-4,2.51e-4 0.0016,5.29e-4 a 2.0398875,2.0398875 0 0 0 0.03359,0.0083 c 0.344682,0.08033 0.691623,0.148846 1.040247,0.205671 0.003,5.29e-4 0.002,-3e-6 0.0052,5.29e-4 0.0019,2.65e-4 0.0038,7.94e-4 0.0057,0.0011 0.0017,2.64e-4 8.46e-4,2.27e-4 0.0026,5.29e-4 0.175675,0.02944 0.351571,0.05624 0.5271,0.07958 8.73e-4,1.22e-4 0.0017,2.51e-4 0.0026,5.29e-4 a 2.0398875,2.0398875 0 0 0 0.02732,0.0027 c 0.301272,0.03768 0.599195,0.06442 0.892969,0.08423 0.337122,0.02745 0.677353,0.0456 1.020609,0.05116 a 2.0398875,2.0398875 0 0 0 0.0083,0 c 0.02889,2.64e-4 0.05793,2.64e-4 0.08682,0 0.461032,-0.0037 0.923108,-0.02732 1.384411,-0.07183 a 2.0398875,2.0398875 0 0 0 0.0016,-5.29e-4 c 0.0072,-7.94e-4 0.01452,-0.0013 0.0217,-0.0021 l -0.0016,5.29e-4 c 0.187816,-0.01918 0.37016,-0.04251 0.548804,-0.06718 0.320409,-0.03912 0.642972,-0.08722 0.966349,-0.147277 a 2.0398875,2.0398875 0 0 0 0.0052,-0.0011 c 0.02883,-0.0054 0.0576,-0.01148 0.0863,-0.01757 l -0.0052,0.0016 c 0.155036,-0.03241 0.310873,-0.06762 0.467671,-0.105421 a 2.0398875,2.0398875 0 0 0 0.06356,-0.01913 c 0.319571,-0.07318 0.638509,-0.15157 0.953948,-0.244946 l 0.0021,-5.29e-4 c 0.02638,-0.0078 0.05235,-0.01593 0.07855,-0.02429 a 2.0398875,2.0398875 0 0 0 0.0021,-0.0011 c 0.09003,-0.02879 0.176299,-0.05754 0.260966,-0.0863 0.396917,-0.128058 0.78795,-0.271703 1.172538,-0.430464 l 0.0016,-5.29e-4 c 0.02442,-0.01 0.04866,-0.02003 0.07286,-0.03049 a 2.0398875,2.0398875 0 0 0 0.0083,-0.0036 c 0.05109,-0.02236 0.09463,-0.04241 0.136943,-0.0615 0.424847,-0.183652 0.84132,-0.385998 1.247984,-0.606166 a 2.0398875,2.0398875 0 0 0 0.0057,-0.0031 l 0.0708,-0.04082 c 0.0019,-0.0011 0.0039,-0.0021 0.0057,-0.0031 0.178329,-0.09811 0.35656,-0.198562 0.533818,-0.305406 a 2.0398875,2.0398875 0 0 0 0.0031,-0.0021 c 0.07028,-0.04255 0.136658,-0.09109 0.204121,-0.137977 1.076955,-0.674209 2.032587,-1.506397 2.910417,-2.412773 H 133.75682 c 4.71477,0 8.59275,-3.877987 8.59275,-8.592756 v -3.875076 c 0,-4.714769 -3.87798,-8.592758 -8.59275,-8.592758 H 36.417933 c -0.04579,-0.956322 -0.396283,-1.89617 -1.077971,-2.572969 L 33.295124,10.12761 a 2.0398875,2.0398875 0 0 0 -5.29e-4,-5.29e-4 C 32.92185,9.7570951 32.47059,9.486428 31.982532,9.306913 A 2.0398875,2.0398875 0 0 0 31.75929,9.0418129 L 30.325266,7.6072751 a 2.0398875,2.0398875 0 0 0 0,-5.291e-4 C 29.356831,6.6381429 27.862678,6.3319663 26.542037,6.6574498 L 25.178811,5.2942257 a 2.0398875,2.0398875 0 0 0 -5.29e-4,-5.292e-4 C 24.439937,4.55583 23.396453,4.1326779 22.352641,4.1480671 Z m 0.05839,3.9150065 3.729488,3.7289714 1.416451,-1.416451 2.754355,2.754354 0.225825,-0.223759 2.044837,2.030367 -1.067117,1.059367 v 1.227315 c -0.04521,-0.0075 -0.0902,-0.01384 -0.135393,-0.02119 a 11.820481,11.820481 0 0 1 0.757576,0.983919 11.820481,11.820481 0 0 1 0.02585,0.03617 11.820481,11.820481 0 0 1 0.282154,0.424263 H 133.7567 c 2.59119,0 4.67724,2.086056 4.67724,4.677234 v 3.875217 c 0,2.591178 -2.08605,4.677233 -4.67724,4.677233 H 31.923117 a 11.820481,11.820481 0 0 1 -3.41013,3.11454 6.2900764,3.7375817 0 0 0 0,5.29e-4 11.820481,11.820481 0 0 1 -0.45837,0.262517 11.820481,11.820481 0 0 1 -0.93741,0.455269 11.820481,11.820481 0 0 1 -0.153996,0.06873 11.820481,11.820481 0 0 1 -0.892451,0.327629 11.820481,11.820481 0 0 1 -0.24598,0.08165 11.820481,11.820481 0 0 1 -0.825273,0.212392 11.820481,11.820481 0 0 1 -0.351399,0.07906 11.820481,11.820481 0 0 1 -0.747242,0.114205 11.820481,11.820481 0 0 1 -0.450618,0.05478 11.820481,11.820481 0 0 1 -1.03973,0.05426 11.820481,11.820481 0 0 1 -0.796334,-0.03979 11.820481,11.820481 0 0 1 -0.695048,-0.06615 11.820481,11.820481 0 0 1 -0.417029,-0.06304 11.820481,11.820481 0 0 1 -0.790649,-0.156062 11.820481,11.820481 0 0 1 -0.307991,-0.07907 11.820481,11.820481 0 0 1 -0.870748,-0.264583 11.820481,11.820481 0 0 1 -0.199988,-0.07286 11.820481,11.820481 0 0 1 -0.941028,-0.392742 11.820481,11.820481 0 0 1 -0.08888,-0.04289 11.820481,11.820481 0 0 1 -0.660424,-0.331762 11.820481,11.820481 0 0 1 -0.311092,-0.190685 11.820481,11.820481 0 0 1 -0.02067,-0.01291 11.820481,11.820481 0 0 1 -0.742074,-0.479558 11.820481,11.820481 0 0 1 -0.180351,-0.136943 11.820481,11.820481 0 0 1 -0.756026,-0.603065 11.820481,11.820481 0 0 1 -0.129191,-0.120406 11.820481,11.820481 0 0 1 -0.725537,-0.707967 11.820481,11.820481 0 0 1 -0.08888,-0.101285 11.820481,11.820481 0 0 1 -0.682646,-0.814419 11.820481,11.820481 0 0 1 -0.03876,-0.05478 11.820481,11.820481 0 0 1 -0.631486,-0.926557 11.820481,11.820481 0 0 1 -0.01809,-0.03204 11.820481,11.820481 0 0 1 -0.550355,-1.013375 11.820481,11.820481 0 0 1 -1.177188,-5.117518 11.820481,11.820481 0 0 1 0.14676,-1.758549 11.820481,11.820481 0 0 1 2.683558,-5.91075 c -0.02564,0.004 -0.05137,0.0073 -0.077,0.01137 v -1.191163 l -1.103292,-1.09554 2.044836,-2.030367 0.225826,0.223759 2.754354,-2.754354 1.416451,1.416451 z"
         style="opacity:1;fill:#800000;fill-opacity:1;stroke:none;stroke-width:0.75;stroke-miterlimit:4;stroke-dasharray:none;stroke-dashoffset:0;stroke-opacity:1"
         inkscape:connector-curvature="0" />
    </clipPath>
  </defs>
  <sodipodi:namedview
     id="base"
     pagecolor="#ffffff"
     bordercolor="#666666"
     borderopacity="1.0"
     inkscape:pageopacity="0.0"
     inkscape:pageshadow="2"
     inkscape:zoom="0.9899495"
     inkscape:cx="408.88165"
     inkscape:cy="888.84084"
     inkscape:document-units="mm"
     inkscape:current-layer="layer1"
     showgrid="false"
     inkscape:window-width="1920"
     inkscape:window-height="1001"
     inkscape:window-x="-9"
     inkscape:window-y="-9"
     inkscape:window-maximized="1"
     showguides="false"
     inkscape:snap-global="false" />
  <metadata
     id="metadata5">
    <rdf:RDF>
      <cc:Work
         rdf:about="">
        <dc:format>image/svg+xml</dc:format>
        <dc:type
           rdf:resource="http://purl.org/dc/dcmitype/StillImage" />
        <dc:title />
      </cc:Work>
    </rdf:RDF>
  </metadata>
  <g
     inkscape:label="Layer 1"
     inkscape:groupmode="layer"
     id="layer1">
    <path
       style="opacity:1;fill:#000000;fill-opacity:0.27669904;stroke:none;stroke-width:2.83464571;stroke-miterlimit:4;stroke-dasharray:none;stroke-dashoffset:0;stroke-opacity:0"
       d="M 484.94141 77.542969 L 99.425781 77.542969 A 44.675833 44.675833 0 0 1 99.037109 79.783203 A 44.675829 44.675829 0 0 1 98.726562 81.003906 A 44.675833 44.675833 0 0 1 97.847656 84.162109 A 44.675829 44.675829 0 0 1 97.53125 85.029297 A 44.675833 44.675833 0 0 1 96.224609 88.384766 A 44.675829 44.675829 0 0 1 96.09375 88.65625 L 475.83594 88.65625 C 480.88078 88.65625 484.94141 85.551082 484.94141 81.693359 L 484.94141 77.542969 z "
       id="path1029"
       transform="scale(0.26458333)"
       inkscape:export-xdpi="600"
       inkscape:export-ydpi="600" />
    <path
       style="opacity:1;fill:#ffffff;fill-opacity:0.55339807;stroke:none;stroke-width:2.83464571;stroke-miterlimit:4;stroke-dasharray:none;stroke-dashoffset:0;stroke-opacity:0"
       d="M 97.226562 54.816406 A 44.675834 44.675834 0 0 1 97.8125 56.414062 A 44.67583 44.67583 0 0 1 98.146484 57.423828 A 44.675834 44.675834 0 0 1 98.927734 60.457031 A 44.67583 44.67583 0 0 1 99.246094 61.869141 A 44.675834 44.675834 0 0 1 99.666016 64.626953 A 44.67583 44.67583 0 0 1 99.824219 65.929688 L 484.94141 65.929688 L 484.94141 61.78125 C 484.94141 57.923535 480.88078 54.816406 475.83594 54.816406 L 97.226562 54.816406 z "
       id="path847"
       transform="scale(0.26458333)"
       inkscape:export-xdpi="600"
       inkscape:export-ydpi="600" />
    <g
       id="g1540"
       transform="translate(-7.7508163,-6.2808339)"
       inkscape:export-xdpi="600"
       inkscape:export-ydpi="600">
      <path
         id="rect877"
         d="m 31.526241,18.646407 c -2.591178,0 -4.677235,2.086056 -4.677235,4.677234 v 3.875216 c 0,2.591178 2.086057,4.677232 4.677235,4.677232 H 133.75669 c 2.59118,0 4.67723,-2.086054 4.67723,-4.677232 v -3.875216 c 0,-2.591178 -2.08605,-4.677234 -4.67723,-4.677234 z m 1.949233,2.137854 H 133.64921 c 1.33478,0 2.40915,0.822094 2.40915,1.842781 v 5.268412 c 0,1.020689 -1.07437,1.842265 -2.40915,1.842265 H 33.175752 a 11.82048,11.82048 0 0 0 0.03462,-0.07183 11.820481,11.820481 0 0 0 0.345715,-0.887801 11.82048,11.82048 0 0 0 0.08372,-0.229445 11.820481,11.820481 0 0 0 0.232542,-0.835607 11.82048,11.82048 0 0 0 0.08217,-0.322979 11.820481,11.820481 0 0 0 0.131257,-0.756542 11.82048,11.82048 0 0 0 0.06511,-0.432015 11.820481,11.820481 0 0 0 0.04754,-0.667659 11.82048,11.82048 0 0 0 0.03307,-0.652674 11.820481,11.820481 0 0 0 -0.05374,-1.033528 11.82048,11.82048 0 0 0 -0.05684,-0.467672 11.820481,11.820481 0 0 0 -0.111104,-0.729671 11.82048,11.82048 0 0 0 -0.08423,-0.373621 11.820481,11.820481 0 0 0 -0.206705,-0.802535 11.82048,11.82048 0 0 0 -0.08837,-0.267167 11.820481,11.820481 0 0 0 -0.15503,-0.422713 z"
         style="opacity:1;fill:#000000;fill-opacity:0.99514561;stroke:none;stroke-width:0.75;stroke-miterlimit:4;stroke-dasharray:none;stroke-dashoffset:0;stroke-opacity:1"
         inkscape:connector-curvature="0" />
      <g
         id="g935">
        <circle
           style="opacity:1;fill:#ffffff;fill-opacity:1;stroke:#000000;stroke-width:0.75;stroke-miterlimit:4;stroke-dasharray:none;stroke-dashoffset:0"
           id="path4523"
           cx="22.410772"
           cy="24.881161"
           r="11.820481" />
        <path
           inkscape:connector-curvature="0"
           style="opacity:1;fill:#000000;fill-opacity:1;stroke:#000000;stroke-width:0.75;stroke-miterlimit:4;stroke-dasharray:none;stroke-dashoffset:0"
           d="m 15.731982,15.143392 a 11.820481,11.820481 0 0 0 -4.995163,7.979102 4.7099601,4.7099601 0 0 0 2.557862,0.755913 4.7099601,4.7099601 0 0 0 4.709978,-4.709977 4.7099601,4.7099601 0 0 0 -2.272677,-4.025038 z m 13.923477,1.740023 a 9.6326285,6.745879 33.203979 0 0 -5.094574,2.449288 9.6326285,6.745879 33.203979 0 0 4.365686,10.919444 9.6326285,6.745879 33.203979 0 0 3.095099,1.494084 11.820481,11.820481 0 0 0 2.209575,-6.865031 11.820481,11.820481 0 0 0 -3.045158,-7.898728 9.6326285,6.745879 33.203979 0 0 -1.530628,-0.09906 z M 13.344621,27.397113 a 5.6945995,2.330688 80.431733 0 0 -1.428163,1.78444 5.6945995,2.330688 80.431733 0 0 -0.149468,0.817134 11.820481,11.820481 0 0 0 4.884474,5.19939 5.6945995,2.330688 80.431733 0 0 -1.439914,-6.285611 5.6945995,2.330688 80.431733 0 0 -1.866929,-1.515353 z"
           id="path4525" />
        <path
           style="opacity:1;fill:#ffff00;fill-opacity:1;stroke:#000000;stroke-width:0.75;stroke-miterlimit:4;stroke-dasharray:none;stroke-dashoffset:0"
           d="M 26.081355,22.099254 A 1.6080688,2.0349014 0 0 0 24.47329,24.1341 1.6080688,2.0349014 0 0 0 26.081355,26.169062 1.6080688,2.0349014 0 0 0 27.689418,24.1341 1.6080688,2.0349014 0 0 0 26.081355,22.099254 Z m -7.341164,0.140302 a 1.6080688,2.0349014 0 0 0 -1.608064,2.034845 1.6080688,2.0349014 0 0 0 1.608064,2.034963 1.6080688,2.0349014 0 0 0 1.608065,-2.034963 1.6080688,2.0349014 0 0 0 -1.608065,-2.034845 z"
           id="path4553"
           inkscape:connector-curvature="0" />
        <path
           inkscape:connector-curvature="0"
           style="opacity:1;fill:#ff00ff;fill-opacity:1;stroke:#000000;stroke-width:0.75;stroke-miterlimit:4;stroke-dasharray:none;stroke-dashoffset:0"
           d="m 22.410767,32.143635 a 6.2900764,3.7375817 0 0 0 -6.100304,2.845282 11.820481,11.820481 0 0 0 6.100304,1.712761 11.820481,11.820481 0 0 0 6.102184,-1.710764 6.2900764,3.7375817 0 0 0 -6.102184,-2.847279 z"
           id="path4571" />
        <path
           style="opacity:1;fill:#ffffff;fill-opacity:1;stroke:#000000;stroke-width:0.75;stroke-miterlimit:4;stroke-dasharray:none;stroke-dashoffset:0"
           d="m 20.900767,32.766531 a 0.23269323,1.0331526 0 0 0 -0.232661,1.033112 0.23269323,1.0331526 0 0 0 0.232661,1.033228 0.23269323,1.0331526 0 0 0 0.232779,-1.033228 0.23269323,1.0331526 0 0 0 -0.232779,-1.033112 z m 3.019895,0 a 0.23269323,1.0331526 0 0 0 -0.232661,1.033112 0.23269323,1.0331526 0 0 0 0.232661,1.033228 0.23269323,1.0331526 0 0 0 0.232778,-1.033228 0.23269323,1.0331526 0 0 0 -0.232778,-1.033112 z"
           id="path4596"
           inkscape:connector-curvature="0" />
        <path
           style="opacity:1;fill:#ffff00;fill-opacity:1;stroke:#000000;stroke-width:0.75;stroke-miterlimit:4;stroke-dasharray:none;stroke-dashoffset:0"
           d="m 13.343117,14.007453 h 18.171332 v 3.215671 c -6.179525,-1.01996 -12.226364,-0.947175 -18.171332,0 z"
           id="rect4617"
           inkscape:connector-curvature="0"
           sodipodi:nodetypes="ccccc" />
        <g
           id="g4866"
           transform="matrix(0.22738726,0,0,0.22738726,9.6786848,12.252506)"
           style="stroke-width:4.39778328">
          <rect
             transform="matrix(0.70962399,0.70458058,-0.70962399,0.70458058,0,0)"
             y="-62.590633"
             x="66.67202"
             height="12.672592"
             width="12.672592"
             id="rect4619-4"
             style="opacity:1;fill:#ffff00;fill-opacity:1;stroke:#000000;stroke-width:3.29837966;stroke-miterlimit:4;stroke-dasharray:none;stroke-dashoffset:0" />
          <rect
             transform="matrix(0.70962399,0.70458058,-0.70962399,0.70458058,0,0)"
             y="-12.233104"
             x="16.314493"
             height="12.672592"
             width="12.672592"
             id="rect4619-4-8"
             style="opacity:1;fill:#ffff00;fill-opacity:1;stroke:#000000;stroke-width:3.29837966;stroke-miterlimit:4;stroke-dasharray:none;stroke-dashoffset:0" />
          <rect
             transform="matrix(0.36119457,0.93249047,-0.36119457,0.93249047,0,0)"
             y="-122.21883"
             x="131.73814"
             height="3.1398437"
             width="3.1398437"
             id="rect4698-5-5"
             style="opacity:1;fill:#ff0000;fill-opacity:1;stroke:#000000;stroke-width:4.01871586;stroke-miterlimit:4;stroke-dasharray:none;stroke-dashoffset:0" />
          <rect
             transform="matrix(0.36119457,0.93249047,-0.36119457,0.93249047,0,0)"
             y="-23.283487"
             x="32.802788"
             height="3.1398439"
             width="3.1398439"
             id="rect4698-5-5-0"
             style="opacity:1;fill:#ff0000;fill-opacity:1;stroke:#000000;stroke-width:4.01871586;stroke-miterlimit:4;stroke-dasharray:none;stroke-dashoffset:0" />
        </g>
        <g
           id="g4860"
           style="stroke-width:4.39778328"
           transform="matrix(0.22738726,0,0,0.22738726,9.6786848,11.891529)">
          <g
             transform="translate(0,-0.32196416)"
             id="g4834"
             style="stroke-width:4.39778328">
            <rect
               style="opacity:1;fill:#ffff00;fill-opacity:1;stroke:#000000;stroke-width:3.2983377;stroke-miterlimit:4;stroke-dasharray:none;stroke-dashoffset:0"
               id="rect4619-6-8"
               width="19.546701"
               height="19.546701"
               x="19.104797"
               y="-28.077637"
               transform="rotate(45)" />
            <rect
               style="opacity:1;fill:#ff0000;fill-opacity:1;stroke:#000000;stroke-width:3.87571335;stroke-miterlimit:4;stroke-dasharray:none;stroke-dashoffset:0"
               id="rect4698"
               width="4.9940476"
               height="4.9940476"
               x="43.910095"
               y="-40.769295"
               transform="matrix(0.39399219,0.91911379,-0.39399219,0.91911379,0,0)" />
          </g>
          <g
             transform="translate(0,0.32196416)"
             id="g4838"
             style="stroke-width:4.39778328">
            <rect
               style="opacity:1;fill:#ffff00;fill-opacity:1;stroke:#000000;stroke-width:3.2983377;stroke-miterlimit:4;stroke-dasharray:none;stroke-dashoffset:0"
               id="rect4619-6"
               width="19.546701"
               height="19.546701"
               x="50.653053"
               y="-60.536545"
               transform="rotate(45)" />
            <rect
               style="opacity:1;fill:#ff0000;fill-opacity:1;stroke:#000000;stroke-width:3.87571335;stroke-miterlimit:4;stroke-dasharray:none;stroke-dashoffset:0"
               id="rect4698-5"
               width="4.9940476"
               height="4.9940476"
               x="100.99735"
               y="-98.557159"
               transform="matrix(0.39399218,0.91911379,-0.39399218,0.91911379,0,0)" />
          </g>
        </g>
        <g
           id="g4830"
           transform="matrix(0.22738726,0,0,0.22738726,9.6786848,11.771203)"
           style="stroke-width:4.39778328">
          <rect
             transform="rotate(45)"
             y="-51.124401"
             x="28.06163"
             height="26.190769"
             width="26.190769"
             id="rect4619-62"
             style="opacity:1;fill:#ffff00;fill-opacity:1;stroke:#000000;stroke-width:3.2983377;stroke-miterlimit:4;stroke-dasharray:none;stroke-dashoffset:0" />
          <rect
             style="opacity:1;fill:#ff0000;fill-opacity:1;stroke:#000000;stroke-width:3.87571335;stroke-miterlimit:4;stroke-dasharray:none;stroke-dashoffset:0"
             id="rect4696"
             width="8.6524382"
             height="8.6524382"
             x="67.935509"
             y="-74.181473"
             transform="matrix(0.39399219,0.91911379,-0.39399219,0.91911379,0,0)" />
        </g>
        <g
           id="g4825"
           style="fill:#ffffff;stroke-width:4.39778328"
           transform="matrix(0.22738726,0,0,0.22738726,9.6786848,11.891529)">
          <g
             transform="translate(0.00885732,0.52916663)"
             id="g4813"
             style="fill:#ffffff;stroke-width:4.39778328">
            <rect
               style="opacity:1;fill:#ffffff;fill-opacity:1;stroke:#000000;stroke-width:3.49983978;stroke-miterlimit:4;stroke-dasharray:none;stroke-dashoffset:0"
               id="rect4698-5-5-5"
               width="2.1816049"
               height="2.1816049"
               x="71.783234"
               y="-57.360985"
               transform="matrix(0.5198442,0.85426109,-0.5198442,0.85426109,0,0)" />
            <rect
               style="opacity:1;fill:#ffffff;fill-opacity:1;stroke:#000000;stroke-width:3.49983954;stroke-miterlimit:4;stroke-dasharray:none;stroke-dashoffset:0"
               id="rect4698-5-5-5-1"
               width="2.1816049"
               height="2.1816049"
               x="50.485405"
               y="-36.063148"
               transform="matrix(0.51984421,0.85426108,-0.51984421,0.85426108,0,0)" />
          </g>
          <g
             transform="translate(0.2734382)"
             id="g4817"
             style="fill:#ffffff;stroke-width:4.39778328">
            <rect
               style="opacity:1;fill:#ffffff;fill-opacity:1;stroke:#000000;stroke-width:3.49983954;stroke-miterlimit:4;stroke-dasharray:none;stroke-dashoffset:0"
               id="rect4698-5-5-5-3"
               width="2.1816049"
               height="2.1816049"
               x="35.847576"
               y="-15.230865"
               transform="matrix(0.51984421,0.85426108,-0.51984421,0.85426108,0,0)" />
            <rect
               style="opacity:1;fill:#ffffff;fill-opacity:1;stroke:#000000;stroke-width:3.49983954;stroke-miterlimit:4;stroke-dasharray:none;stroke-dashoffset:0"
               id="rect4698-5-5-5-2"
               width="2.1816049"
               height="2.1816049"
               x="92.10656"
               y="-71.489845"
               transform="matrix(0.51984421,0.85426108,-0.51984421,0.85426108,0,0)" />
          </g>
        </g>
      </g>
    </g>
  </g>
</svg>
