<?xml version="1.0" encoding="UTF-8" standalone="no"?>
<!-- Created with Inkscape (http://www.inkscape.org/) -->

<svg
   xmlns:dc="http://purl.org/dc/elements/1.1/"
   xmlns:cc="http://creativecommons.org/ns#"
   xmlns:rdf="http://www.w3.org/1999/02/22-rdf-syntax-ns#"
   xmlns:svg="http://www.w3.org/2000/svg"
   xmlns="http://www.w3.org/2000/svg"
   xmlns:xlink="http://www.w3.org/1999/xlink"
   xmlns:sodipodi="http://sodipodi.sourceforge.net/DTD/sodipodi-0.dtd"
   xmlns:inkscape="http://www.inkscape.org/namespaces/inkscape"
   width="210mm"
   height="297mm"
   viewBox="0 0 210 297"
   version="1.1"
   id="svg8"
   inkscape:version="0.92.4 (5da689c313, 2019-01-14)"
   sodipodi:docname="MooMooMove.svg"
   inkscape:export-filename="C:\Users\nnguyen\Documents\MooMooMove.png"
   inkscape:export-xdpi="600"
   inkscape:export-ydpi="600">
  <defs
     id="defs2">
    <linearGradient
       id="linearGradient5206"
       inkscape:collect="always">
      <stop
         id="stop5202"
         offset="0"
         style="stop-color:#ffff00;stop-opacity:1;" />
      <stop
         id="stop5204"
         offset="1"
         style="stop-color:#ffff00;stop-opacity:0;" />
    </linearGradient>
    <radialGradient
       inkscape:collect="always"
       xlink:href="#linearGradient5206"
       id="radialGradient1009"
       cx="-195.4231"
       cy="12.392813"
       fx="-195.4231"
       fy="12.392813"
       r="281.08514"
       gradientTransform="matrix(1.0605185,-0.00368754,0.00388535,1.1174127,405.90836,127.27477)"
       gradientUnits="userSpaceOnUse" />
  </defs>
  <sodipodi:namedview
     id="base"
     pagecolor="#ffffff"
     bordercolor="#666666"
     borderopacity="1.0"
     inkscape:pageopacity="0.0"
     inkscape:pageshadow="2"
     inkscape:zoom="1.4"
     inkscape:cx="361.82192"
     inkscape:cy="986.50224"
     inkscape:document-units="mm"
     inkscape:current-layer="layer1"
     showgrid="false"
     inkscape:snap-global="false"
     inkscape:window-width="1920"
     inkscape:window-height="1001"
     inkscape:window-x="-9"
     inkscape:window-y="-9"
     inkscape:window-maximized="1" />
  <metadata
     id="metadata5">
    <rdf:RDF>
      <cc:Work
         rdf:about="">
        <dc:format>image/svg+xml</dc:format>
        <dc:type
           rdf:resource="http://purl.org/dc/dcmitype/StillImage" />
        <dc:title></dc:title>
      </cc:Work>
    </rdf:RDF>
  </metadata>
  <g
     inkscape:label="Layer 1"
     inkscape:groupmode="layer"
     id="layer1">
    <rect
       style="opacity:1;fill:#ffffff;fill-opacity:1;stroke:#000000;stroke-width:0.74999994;stroke-miterlimit:4;stroke-dasharray:none;stroke-dashoffset:0;stroke-opacity:1"
       id="rect1203"
       width="132.66963"
       height="75.32502"
       x="2.3470447"
       y="3.0208752"
       inkscape:export-xdpi="1000"
       inkscape:export-ydpi="1000" />
    <path
       style="opacity:1;fill:#000000;fill-opacity:1;stroke:#000000;stroke-width:0.75;stroke-miterlimit:4;stroke-dasharray:none;stroke-opacity:1"
       d="m 41.893736,7.9614183 c -0.309554,0.0041 -0.605154,0.025479 -0.880673,0.065513 -3.53473,0.5136489 -7.500473,3.1202307 -9.278039,6.0981867 -0.441632,0.739875 -0.466154,0.738604 -0.914222,-0.04557 -0.253237,-0.443213 -1.297549,-1.621763 -2.320706,-2.618989 -3.431165,-3.3442056 -8.848324,-4.3397206 -13.234913,-2.4322435 -1.163434,0.505908 -2.115435,1.0584335 -2.115435,1.2278405 0,0.169407 1.457559,0.895485 3.238979,1.613577 1.781427,0.71809 3.170795,1.373796 3.087496,1.457087 -0.08329,0.08329 -1.173464,0.340386 -2.422658,0.571314 -2.30255,0.425649 -3.200975,0.796909 -5.236056,2.163578 -2.0916346,1.404645 -4.8385095,6.322136 -3.1711216,5.676976 0.371643,-0.143803 2.1261826,-0.610134 3.8990266,-1.036303 3.359934,-0.807686 6.128208,-0.943303 8.864286,-0.434211 l 1.611666,0.299988 -1.304115,0.691684 c -3.833261,2.033352 -6.184947,5.647514 -6.203539,9.533921 -0.01134,2.376447 0.465033,3.570711 2.212789,5.547119 1.093842,1.236942 1.869488,1.153493 1.872234,-0.201444 0.0093,-4.583968 5.167155,-11.487036 8.045082,-10.767194 0.560098,0.140086 1.163441,0.512207 1.340656,0.826974 0.177223,0.314766 0.589583,0.57237 0.916464,0.57237 0.326881,0 0.753999,0.407939 0.949055,0.906555 0.195056,0.49861 0.584921,1.450508 0.866385,2.115326 0.28147,0.664817 0.558855,1.604963 0.616483,2.089224 0.0576,0.484254 0.308083,1.572158 0.556497,2.417539 1.67269,5.692337 2.645079,16.040816 2.586495,27.525311 -0.04824,9.463877 -0.03362,9.292559 -0.768807,9.010439 -0.421249,-0.16165 -0.544,-0.052 -0.390214,0.348773 0.3888,1.013203 -0.852822,1.557599 -4.314797,1.891832 -2.385166,0.230258 0.196512,0.325487 8.934698,0.329593 7.832151,0.0034 11.483538,-0.112891 10.068055,-0.321503 -1.221533,-0.180031 -2.762746,-0.534612 -3.424873,-0.787986 l -1.116731,-0.427385 c 0.355032,-0.248256 0.696084,-0.527021 1.022774,-0.8371 0.135993,-0.150301 0.257986,-0.289103 0.369224,-0.418974 l 0.535514,-0.44273 -0.202189,0.03724 c 0.09819,-0.126051 0.180003,-0.238478 0.243527,-0.335886 0.392715,-0.583125 0.749716,-1.172057 1.071028,-1.767085 0.333215,-0.595028 0.767528,-1.445977 1.303049,-2.552727 0.535528,-1.106742 1.047365,-2.201624 1.535282,-3.284574 0.05951,-0.130903 0.273551,-0.606869 0.642467,-1.428008 0.368924,-0.821132 0.642714,-1.428158 0.821221,-1.820879 0.178507,-0.392715 0.446216,-0.981648 0.803223,-1.767085 h 0.07149 c 0.166605,2.153999 0.356981,3.980652 0.571202,5.480116 0.226104,1.487562 0.481918,2.778716 0.767529,3.873569 0.297513,1.082944 0.678394,2.148055 1.142512,3.195297 0.452222,0.98775 0.975833,1.79704 1.570861,2.427769 0.606923,0.618826 1.160311,0.92829 1.660124,0.92829 0.178507,0 0.392776,-0.04762 0.642686,-0.142853 0.261812,-0.107111 0.493847,-0.25595 0.69616,-0.446352 0.05951,-0.04762 0.12493,-0.113035 0.196333,-0.196334 0.0714,-0.08331 0.118939,-0.136841 0.142744,-0.160646 0.416521,-0.583124 1.303131,-2.27893 2.65979,-5.08745 0.428417,-0.880638 0.797299,-1.636291 1.106716,-2.26702 0.321312,-0.630722 0.731963,-1.428035 1.231782,-2.391979 0.499827,-0.963936 1.124522,-2.165894 1.874252,-3.605859 h 0.07148 c 0.01189,0.238014 0.05958,1.285243 0.142859,3.141722 0.05951,1.713672 0.178467,3.12979 0.356973,4.248435 0.178507,1.10675 0.446202,2.041012 0.803217,2.802644 0.368916,0.749736 0.862763,1.433966 1.481589,2.052792 1.213854,1.273347 2.564651,1.910047 4.05222,1.910047 1.059145,0 2.118258,-0.511838 3.177401,-1.535282 0.630726,-0.630736 0.946078,-1.130466 0.946078,-1.499382 0,-0.202306 -0.19039,-0.493882 -0.571207,-0.874701 -0.309414,-0.285612 -0.690184,-0.737799 -1.142404,-1.356625 -0.380825,-0.559326 -0.779578,-1.362631 -1.196097,-2.409881 -0.392715,-1.178152 -0.690181,-2.33845 -0.892486,-3.480901 -0.309417,-2.046888 -0.464146,-4.212769 -0.464146,-6.497671 0,-0.904437 0.04762,-2.427734 0.142861,-4.569824 0.02378,-0.368917 0.03567,-0.714035 0.03567,-1.035347 0,-0.41652 -0.0952,-0.684209 -0.285604,-0.803223 -0.178506,-0.119 -0.618819,-0.178534 -1.320943,-0.178534 -1.356666,0 -2.46343,0.184492 -3.320263,0.553409 -0.297514,0.119007 -0.541438,0.237966 -0.731848,0.356973 -0.178506,0.119007 -0.339228,0.255854 -0.48204,0.410555 -0.142805,0.142806 -0.315306,0.345077 -0.517618,0.606897 -1.261452,1.904082 -3.296477,6.027669 -6.105004,12.370653 l -0.357075,0.803216 c -0.249917,-0.333208 -0.440299,-0.719979 -0.571209,-1.160299 -0.130903,-0.452222 -0.321292,-1.445915 -0.571201,-2.981075 0,-0.107104 -0.0358,-0.327154 -0.107166,-0.660369 0,-0.09521 -0.0061,-0.172726 -0.01777,-0.232226 -0.01189,-0.05951 -0.02378,-0.124931 -0.03567,-0.196334 -0.01189,-0.08331 -0.02966,-0.196272 -0.0535,-0.339078 -0.368923,-2.522908 -0.737806,-4.444865 -1.106722,-5.765816 -0.368917,-1.332868 -0.767679,-2.225361 -1.196089,-2.677583 -0.690235,-0.72593 -1.85054,-1.088923 -3.480908,-1.088923 -0.809235,0 -1.558992,0.118959 -2.249227,0.356973 -0.690229,0.226111 -1.035237,0.470137 -1.035237,0.73195 0,0.166611 0.136737,0.362883 0.410445,0.588994 0.357021,0.30941 0.535623,0.589103 0.535623,0.839013 0,0.226111 -0.351103,1.047188 -1.053241,2.463347 C 49.5321,55.15685 48.181406,57.775029 46.182122,61.607 l -0.856917,1.606647 c -0.02774,0.05268 -0.05309,0.09995 -0.08054,0.151914 0.104207,-0.42964 0.203604,-1.020178 0.253859,-1.554674 0.07369,-0.783749 0.252671,-1.616941 0.397669,-1.851552 0.144992,-0.234618 0.385609,-1.225202 0.534769,-2.201295 0.149146,-0.976086 0.406819,-1.956033 0.572589,-2.177641 0.165757,-0.221601 0.423497,-1.037486 0.572793,-1.813104 0.319058,-1.657548 0.392716,-1.83818 2.825657,-6.936138 1.978252,-4.1452 3.560352,-5.827135 5.039722,-5.357598 1.423696,0.451853 3.948415,3.750264 4.491001,5.867338 0.281115,1.096835 0.643287,1.9942 0.804924,1.9942 0.613852,0 1.98169,-2.788711 2.197675,-4.480566 0.302084,-2.36639 -0.75372,-4.307759 -2.959136,-5.441334 -0.916189,-0.47091 -1.552439,-0.969492 -1.413945,-1.107993 0.462102,-0.462096 5.151739,-0.259168 7.382485,0.319474 1.211427,0.314247 2.254297,0.519696 2.317521,0.456472 0.0632,-0.0632 -0.60607,-1.027168 -1.487344,-2.142062 -1.598608,-2.022386 -3.525034,-3.317809 -4.933732,-3.317809 -1.307121,0 -0.801131,-0.67834 1.129305,-1.513971 1.86612,-0.807794 1.869645,-0.812987 0.906651,-1.353967 -0.587888,-0.330264 -2.257065,-0.545784 -4.259833,-0.550006 -3.620715,-0.0077 -4.77748,0.513902 -6.390389,2.881262 l -0.819199,1.202483 -0.961306,-1.521432 c -1.24538,-1.970845 -4.283974,-3.367791 -6.540492,-3.006958 -2.110399,0.337465 -4.887774,1.48543 -4.484612,1.853581 0.180672,0.164985 1.0085,0.517202 1.839526,0.782766 1.635082,0.522511 2.023486,1.226242 0.676878,1.226242 -1.140846,0 -4.094433,2.093508 -4.791733,3.396427 -0.491525,0.918424 -0.621423,0.975075 -0.938294,0.408855 -0.202285,-0.361456 -0.451108,-1.229591 -0.552985,-1.929112 -0.21906,-1.504104 -0.55852,-2.684354 -1.907595,-6.631894 -0.99886,-2.922771 -1.000342,-2.947793 -0.215718,-3.73241 0.784617,-0.784624 0.819444,-0.783141 5.187693,0.222852 4.728926,1.089059 11.065569,2.765268 12.211819,3.230349 1.163031,0.471894 0.921573,-0.738406 -0.0081,-2.310696 0.02159,0.0014 0.04346,0.002 0.06573,0.002 0.453951,0 0.933094,-0.111764 1.437491,-0.335135 0.50439,-0.23058 0.969212,-0.547567 1.394342,-0.951084 0.273811,-0.302632 0.464712,-0.536929 0.5728,-0.702658 0.237782,-0.353072 0.453986,-0.709682 0.648543,-1.069962 0.201752,-0.36028 0.464691,-0.875391 0.788942,-1.545511 0.32425,-0.670113 0.634132,-1.333161 0.929561,-1.988871 0.03601,-0.07926 0.165669,-0.367394 0.389039,-0.864582 0.223385,-0.497189 0.38919,-0.86478 0.497271,-1.102561 0.108088,-0.237788 0.270135,-0.594399 0.486304,-1.069968 h 0.04325 c 0.100866,1.30421 0.21619,2.410331 0.345897,3.318239 0.136902,0.900693 0.291843,1.6824 0.464781,2.345318 0.180133,0.655703 0.410658,1.300664 0.691684,1.934755 0.27381,0.598061 0.590908,1.087973 0.951187,1.469872 0.367475,0.37469 0.702562,0.562148 1.005193,0.562148 0.108082,0 0.237727,-0.02884 0.38904,-0.0865 0.158527,-0.06485 0.299037,-0.154968 0.421536,-0.270258 0.03601,-0.02883 0.07574,-0.06845 0.118986,-0.118884 0.04325,-0.05042 0.07198,-0.08285 0.08639,-0.09727 0.252192,-0.353071 0.789052,-1.379835 1.610491,-3.080355 0.2594,-0.533211 0.482717,-0.990824 0.670058,-1.372716 0.194557,-0.3819 0.443175,-0.864595 0.7458,-1.448248 0.302639,-0.583657 0.680889,-1.311412 1.134846,-2.183291 h 0.04329 c 0.0072,0.144111 0.03608,0.778195 0.0865,1.902272 0.03601,1.037602 0.108068,1.895003 0.216142,2.572325 0.108088,0.670119 0.270244,1.235835 0.486407,1.696987 0.223377,0.453957 0.522387,0.868175 0.89707,1.242866 0.734971,0.770992 1.552857,1.156567 2.453556,1.156567 0.641292,0 1.282489,-0.309881 1.923782,-0.929561 0.381898,-0.381892 0.572909,-0.684565 0.572909,-0.907936 0,-0.122492 -0.115317,-0.298969 -0.345896,-0.529549 -0.187349,-0.172938 -0.417873,-0.446748 -0.691685,-0.821439 -0.230579,-0.338661 -0.471982,-0.825019 -0.724174,-1.45911 -0.237788,-0.713351 -0.417928,-1.415921 -0.54042,-2.107653 -0.187341,-1.23936 -0.281019,-2.550813 -0.281019,-3.934284 0,-0.547628 0.02884,-1.469953 0.0865,-2.766958 0.01442,-0.223373 0.02159,-0.43226 0.02159,-0.62681 0,-0.252195 -0.05774,-0.414352 -0.173007,-0.486406 -0.108081,-0.07206 -0.374676,-0.108126 -0.799806,-0.108126 -0.821439,0 -1.491594,0.111766 -2.010394,0.335137 -0.18014,0.07206 -0.327865,0.144089 -0.443162,0.216145 -0.108081,0.07205 -0.205312,0.154856 -0.291774,0.24853 -0.08646,0.08651 -0.190903,0.209033 -0.313394,0.367558 -0.763791,1.152897 -1.995997,3.649608 -3.696517,7.490188 l -0.216142,0.486406 c -0.151319,-0.201758 -0.266643,-0.435946 -0.345897,-0.702556 -0.07927,-0.27381 -0.194571,-0.875486 -0.345896,-1.805007 0,-0.06485 -0.02159,-0.198144 -0.06485,-0.399903 0,-0.05767 -0.0034,-0.10448 -0.01073,-0.14051 -0.0072,-0.03601 -0.01442,-0.07565 -0.02159,-0.118883 -0.0072,-0.05042 -0.01797,-0.118816 -0.03239,-0.205285 -0.223362,-1.527565 -0.446788,-2.691292 -0.670159,-3.491112 -0.223371,-0.807024 -0.464781,-1.347434 -0.724174,-1.621247 -0.417928,-0.43954 -1.120381,-0.659408 -2.10755,-0.659408 -0.48998,0 -0.94404,0.07214 -1.361954,0.216252 -0.417929,0.136905 -0.626814,0.284634 -0.626814,0.443156 0,0.100878 0.08291,0.219751 0.248639,0.356655 0.216169,0.187347 0.324161,0.356607 0.324161,0.507925 0,0.136907 -0.212541,0.634141 -0.637671,1.491602 -0.42513,0.850259 -1.242907,2.435523 -2.453446,4.755723 l -0.518794,0.972704 c -0.192712,0.365985 -0.373159,0.70369 -0.542012,1.014576 -0.414929,-1.027531 -1.043717,-2.215024 -1.676427,-3.044567 -1.61403,-2.116137 -4.930814,-3.847008 -8.19338,-4.275705 l -2.35267,-0.30915 2.249235,-0.858613 c 1.237078,-0.472274 2.914209,-0.983428 3.726984,-1.135907 1.758913,-0.329974 1.833445,-0.655195 0.407037,-1.777203 C 46.911053,8.7452628 44.060649,7.9323653 41.893831,7.9613022 Z M 82.57618,15.426143 c -0.864659,0 -1.722064,0.198117 -2.572324,0.594426 -0.843054,0.389101 -1.617654,0.925953 -2.3238,1.610483 -0.69894,0.677329 -1.253774,1.433836 -1.664495,2.269686 -0.41072,0.83585 -0.616057,1.671713 -0.616057,2.507563 0,1.05922 0.288243,1.877099 0.86469,2.453548 0.432333,0.42513 1.015924,0.76742 1.750898,1.02682 0.742174,0.2594 1.487908,0.389148 2.237295,0.389148 0.770993,0 1.581666,-0.183795 2.431926,-0.551284 0.85746,-0.37469 1.588772,-0.853942 2.194047,-1.437593 0.468359,-0.46116 0.846722,-1.062726 1.13495,-1.804897 0.288227,-0.749381 0.432395,-1.505997 0.432395,-2.269795 0,-0.461154 -0.06131,-0.893464 -0.183763,-1.296976 -0.115287,-0.410719 -0.284659,-0.770992 -0.508032,-1.080832 -0.223374,-0.317042 -0.482758,-0.558445 -0.778184,-0.724174 -0.28822,-0.172932 -0.594453,-0.259393 -0.918699,-0.259393 -0.281012,0 -0.626964,0.07569 -1.037684,0.227005 -0.410728,0.151319 -0.781761,0.338668 -1.113221,0.562046 -0.295419,0.20896 -0.443155,0.363791 -0.443155,0.464671 0,0.07206 0.104448,0.190928 0.313408,0.356659 0.48998,0.367481 0.861121,0.821534 1.113322,1.361954 0.2594,0.533219 0.389138,1.106033 0.389138,1.718511 0,0.749381 -0.205429,1.405002 -0.61615,1.967033 -0.41072,0.562039 -0.889863,0.843065 -1.437482,0.843065 -0.590861,0 -1.070003,-0.23774 -1.437491,-0.71331 -0.367487,-0.482778 -0.55128,-1.116862 -0.55128,-1.902271 0,-0.713351 0.108102,-1.390612 0.324269,-2.031912 0.223373,-0.641293 0.52959,-1.217776 0.91869,-1.729375 0.396315,-0.511592 0.846599,-0.915151 1.350993,-1.210579 0.504386,-0.29543 1.048452,-0.461133 1.632114,-0.497168 0.482773,-0.02159 0.724175,-0.176553 0.724175,-0.464781 0,-0.252192 -0.536852,-0.378278 -1.610493,-0.378278 z m 12.019016,0 c -0.864674,0 -1.72218,0.198117 -2.57244,0.594426 -0.843054,0.389101 -1.617654,0.925953 -2.323801,1.610483 -0.69894,0.677329 -1.253774,1.433836 -1.664494,2.269686 -0.41072,0.83585 -0.616049,1.671713 -0.616049,2.507563 0,1.05922 0.288126,1.877099 0.864581,2.453548 0.432333,0.42513 1.016025,0.76742 1.750991,1.02682 0.742181,0.2594 1.488024,0.389148 2.237404,0.389148 0.771,0 1.581565,-0.183795 2.431821,-0.551284 0.857462,-0.37469 1.588878,-0.853942 2.194158,-1.437593 0.46837,-0.46116 0.84661,-1.062726 1.13484,-1.804897 0.28822,-0.749381 0.43229,-1.505997 0.43229,-2.269795 0,-0.461154 -0.0611,-0.893464 -0.18366,-1.296976 -0.11528,-0.410719 -0.28465,-0.770992 -0.50803,-1.080832 -0.22337,-0.317042 -0.48275,-0.558445 -0.77818,-0.724174 -0.28823,-0.172932 -0.59456,-0.259393 -0.91881,-0.259393 -0.28102,0 -0.626756,0.07569 -1.037468,0.227005 -0.410719,0.151319 -0.781875,0.338668 -1.113328,0.562046 -0.295426,0.20896 -0.443155,0.363791 -0.443155,0.464671 0,0.07206 0.10455,0.190928 0.31351,0.356659 0.48998,0.367481 0.861023,0.821534 1.113213,1.361954 0.25941,0.533219 0.38905,1.106033 0.38905,1.718511 0,0.749381 -0.20534,1.405002 -0.61605,1.967033 -0.410724,0.562039 -0.889875,0.843065 -1.437494,0.843065 -0.590861,0 -1.070004,-0.23774 -1.437483,-0.71331 -0.367487,-0.482778 -0.551288,-1.116862 -0.551288,-1.902271 0,-0.713351 0.108102,-1.390612 0.324277,-2.031912 0.223365,-0.641293 0.52959,-1.217776 0.918698,-1.729375 0.396306,-0.511592 0.846699,-0.915151 1.351085,-1.210579 0.504394,-0.29543 1.048355,-0.461133 1.632007,-0.497168 0.482776,-0.02159 0.724186,-0.176553 0.724186,-0.464781 0,-0.252192 -0.536756,-0.378278 -1.610381,-0.378278 z m -47.65034,5.301569 c 0.649635,0 4.089785,1.207117 5.861803,2.056844 0.13818,0.06628 0.272861,0.126571 0.405014,0.183761 -0.0901,0.145751 -0.17507,0.279659 -0.25034,0.391171 l -0.626916,0.972813 c -0.360273,0.533211 -0.594467,0.864629 -0.702549,0.994329 -0.07308,0.07579 -0.132371,0.146003 -0.178008,0.210601 -0.771204,-1.134334 -1.816164,-2.34499 -2.904691,-3.205417 -1.116158,-0.882271 -1.838078,-1.604102 -1.604313,-1.604102 z m 30.668511,8.271999 c -0.653299,0 -1.258534,0.09611 -1.81576,0.288262 -0.557234,0.182538 -0.835924,0.379548 -0.835924,0.590908 0,0.13451 0.110438,0.293004 0.331406,0.475542 0.288227,0.249793 0.432395,0.475549 0.432395,0.677308 0,0.182538 -0.283466,0.845374 -0.850304,1.988659 -0.566836,1.133677 -1.657207,3.247369 -3.271258,6.34096 l -0.691793,1.297084 c -1.047209,1.988741 -1.830138,3.367354 -2.348933,4.135942 l -0.835924,1.296981 c -0.480373,0.710953 -0.792591,1.152912 -0.936702,1.325843 -0.2594,0.269008 -0.389148,0.485108 -0.389148,0.64844 0,0.182538 0.08657,0.331486 0.259502,0.446776 0.172939,0.115289 0.374602,0.173 0.605182,0.173 0.60527,0 1.24413,-0.148949 1.916648,-0.446776 0.672525,-0.307435 1.292287,-0.730201 1.859129,-1.268216 0.365084,-0.403511 0.619585,-0.715729 0.763696,-0.936702 0.317041,-0.470766 0.60529,-0.946349 0.86469,-1.426729 0.269001,-0.480366 0.619735,-1.167281 1.052067,-2.060773 0.432331,-0.893497 0.845443,-1.777415 1.239347,-2.651693 0.04803,-0.105682 0.220958,-0.489932 0.518784,-1.15285 0.297834,-0.662912 0.518815,-1.152932 0.662929,-1.469974 0.144106,-0.317049 0.36021,-0.79253 0.64843,-1.426621 h 0.05775 c 0.134508,1.738948 0.288228,3.213671 0.461161,4.42421 0.182547,1.200927 0.389092,2.243236 0.619672,3.12712 0.240187,0.874284 0.547627,1.734226 0.922321,2.579682 0.36508,0.797415 0.787737,1.450706 1.268103,1.9599 0.48998,0.499587 0.936719,0.749422 1.340225,0.749422 0.144113,0 0.317147,-0.03854 0.518908,-0.115365 0.211359,-0.08647 0.398714,-0.206563 0.56204,-0.360281 0.048,-0.0384 0.100865,-0.09126 0.158512,-0.158514 0.05767,-0.06723 0.09605,-0.110534 0.115263,-0.129748 0.336253,-0.470766 1.052029,-1.839724 2.147283,-4.107079 0.345867,-0.710953 0.643654,-1.32106 0.893447,-1.830254 0.2594,-0.509194 0.590822,-1.15283 0.994328,-1.931031 0.403513,-0.778202 0.907961,-1.748589 1.513228,-2.911087 h 0.05767 c 0.0096,0.192153 0.04807,1.037561 0.115364,2.536322 0.04799,1.38347 0.144051,2.526783 0.288165,3.429881 0.144106,0.89349 0.360319,1.647667 0.648538,2.262544 0.297834,0.605263 0.69651,1.157667 1.196096,1.657255 0.979961,1.027994 2.070431,1.541992 3.271365,1.541992 0.855054,0 1.710016,-0.413111 2.565082,-1.239347 0.50919,-0.509194 0.76391,-0.912651 0.76391,-1.210478 0,-0.163325 -0.15373,-0.398735 -0.46116,-0.706177 -0.24979,-0.230573 -0.55734,-0.595622 -0.92243,-1.095209 -0.307426,-0.451552 -0.629188,-1.100169 -0.965458,-1.945626 -0.317039,-0.951133 -0.557225,-1.887786 -0.720552,-2.810098 -0.249793,-1.652478 -0.374764,-3.401019 -0.374764,-5.245643 0,-0.730166 0.03855,-1.959933 0.115372,-3.689274 0.0192,-0.297828 0.0288,-0.576524 0.0288,-0.835924 0,-0.336256 -0.07694,-0.552357 -0.230634,-0.648433 -0.144106,-0.09608 -0.499494,-0.144131 -1.066342,-0.144131 -1.095246,0 -1.988717,0.148948 -2.68045,0.446776 -0.240187,0.09608 -0.437086,0.192193 -0.590806,0.288262 -0.144106,0.09608 -0.27386,0.206515 -0.389146,0.331412 -0.115294,0.115289 -0.254686,0.278559 -0.41802,0.489918 -1.018387,1.537189 -2.661144,4.866224 -4.928513,9.986991 l -0.288265,0.648432 c -0.201753,-0.269007 -0.355481,-0.581116 -0.461161,-0.936592 -0.105679,-0.365084 -0.259407,-1.167425 -0.46116,-2.406785 0,-0.08647 -0.02872,-0.264163 -0.0864,-0.53317 0,-0.07686 -0.0046,-0.139349 -0.01432,-0.187384 -0.0096,-0.04803 -0.01935,-0.100872 -0.02895,-0.158514 -0.0096,-0.06723 -0.02392,-0.158384 -0.04312,-0.273667 -0.297834,-2.036782 -0.595722,-3.588415 -0.893548,-4.654845 -0.297834,-1.076028 -0.619711,-1.796581 -0.96557,-2.161664 -0.557234,-0.58605 -1.493883,-0.87917 -2.810103,-0.87917 z m 30.436283,5.216877 c -1.15289,0 -2.29608,0.264162 -3.42976,0.79257 -1.12407,0.518801 -2.15683,1.23457 -3.09836,2.147282 -0.93193,0.903098 -1.671783,1.911886 -2.219413,3.026349 -0.54762,1.114464 -0.82143,2.228914 -0.82143,3.343378 0,1.412291 0.38436,2.502766 1.15295,3.27136 0.576453,0.566842 1.354603,1.023123 2.334563,1.368992 0.98957,0.34587 1.98392,0.518897 2.98311,0.518897 1.02799,0 2.1088,-0.244956 3.24248,-0.734936 1.14328,-0.499587 2.11855,-1.138557 2.92556,-1.916758 0.62449,-0.61487 1.12883,-1.417108 1.51313,-2.406676 0.38429,-0.999173 0.57642,-2.007961 0.57642,-3.026349 0,-0.614877 -0.0817,-1.191353 -0.24502,-1.729375 -0.15371,-0.547621 -0.37946,-1.027878 -0.6773,-1.441003 -0.29782,-0.422724 -0.64377,-0.744591 -1.03768,-0.965563 -0.3843,-0.23058 -0.79253,-0.345897 -1.22486,-0.345897 -0.3747,0 -0.83586,0.100886 -1.38348,0.302645 -0.54762,0.201759 -1.04241,0.451594 -1.48436,0.749421 -0.3939,0.278615 -0.59089,0.485061 -0.59089,0.619571 0,0.09607 0.13938,0.254571 0.418,0.475536 0.6533,0.48998 1.14799,1.095318 1.48425,1.815878 0.34586,0.710946 0.51889,1.474675 0.51889,2.291304 0,0.999174 -0.27391,1.873444 -0.82154,2.622825 -0.54762,0.74938 -1.18648,1.124187 -1.91664,1.124187 -0.7878,0 -1.42666,-0.317097 -1.91664,-0.951187 -0.48998,-0.643698 -0.73494,-1.489113 -0.73494,-2.536322 0,-0.951133 0.14407,-1.854258 0.43229,-2.709321 0.29783,-0.855063 0.70617,-1.623672 1.22497,-2.305797 0.5284,-0.682124 1.12885,-1.220099 1.80137,-1.614002 0.67252,-0.393904 1.39794,-0.614884 2.17615,-0.662925 0.6437,-0.02884 0.96546,-0.235376 0.96546,-0.619674 0,-0.336263 -0.71577,-0.50441 -2.14728,-0.50441 z m 16.0252,0 c -1.15289,0 -2.2961,0.264162 -3.42978,0.79257 -1.12406,0.518801 -2.15682,1.23457 -3.09835,2.147282 -0.93192,0.903098 -1.67178,1.911886 -2.21941,3.026349 -0.54762,1.114464 -0.82143,2.228914 -0.82143,3.343378 0,1.412291 0.38436,2.502766 1.15295,3.27136 0.57645,0.566842 1.3546,1.023123 2.33455,1.368992 0.98957,0.34587 1.98393,0.518897 2.98311,0.518897 1.02798,0 2.10882,-0.244956 3.24249,-0.734936 1.14328,-0.499587 2.11845,-1.138557 2.92547,-1.916758 0.62448,-0.61487 1.12893,-1.417108 1.51322,-2.406676 0.38431,-0.999173 0.57643,-2.007961 0.57643,-3.026349 0,-0.614877 -0.0817,-1.191353 -0.24501,-1.729375 -0.15372,-0.547621 -0.37947,-1.027878 -0.67731,-1.441003 -0.29782,-0.422724 -0.64368,-0.744591 -1.03758,-0.965563 -0.3843,-0.23058 -0.79263,-0.345897 -1.22496,-0.345897 -0.37469,0 -0.83586,0.100886 -1.38348,0.302645 -0.54762,0.201759 -1.04242,0.451594 -1.48436,0.749421 -0.39391,0.278615 -0.5908,0.485061 -0.5908,0.619571 0,0.09607 0.13929,0.254571 0.4179,0.475536 0.65331,0.48998 1.14811,1.095318 1.48437,1.815878 0.34587,0.710946 0.51878,1.474675 0.51878,2.291304 0,0.999174 -0.27381,1.873444 -0.82143,2.622825 -0.54763,0.74938 -1.18659,1.124187 -1.91676,1.124187 -0.7878,0 -1.42667,-0.317097 -1.91665,-0.951187 -0.48998,-0.643698 -0.73493,-1.489113 -0.73493,-2.536322 0,-0.951133 0.14406,-1.854258 0.43229,-2.709321 0.29783,-0.855063 0.70617,-1.623672 1.22497,-2.305797 0.5284,-0.682124 1.12885,-1.220099 1.80138,-1.614002 0.67251,-0.393904 1.39784,-0.614884 2.17604,-0.662925 0.64369,-0.02884 0.96557,-0.235376 0.96557,-0.619674 0,-0.336263 -0.71577,-0.50441 -2.14728,-0.50441 z m -80.533029,3.734657 -1.278328,1.455912 c -1.525088,1.73698 -2.270963,4.203771 -1.912603,6.324883 l 0.260883,1.544227 2.285025,-2.319114 c 2.617631,-2.656551 6.329919,-4.739346 7.183923,-4.030586 0.43117,0.357841 0.112789,1.232322 -1.647778,4.526688 -1.809735,3.386383 -3.897456,8.405437 -4.212536,10.12707 -0.07895,0.431423 -0.585046,2.392334 -1.45581,5.640865 -0.856164,3.194053 -1.407782,5.779298 -2.076338,4.199964 -0.668548,-1.579339 -1.02479,-8.637546 -1.358654,-12.258369 -0.204328,-2.216068 -0.471552,-5.162515 -0.593784,-6.547735 -0.122232,-1.385227 -0.360041,-2.926447 -0.52838,-3.424872 -0.16834,-0.498432 -0.299789,-1.520845 -0.292102,-2.272029 0.01223,-1.19632 0.190778,-1.427419 1.438666,-1.862853 0.783558,-0.273415 2.046389,-0.633661 2.806264,-0.800551 z m 47.784882,17.282971 c -1.428062,0 -2.844179,0.32723 -4.248437,0.981757 -1.392361,0.642632 -2.671633,1.529242 -3.83788,2.65979 -1.154357,1.118653 -2.070833,2.368146 -2.749167,3.748611 -0.678325,1.380458 -1.017442,2.760916 -1.017442,4.141373 0,1.749381 0.47607,3.100171 1.428109,4.052212 0.714034,0.702132 1.677948,1.267403 2.891801,1.695819 1.22576,0.428416 2.457479,0.642686 3.695136,0.642686 1.273359,0 2.612051,-0.303465 4.016309,-0.910388 1.416164,-0.618833 2.624119,-1.410351 3.623767,-2.374296 0.773528,-0.761631 1.398338,-1.755216 1.874358,-2.980966 0.47602,-1.237658 0.71405,-2.487261 0.71405,-3.748719 0,-0.761631 -0.10119,-1.475734 -0.30349,-2.142164 -0.19042,-0.678334 -0.4701,-1.273265 -0.83902,-1.78498 -0.36892,-0.523625 -0.797336,-0.922278 -1.285248,-1.195993 -0.47603,-0.285611 -0.981768,-0.428451 -1.517288,-0.428451 -0.464125,0 -1.035386,0.124958 -1.713711,0.374868 -0.678334,0.249909 -1.291147,0.559367 -1.838566,0.928284 -0.487921,0.345111 -0.731955,0.60093 -0.731955,0.767535 0,0.119007 0.172608,0.315388 0.517732,0.589097 0.809233,0.60693 1.422047,1.356693 1.838557,2.249234 0.428424,0.880631 0.642679,1.826674 0.642679,2.838215 0,1.237652 -0.339109,2.320541 -1.017442,3.248784 -0.678326,0.928236 -1.469739,1.392422 -2.374186,1.392422 -0.975842,0 -1.767264,-0.39266 -2.374187,-1.178091 -0.606922,-0.797333 -0.910392,-1.844671 -0.910392,-3.141823 0,-1.178152 0.178615,-2.296688 0.535629,-3.355841 0.368919,-1.059145 0.874644,-2.011289 1.517276,-2.856226 0.65453,-0.84493 1.39819,-1.511285 2.231226,-1.999209 0.833037,-0.487923 1.731531,-0.76172 2.695475,-0.82122 0.797336,-0.03567 1.196096,-0.291515 1.196096,-0.767535 0,-0.416521 -0.886612,-0.624785 -2.659789,-0.624785 z m 10.853277,0.410556 c -0.46412,0 -0.90443,0.119075 -1.32095,0.357082 -0.46412,0.321312 -0.833,0.99955 -1.106713,2.034896 -0.26182,1.023444 -0.39267,2.284936 -0.39267,3.784401 0,1.082951 0.0713,2.207589 0.21412,3.373845 0.14281,1.154353 0.33919,2.29677 0.589103,3.427318 0.26181,1.130548 0.5474,2.094472 0.8568,2.891805 0.44033,1.261458 1.1782,1.892145 2.21354,1.892145 0.55933,0 1.24956,-0.351001 2.0707,-1.053125 0.82113,-0.702139 1.82669,-1.808895 3.01675,-3.320262 0.66643,-0.821139 1.29123,-1.636326 1.87435,-2.445562 0.59504,-0.821138 1.12453,-1.594775 1.58866,-2.320705 0.46412,-0.737833 0.8331,-1.392197 1.10683,-1.963419 0.22609,-0.428423 0.38672,-0.87483 0.48192,-1.338948 0.0952,-0.464125 0.14286,-1.017398 0.14286,-1.660022 0,-2.201597 -0.48796,-3.302367 -1.4638,-3.302367 -0.33322,0 -0.60102,0.101091 -0.80333,0.30339 -0.19041,0.202312 -0.43433,0.612847 -0.73184,1.231674 l -0.28561,0.553415 -0.37487,0.767638 c -0.63072,1.392367 -1.05914,2.344285 -1.28526,2.856015 -1.09484,2.415804 -1.83272,3.998635 -2.21353,4.748371 -0.1428,0.273709 -0.32729,0.666369 -0.55342,1.178091 h -0.0714 v -2.017104 -1.713612 -0.91049 c 0,-1.475659 -0.0236,-2.629972 -0.0713,-3.463006 -0.0357,-0.844938 -0.11911,-1.469735 -0.25002,-1.874361 -0.119,-0.416513 -0.3035,-0.749742 -0.55341,-0.999651 -0.2737,-0.333223 -0.65448,-0.583139 -1.1424,-0.749743 -0.47602,-0.178507 -0.98775,-0.267709 -1.53518,-0.267709 z m 22.98295,0.178547 c -1.54707,0 -3.16556,0.559265 -4.85544,1.67791 -1.36856,0.92825 -2.52297,2.088548 -3.46311,3.480909 -0.79734,1.190055 -1.43403,2.469428 -1.91004,3.837983 -0.46412,1.356666 -0.69606,2.576396 -0.69606,3.65934 0,1.416159 0.4462,2.552699 1.33873,3.409532 0.89255,0.844938 2.08261,1.267471 3.57018,1.267471 0.59502,0 1.27337,-0.113076 2.035,-0.339187 0.76164,-0.238014 1.52328,-0.553354 2.28492,-0.946076 0.76164,-0.404618 1.55294,-0.904567 2.37408,-1.499595 0.82113,-0.606923 1.54712,-1.225729 2.17785,-1.856457 0.34512,-0.345118 0.51762,-0.624805 0.51762,-0.839013 0,-0.202306 -0.15473,-0.398585 -0.46414,-0.588988 -0.30942,-0.190416 -0.64263,-0.285611 -0.99966,-0.285611 -0.28561,0 -0.84488,0.303465 -1.67792,0.910395 -1.42805,1.047244 -2.58836,1.570854 -3.48091,1.570854 -0.79732,0 -1.26151,-0.357102 -1.39242,-1.071137 0.27372,0.130903 0.54152,0.196443 0.80332,0.196443 0.58314,0 1.26148,-0.226042 2.03501,-0.678264 0.78544,-0.452222 1.58274,-1.08302 2.39197,-1.892255 0.98775,-0.963944 1.73162,-1.969623 2.23144,-3.016866 0.51172,-1.047249 0.76754,-2.052716 0.76754,-3.01666 0,-1.237652 -0.32134,-2.207568 -0.96398,-2.909706 -0.63072,-0.714028 -1.50534,-1.071022 -2.62398,-1.071022 z m -1.49949,2.606201 c 0.27371,0 0.41056,0.32723 0.41056,0.981757 0,0.702132 -0.0773,1.457785 -0.23202,2.26702 -0.15471,0.809237 -0.36897,1.541118 -0.64269,2.195646 -0.34511,0.999645 -0.83307,1.886255 -1.46379,2.65979 -0.28561,0.368916 -0.70215,0.737799 -1.24957,1.106715 -0.0952,-0.464118 -0.14275,-0.821118 -0.14275,-1.071028 0,-0.725937 0.14284,-1.588666 0.42845,-2.588305 0.29752,-1.011548 0.67829,-2.023117 1.1424,-3.034665 0.78543,-1.677971 1.36859,-2.51693 1.74941,-2.51693 z"
       id="path943"
       inkscape:connector-curvature="0"
       inkscape:export-xdpi="1000"
       inkscape:export-ydpi="1000" />
    <g
       style="stroke-width:5.0713625"
       id="g5240"
       transform="matrix(0.19718566,0,0,0.19718566,76.739858,51.940422)"
       inkscape:export-xdpi="1000"
       inkscape:export-ydpi="1000">
      <path
         id="circle4898"
         transform="scale(0.26458333)"
         d="m 208.68555,-151.22266 c -0.99566,-0.001 -1.99096,0.0145 -2.98828,0.0488 -31.05449,-0.0936 -51.35881,27.83719 -74.5586,42.47461 C 75.638041,-110.44944 40.770162,-59.416229 0.85546875,-29.564453 -30.767489,-4.5413532 -60.952588,39.339249 -42.416016,80.447266 c 10.43086,9.680299 -7.179673,19.774964 -8.164062,31.240234 -59.562132,143.81297 24.792528,331.71424 176.951168,373.57617 138.88374,44.27883 310.05428,-35.15215 351.61329,-178.22851 25.38481,-74.13927 15.4687,-157.48298 -16.46094,-227.207035 17.17769,-49.744901 -16.61526,-102.852512 -60.34375,-125.65625 -31.22354,-29.604903 -66.93764,-66.903345 -113.89063,-63.593755 -17.85382,-24.8654 -47.73825,-41.7673 -78.60351,-41.80078 z m 2.9414,87.585941 61.98633,61.9843752 23.54492,-23.5449222 45.78321,45.785157 3.74609,-3.71875 33.98828,33.746093 -17.73242,17.607422 v 20.396485 c -0.75369,-0.124401 -1.50631,-0.23693 -2.25977,-0.359375 a 196.47466,196.47466 0 0 1 12.73633,16.548824 196.47466,196.47466 0 0 1 0.23633,0.33008 196.47466,196.47466 0 0 1 9.58008,15.56445 196.47466,196.47466 0 0 1 0.89062,1.55274 196.47466,196.47466 0 0 1 7.38086,15.21289 196.47466,196.47466 0 0 1 1.28516,2.86914 196.47466,196.47466 0 0 1 5.30664,14.46094 196.47466,196.47466 0 0 1 1.49219,4.48828 196.47466,196.47466 0 0 1 3.43554,13.35937 196.47466,196.47466 0 0 1 1.38672,6.17774 196.47466,196.47466 0 0 1 1.84375,12.0625 196.47466,196.47466 0 0 1 0.95508,7.85547 196.47466,196.47466 0 0 1 0.88867,17.16601 196.47466,196.47466 0 0 1 -0.55273,11.02539 196.47466,196.47466 0 0 1 -0.7793,10.90039 196.47466,196.47466 0 0 1 -1.10937,7.34571 196.47466,196.47466 0 0 1 -2.14258,12.375 196.47466,196.47466 0 0 1 -1.4336,5.61328 196.47466,196.47466 0 0 1 -3.79882,13.65625 196.47466,196.47466 0 0 1 -1.45704,3.98633 196.47466,196.47466 0 0 1 -5.69921,14.63672 196.47466,196.47466 0 0 1 -1.20313,2.49023 196.47466,196.47466 0 0 1 -7.79687,15.29688 196.47466,196.47466 0 0 1 -0.71485,1.16601 196.47466,196.47466 0 0 1 -10.03906,15.61523 196.47466,196.47466 0 0 1 -58.32031,53.93165 196.47466,196.47466 0 0 1 -0.38867,0.22461 196.47466,196.47466 0 0 1 -7.16602,4.11132 196.47466,196.47466 0 0 1 -15.78711,7.66211 196.47466,196.47466 0 0 1 -2.36523,1.0586 196.47466,196.47466 0 0 1 -14.94141,5.48632 196.47466,196.47466 0 0 1 -4.00781,1.33204 196.47466,196.47466 0 0 1 -13.77735,3.54687 196.47466,196.47466 0 0 1 -5.80664,1.30274 196.47466,196.47466 0 0 1 -12.32226,1.88671 196.47466,196.47466 0 0 1 -7.65039,0.92969 196.47466,196.47466 0 0 1 -17.21485,0.89453 196.47466,196.47466 0 0 1 -13.25781,-0.66406 196.47466,196.47466 0 0 1 -11.51172,-1.09766 196.47466,196.47466 0 0 1 -6.95312,-1.05078 196.47466,196.47466 0 0 1 -13.19532,-2.60547 196.47466,196.47466 0 0 1 -4.99023,-1.27539 196.47466,196.47466 0 0 1 -14.63281,-4.44726 196.47466,196.47466 0 0 1 -3.14844,-1.14844 196.47466,196.47466 0 0 1 -15.75391,-6.57031 196.47466,196.47466 0 0 1 -1.45117,-0.70117 196.47466,196.47466 0 0 1 -10.83398,-5.43165 196.47466,196.47466 0 0 1 -5.41797,-3.32226 196.47466,196.47466 0 0 1 -0.25,-0.1543 196.47466,196.47466 0 0 1 -12.298829,-7.94531 196.47466,196.47466 0 0 1 -3.132813,-2.38086 196.47466,196.47466 0 0 1 -12.447266,-9.92578 196.47466,196.47466 0 0 1 -2.189453,-2.04102 196.47466,196.47466 0 0 1 -12.066406,-11.77539 196.47466,196.47466 0 0 1 -1.355469,-1.54297 196.47466,196.47466 0 0 1 -11.416015,-13.61914 196.47466,196.47466 0 0 1 -0.732422,-1.02148 196.47466,196.47466 0 0 1 -10.425781,-15.31836 196.47466,196.47466 0 0 1 -0.304688,-0.53125 196.47466,196.47466 0 0 1 -9.148437,-16.8418 196.47466,196.47466 0 0 0 -0.002,-0.002 196.47466,196.47466 0 0 1 -19.558594,-85.06055 196.47466,196.47466 0 0 1 2.435547,-29.23242 196.47466,196.47466 0 0 1 44.623047,-98.257811 c -0.43403,0.06858 -0.868771,0.132031 -1.302735,0.201172 V 68.816406 L 42.578125,50.615234 76.566406,16.869141 l 3.746094,3.71875 45.7832,-45.785157 23.54492,23.5449222 z"
         style="opacity:1;fill:url(#radialGradient1009);fill-opacity:1;stroke:none;stroke-width:14.37551689;stroke-miterlimit:4;stroke-dasharray:none;stroke-dashoffset:0"
         inkscape:connector-curvature="0" />
      <g
         style="stroke-width:5.0713625"
         id="g4896">
        <circle
           style="opacity:1;fill:#ffffff;fill-opacity:1;stroke:#000000;stroke-width:3.80352235;stroke-miterlimit:4;stroke-dasharray:none;stroke-dashoffset:0"
           id="path4523"
           cx="55.99297"
           cy="57.125591"
           r="51.983921" />
        <path
           inkscape:connector-curvature="0"
           style="opacity:1;fill:#000000;fill-opacity:1;stroke:#000000;stroke-width:3.80352235;stroke-miterlimit:4;stroke-dasharray:none;stroke-dashoffset:0"
           d="M 26.621094,14.300991 A 51.98392,51.98392 0 0 0 4.6534444,49.391355 20.713386,20.713386 0 0 0 15.902369,52.715699 20.713386,20.713386 0 0 0 36.615833,32.002235 20.713386,20.713386 0 0 0 26.621094,14.300991 Z m 61.232438,7.652244 A 42.362217,29.666917 33.203979 0 0 65.448698,32.724672 42.362217,29.666917 33.203979 0 0 84.648042,80.746027 42.362217,29.666917 33.203979 0 0 98.259616,87.316687 51.98392,51.98392 0 0 0 107.97685,57.125766 51.98392,51.98392 0 0 0 94.584905,22.388867 42.362217,29.666917 33.203979 0 0 87.853532,21.953235 Z M 16.121994,68.190207 A 25.043617,10.249862 80.431733 0 0 9.8412408,76.037788 25.043617,10.249862 80.431733 0 0 9.1839153,79.631367 51.98392,51.98392 0 0 0 30.664774,102.49716 25.043617,10.249862 80.431733 0 0 24.332345,74.854399 25.043617,10.249862 80.431733 0 0 16.121994,68.190207 Z"
           id="path4525" />
        <path
           style="opacity:1;fill:#ffff00;fill-opacity:1;stroke:#000000;stroke-width:3.80352235;stroke-miterlimit:4;stroke-dasharray:none;stroke-dashoffset:0"
           d="m 72.135396,44.891369 a 7.0719388,8.9490565 0 0 0 -7.07192,8.948809 7.0719388,8.9490565 0 0 0 7.07192,8.949325 7.0719388,8.9490565 0 0 0 7.071915,-8.949325 7.0719388,8.9490565 0 0 0 -7.071915,-8.948809 z m -32.284852,0.617017 a 7.0719388,8.9490565 0 0 0 -7.071918,8.948808 7.0719388,8.9490565 0 0 0 7.071918,8.949325 7.0719388,8.9490565 0 0 0 7.071921,-8.949325 7.0719388,8.9490565 0 0 0 -7.071921,-8.948808 z"
           id="path4553"
           inkscape:connector-curvature="0" />
        <path
           inkscape:connector-curvature="0"
           style="opacity:1;fill:#ff00ff;fill-opacity:1;stroke:#000000;stroke-width:3.80352235;stroke-miterlimit:4;stroke-dasharray:none;stroke-dashoffset:0"
           d="M 55.992945,89.064384 A 27.662396,16.437076 0 0 0 29.165127,101.57732 51.98392,51.98392 0 0 0 55.992945,109.10967 51.98392,51.98392 0 0 0 82.829032,101.5861 27.662396,16.437076 0 0 0 55.992945,89.064384 Z"
           id="path4571" />
        <path
           style="opacity:1;fill:#ffffff;fill-opacity:1;stroke:#000000;stroke-width:3.80352235;stroke-miterlimit:4;stroke-dasharray:none;stroke-dashoffset:0"
           d="m 49.352291,91.803746 a 1.0233345,4.5435818 0 0 0 -1.023194,4.5434 1.0233345,4.5435818 0 0 0 1.023194,4.543914 1.0233345,4.5435818 0 0 0 1.02371,-4.543914 1.0233345,4.5435818 0 0 0 -1.02371,-4.5434 z m 13.280843,0 a 1.0233345,4.5435818 0 0 0 -1.023192,4.5434 1.0233345,4.5435818 0 0 0 1.023192,4.543914 1.0233345,4.5435818 0 0 0 1.02371,-4.543914 1.0233345,4.5435818 0 0 0 -1.02371,-4.5434 z"
           id="path4596"
           inkscape:connector-curvature="0" />
        <path
           style="opacity:1;fill:#ffff00;fill-opacity:1;stroke:#000000;stroke-width:3.80352235;stroke-miterlimit:4;stroke-dasharray:none;stroke-dashoffset:0"
           d="m 16.115381,9.305378 h 79.91359 v 14.141823 c -27.176217,-4.485562 -53.768908,-4.165469 -79.91359,0 z"
           id="rect4617"
           inkscape:connector-curvature="0"
           sodipodi:nodetypes="ccccc" />
        <g
           style="stroke-width:5.0713625"
           id="g4866"
           transform="translate(0,1.5875)">
          <rect
             transform="matrix(0.70962399,0.70458058,-0.70962399,0.70458058,0,0)"
             y="-62.590633"
             x="66.67202"
             height="12.672592"
             width="12.672592"
             id="rect4619-4"
             style="opacity:1;fill:#ffff00;fill-opacity:1;stroke:#000000;stroke-width:3.80357075;stroke-miterlimit:4;stroke-dasharray:none;stroke-dashoffset:0" />
          <rect
             transform="matrix(0.70962399,0.70458058,-0.70962399,0.70458058,0,0)"
             y="-12.233104"
             x="16.314493"
             height="12.672592"
             width="12.672592"
             id="rect4619-4-8"
             style="opacity:1;fill:#ffff00;fill-opacity:1;stroke:#000000;stroke-width:3.80357075;stroke-miterlimit:4;stroke-dasharray:none;stroke-dashoffset:0" />
          <rect
             transform="matrix(0.36119457,0.93249047,-0.36119457,0.93249047,0,0)"
             y="-122.21883"
             x="131.73814"
             height="3.1398437"
             width="3.1398437"
             id="rect4698-5-5"
             style="opacity:1;fill:#ff0000;fill-opacity:1;stroke:#000000;stroke-width:4.63423586;stroke-miterlimit:4;stroke-dasharray:none;stroke-dashoffset:0" />
          <rect
             transform="matrix(0.36119457,0.93249047,-0.36119457,0.93249047,0,0)"
             y="-23.283487"
             x="32.802788"
             height="3.1398439"
             width="3.1398439"
             id="rect4698-5-5-0"
             style="opacity:1;fill:#ff0000;fill-opacity:1;stroke:#000000;stroke-width:4.63423538;stroke-miterlimit:4;stroke-dasharray:none;stroke-dashoffset:0" />
        </g>
        <g
           style="stroke-width:5.0713625"
           id="g4860">
          <g
             style="stroke-width:5.0713625"
             transform="translate(0,-0.32196416)"
             id="g4834">
            <rect
               style="opacity:1;fill:#ffff00;fill-opacity:1;stroke:#000000;stroke-width:3.80352235;stroke-miterlimit:4;stroke-dasharray:none;stroke-dashoffset:0"
               id="rect4619-6-8"
               width="19.546701"
               height="19.546701"
               x="19.104797"
               y="-28.077637"
               transform="rotate(45)" />
            <rect
               style="opacity:1;fill:#ff0000;fill-opacity:1;stroke:#000000;stroke-width:4.46933079;stroke-miterlimit:4;stroke-dasharray:none;stroke-dashoffset:0"
               id="rect4698"
               width="4.9940476"
               height="4.9940476"
               x="43.910095"
               y="-40.769295"
               transform="matrix(0.39399219,0.91911379,-0.39399219,0.91911379,0,0)" />
          </g>
          <g
             style="stroke-width:5.0713625"
             transform="translate(0,0.32196416)"
             id="g4838">
            <rect
               style="opacity:1;fill:#ffff00;fill-opacity:1;stroke:#000000;stroke-width:3.80352235;stroke-miterlimit:4;stroke-dasharray:none;stroke-dashoffset:0"
               id="rect4619-6"
               width="19.546701"
               height="19.546701"
               x="50.653053"
               y="-60.536545"
               transform="rotate(45)" />
            <rect
               style="opacity:1;fill:#ff0000;fill-opacity:1;stroke:#000000;stroke-width:4.46933079;stroke-miterlimit:4;stroke-dasharray:none;stroke-dashoffset:0"
               id="rect4698-5"
               width="4.9940476"
               height="4.9940476"
               x="100.99735"
               y="-98.557159"
               transform="matrix(0.39399218,0.91911379,-0.39399218,0.91911379,0,0)" />
          </g>
        </g>
        <g
           style="stroke-width:5.0713625"
           id="g4830"
           transform="translate(0,-0.52916667)">
          <rect
             transform="rotate(45)"
             y="-51.124401"
             x="28.06163"
             height="26.190769"
             width="26.190769"
             id="rect4619-62"
             style="opacity:1;fill:#ffff00;fill-opacity:1;stroke:#000000;stroke-width:3.80352235;stroke-miterlimit:4;stroke-dasharray:none;stroke-dashoffset:0" />
          <rect
             style="opacity:1;fill:#ff0000;fill-opacity:1;stroke:#000000;stroke-width:4.46933079;stroke-miterlimit:4;stroke-dasharray:none;stroke-dashoffset:0"
             id="rect4696"
             width="8.6524382"
             height="8.6524382"
             x="67.935509"
             y="-74.181473"
             transform="matrix(0.39399219,0.91911379,-0.39399219,0.91911379,0,0)" />
        </g>
        <g
           id="g4825"
           style="fill:#ffffff;stroke-width:5.0713625">
          <g
             transform="translate(0.00885732,0.52916663)"
             id="g4813"
             style="fill:#ffffff;stroke-width:5.0713625">
            <rect
               style="opacity:1;fill:#ffffff;fill-opacity:1;stroke:#000000;stroke-width:4.03588724;stroke-miterlimit:4;stroke-dasharray:none;stroke-dashoffset:0"
               id="rect4698-5-5-5"
               width="2.1816049"
               height="2.1816049"
               x="71.783234"
               y="-57.360985"
               transform="matrix(0.5198442,0.85426109,-0.5198442,0.85426109,0,0)" />
            <rect
               style="opacity:1;fill:#ffffff;fill-opacity:1;stroke:#000000;stroke-width:4.03588724;stroke-miterlimit:4;stroke-dasharray:none;stroke-dashoffset:0"
               id="rect4698-5-5-5-1"
               width="2.1816049"
               height="2.1816049"
               x="50.485405"
               y="-36.063148"
               transform="matrix(0.51984421,0.85426108,-0.51984421,0.85426108,0,0)" />
          </g>
          <g
             transform="translate(0.2734382)"
             id="g4817"
             style="fill:#ffffff;stroke-width:5.0713625">
            <rect
               style="opacity:1;fill:#ffffff;fill-opacity:1;stroke:#000000;stroke-width:4.03588724;stroke-miterlimit:4;stroke-dasharray:none;stroke-dashoffset:0"
               id="rect4698-5-5-5-3"
               width="2.1816049"
               height="2.1816049"
               x="35.847576"
               y="-15.230865"
               transform="matrix(0.51984421,0.85426108,-0.51984421,0.85426108,0,0)" />
            <rect
               style="opacity:1;fill:#ffffff;fill-opacity:1;stroke:#000000;stroke-width:4.03588724;stroke-miterlimit:4;stroke-dasharray:none;stroke-dashoffset:0"
               id="rect4698-5-5-5-2"
               width="2.1816049"
               height="2.1816049"
               x="92.10656"
               y="-71.489845"
               transform="matrix(0.51984421,0.85426108,-0.51984421,0.85426108,0,0)" />
          </g>
        </g>
      </g>
    </g>
    <path
       style="opacity:1;fill:#ffffff;fill-opacity:1;stroke:#000000;stroke-width:0.75;stroke-miterlimit:4;stroke-dasharray:none;stroke-dashoffset:0;stroke-opacity:1"
       d="m 71.385551,12.215046 a 2.9293153,3.3545385 0 0 0 -2.929535,3.354834 2.9293153,3.3545385 0 0 0 2.929535,3.354317 2.9293153,3.3545385 0 0 0 0.723471,-0.108521 c -0.130815,-1.055443 -0.200504,-2.157946 -0.200504,-3.314009 0,-0.547628 0.02864,-1.46975 0.0863,-2.766756 0.01008,-0.156156 0.01196,-0.296168 0.01499,-0.438216 a 2.9293153,3.3545385 0 0 0 -0.624257,-0.08165 z m -55.255023,1.870687 c -1.660736,0.368928 -2.575916,0.809616 -4.312915,1.976106 -0.508692,0.341614 -1.055617,0.89267 -1.568897,1.519287 a 3.4490326,3.6380208 0 0 0 2.597775,1.248503 3.4490326,3.6380208 0 0 0 3.448885,-3.638021 3.4490326,3.6380208 0 0 0 -0.164848,-1.105875 z m 26.906885,0.869714 a 5.1971725,1.6536457 0 0 0 -5.197618,1.653646 5.1971725,1.6536457 0 0 0 5.197618,1.653645 5.1971725,1.6536457 0 0 0 5.197097,-1.653645 5.1971725,1.6536457 0 0 0 -5.197097,-1.653646 z m 39.538671,0.470772 c -0.04344,0 -0.08682,0.0026 -0.130225,0.0036 a 5.5751486,5.5751486 0 0 0 0.107487,1.014408 c 0.291904,-0.09498 0.594008,-0.155737 0.908989,-0.175183 0.482772,-0.02159 0.724504,-0.176343 0.724504,-0.464571 0,-0.252192 -0.537115,-0.378272 -1.610755,-0.378272 z m 11.00863,0.09198 c -0.52329,0.09435 -1.044249,0.260886 -1.562179,0.502295 -0.843055,0.389101 -1.617226,0.926224 -2.323373,1.610754 -0.698939,0.677329 -1.253778,1.433779 -1.664499,2.269629 -0.162978,0.331675 -0.292372,0.663095 -0.390673,0.994772 a 5.5751486,5.5751486 0 0 0 0.372589,0.01292 5.5751486,5.5751486 0 0 0 3.613732,-1.331702 c 0.218588,-0.588625 0.505952,-1.123666 0.868164,-1.599902 0.237263,-0.306283 0.49603,-0.569065 0.772046,-0.797884 a 5.5751486,5.5751486 0 0 0 0.314193,-1.660882 z m -9.527585,1.334802 c -0.281011,0 -0.626943,0.07554 -1.037661,0.22686 -0.08732,0.03217 -0.172064,0.06689 -0.255799,0.102319 a 5.5751486,5.5751486 0 0 0 3.662825,3.490743 c 0.01161,-0.15267 0.01912,-0.305638 0.01912,-0.458886 0,-0.461154 -0.061,-0.89305 -0.183452,-1.296562 -0.115285,-0.410715 -0.285121,-0.771227 -0.508495,-1.081067 -0.223375,-0.317042 -0.482304,-0.558258 -0.77773,-0.723987 -0.288221,-0.172932 -0.594561,-0.259416 -0.918808,-0.259416 z m -23.444046,2.543518 a 3.7797618,3.9687499 0 0 0 -1.141532,0.186552 c 0.01677,0.127968 0.03336,0.261471 0.05064,0.382406 0.136903,0.900693 0.291634,1.682675 0.464571,2.345593 0.180134,0.655703 0.410406,1.300675 0.69143,1.934766 0.273812,0.598061 0.591085,1.087778 0.951365,1.469678 0.367475,0.374689 0.702474,0.562239 1.005105,0.562239 0.108082,0 0.237812,-0.02916 0.389125,-0.08682 0.158528,-0.06485 0.29918,-0.154978 0.42168,-0.270268 0.03601,-0.02883 0.07561,-0.06842 0.118856,-0.118856 0.04325,-0.05042 0.07189,-0.08273 0.0863,-0.09715 0.08391,-0.117466 0.211198,-0.337487 0.358116,-0.604097 a 3.7797618,3.9687499 0 0 0 0.383959,-1.735293 3.7797618,3.9687499 0 0 0 -3.779615,-3.96875 z m -23.8125,1.701189 a 4.6302085,3.3072914 0 0 0 -4.630208,3.307291 4.6302085,3.3072914 0 0 0 2.001427,2.717664 c -0.368961,-1.23804 -0.222207,-1.407671 0.35967,-1.989543 0.784616,-0.784624 0.819547,-0.783267 5.187796,0.222726 0.435645,0.100327 0.894755,0.209956 1.352373,0.318843 a 4.6302085,3.3072914 0 0 0 0.359151,-1.26969 4.6302085,3.3072914 0 0 0 -4.630209,-3.307291 z m -13.559895,6.236311 a 4.1104907,3.5907736 0 0 0 -4.110344,3.590996 4.1104907,3.5907736 0 0 0 1.005624,2.34921 c 0.728147,-2.149389 2.109774,-4.364373 3.595646,-5.910233 a 4.1104907,3.5907736 0 0 0 -0.490926,-0.02997 z m 36.144046,6.992856 a 2.8348215,3.9215028 0 0 0 -2.834968,3.921207 2.8348215,3.9215028 0 0 0 2.834968,3.921725 2.8348215,3.9215028 0 0 0 2.248442,-1.537374 c -0.447469,-0.471012 -0.999683,-0.881319 -1.656747,-1.219047 -0.916188,-0.470911 -1.552879,-0.969444 -1.414383,-1.107942 0.262157,-0.262155 1.890475,-0.304814 3.653007,-0.19172 a 2.8348215,3.9215028 0 0 0 -2.830319,-3.786849 z m -11.859223,0.188619 a 2.126116,2.1733631 0 0 0 -2.125969,2.173509 2.126116,2.1733631 0 0 0 2.125969,2.173513 2.126116,2.1733631 0 0 0 2.126485,-2.173513 2.126116,2.1733631 0 0 0 -2.126485,-2.173509 z m 46.318101,0.821137 a 6.0003718,5.2916663 0 0 0 -2.803446,4.470529 6.0003718,5.2916663 0 0 0 5.442561,5.263761 c -0.178488,-0.203605 -0.375306,-0.45013 -0.595828,-0.751893 -0.307428,-0.451551 -0.629563,-1.100161 -0.965833,-1.945616 -0.317039,-0.951135 -0.557043,-1.887852 -0.72037,-2.810166 -0.203182,-1.344123 -0.319151,-2.755368 -0.357084,-4.226615 z m 33.207278,1.012859 a 3.4962798,3.543527 0 0 0 -2.27635,3.316076 3.4962798,3.543527 0 0 0 3.49642,3.543453 3.4962798,3.543527 0 0 0 0.55036,-0.04857 c 0.27414,-0.846431 0.41289,-1.699397 0.41289,-2.559534 0,-0.614878 -0.0816,-1.191588 -0.24494,-1.72961 -0.15372,-0.547621 -0.37964,-1.027615 -0.67748,-1.440738 -0.29782,-0.422725 -0.64376,-0.744863 -1.03766,-0.965833 -0.0733,-0.04397 -0.14821,-0.07965 -0.22324,-0.115239 z m -25.10441,0.415478 c -0.1435,0.126579 -0.28529,0.256484 -0.42478,0.391708 -0.93193,0.903097 -1.671875,1.911709 -2.219507,3.026171 -0.547619,1.114465 -0.821655,2.229001 -0.821655,3.343466 0,0.500475 0.05075,0.958564 0.147277,1.378209 a 6.0003718,5.2916663 0 0 0 4.413165,-5.097362 6.0003718,5.2916663 0 0 0 -1.0945,-3.042192 z m -23.143293,3.325894 a 4.6774554,4.2522319 0 0 0 -1.48518,0.224277 c 0.180763,1.180963 0.384825,2.209237 0.612364,3.081465 0.240189,0.874283 0.54773,1.734232 0.922425,2.579687 0.36508,0.797417 0.787773,1.450377 1.26814,1.95957 0.136729,0.139412 0.269462,0.257607 0.399458,0.358119 A 4.6774554,4.2522319 0 0 0 83.48042,44.343317 4.6774554,4.2522319 0 0 0 78.803187,40.090862 Z M 38.584454,50.201875 a 10.394345,3.7797618 48.93408 0 0 -1.147217,0.383955 10.394345,3.7797618 48.93408 0 0 2.34456,8.253759 c -0.168188,-2.060247 -0.312846,-4.165655 -0.45217,-5.676656 -0.09117,-0.988849 -0.167349,-1.845686 -0.265099,-2.921786 a 10.394345,3.7797618 48.93408 0 0 -0.480074,-0.03927 z m 34.549313,0.09457 a 4.0159969,4.5829611 0 0 0 -4.016293,4.582665 4.0159969,4.5829611 0 0 0 4.016293,4.583184 4.0159969,4.5829611 0 0 0 0.745688,-0.08217 c -0.113554,-1.296808 -0.171564,-2.636787 -0.171564,-4.020944 0,-0.904436 0.0479,-2.427656 0.143143,-4.569746 0.0092,-0.142081 0.01452,-0.277358 0.02016,-0.412377 a 4.0159969,4.5829611 0 0 0 -0.737423,-0.08062 z m -15.288474,0.856792 a 4.7247024,4.6302085 0 0 0 -3.752226,4.528923 4.7247024,4.6302085 0 0 0 4.724776,4.630208 4.7247024,4.6302085 0 0 0 0.891937,-0.08578 c -0.03053,-0.181591 -0.05375,-0.29406 -0.0863,-0.494027 0,-0.107104 -0.0356,-0.32721 -0.106971,-0.660424 0,-0.09521 -0.0059,-0.172527 -0.01757,-0.232029 -0.01189,-0.05951 -0.02376,-0.124965 -0.03565,-0.196368 -0.01189,-0.08331 -0.0299,-0.196192 -0.05374,-0.338998 C 59.040617,55.781831 58.671547,53.859633 58.30263,52.538683 58.154969,52.005195 58.002505,51.54563 57.845293,51.153237 Z M 44.813532,53.5965 c -0.294881,0.828974 -0.509649,1.527061 -0.593246,1.983856 -0.07895,0.431425 -0.584962,2.392469 -1.455725,5.640999 -0.08499,0.317053 -0.155733,0.582091 -0.23513,0.883669 a 10.394345,3.7797618 48.93408 0 0 5.888014,4.231782 c 0.128659,-0.259228 0.245494,-0.489196 0.388607,-0.784965 0.535527,-1.106742 1.04739,-2.201604 1.535306,-3.284554 0.03769,-0.0829 0.244951,-0.544589 0.406693,-0.904338 a 10.394345,3.7797618 48.93408 0 0 -2.407605,-3.911388 c -0.619408,1.198018 -1.299816,2.509441 -2.158524,4.155302 l -0.856795,1.606619 c -0.02774,0.05268 -0.05316,0.09997 -0.08062,0.151929 0.104208,-0.429641 0.203993,-1.019931 0.254248,-1.554427 0.07369,-0.783749 0.252394,-1.616956 0.397391,-1.851567 0.144992,-0.234617 0.385691,-1.225323 0.534853,-2.201415 0.127283,-0.833004 0.333237,-1.664452 0.494024,-2.029333 A 10.394345,3.7797618 48.93408 0 0 44.813532,53.5965 Z m 59.078048,5.676654 a 2.6458332,1.8898808 0 0 0 -2.64583,1.889807 2.6458332,1.8898808 0 0 0 2.64583,1.889808 2.6458332,1.8898808 0 0 0 1.83658,-0.532268 c -0.005,-1.110109 -0.0222,-2.04807 -0.0568,-2.752804 a 2.6458332,1.8898808 0 0 0 -1.77974,-0.494543 z m 11.68559,3.963067 c -0.23899,0.514127 -0.4543,1.041757 -0.64286,1.583883 -0.46412,1.356664 -0.69608,2.576263 -0.69608,3.659208 0,1.416159 0.44641,2.552777 1.33894,3.409609 0.82032,0.776568 1.89494,1.191858 3.21789,1.254704 a 5.3861607,6.0948662 0 0 0 1.2547,-3.901569 5.3861607,6.0948662 0 0 0 -4.47259,-6.005835 z m -3.61529,0.740005 a 5.3861607,6.0948662 0 0 0 -2.46186,3.546038 c 0.23602,-0.312261 0.4713,-0.624319 0.69504,-0.934828 0.59504,-0.821137 1.12441,-1.594858 1.58854,-2.320788 0.0626,-0.09958 0.11911,-0.193876 0.17828,-0.290422 z m -51.537932,2.195216 a 3.2127975,3.1655506 0 0 0 -3.212724,3.165181 3.2127975,3.1655506 0 0 0 2.637049,3.113506 c 0.02681,-0.02775 0.05032,-0.04553 0.07906,-0.07907 0.0714,-0.08331 0.118822,-0.136908 0.142629,-0.160713 0.415986,-0.582374 1.301424,-2.275673 2.655133,-5.077727 a 3.2127975,3.1655506 0 0 0 -2.30115,-0.961181 z"
       id="path1122"
       inkscape:connector-curvature="0"
       inkscape:export-xdpi="1000"
       inkscape:export-ydpi="1000" />
  </g>
</svg>
