<?xml version="1.0" encoding="UTF-8" standalone="no"?>
<!-- Created with Inkscape (http://www.inkscape.org/) -->

<svg
   xmlns:dc="http://purl.org/dc/elements/1.1/"
   xmlns:cc="http://creativecommons.org/ns#"
   xmlns:rdf="http://www.w3.org/1999/02/22-rdf-syntax-ns#"
   xmlns:svg="http://www.w3.org/2000/svg"
   xmlns="http://www.w3.org/2000/svg"
   xmlns:xlink="http://www.w3.org/1999/xlink"
   xmlns:sodipodi="http://sodipodi.sourceforge.net/DTD/sodipodi-0.dtd"
   xmlns:inkscape="http://www.inkscape.org/namespaces/inkscape"
   width="210mm"
   height="297mm"
   viewBox="0 0 210 297"
   version="1.1"
   id="svg8"
   inkscape:version="0.92.4 (5da689c313, 2019-01-14)"
   sodipodi:docname="KingCow.svg">
  <defs
     id="defs2">
    <linearGradient
       inkscape:collect="always"
       id="linearGradient5206">
      <stop
         style="stop-color:#ffff00;stop-opacity:1;"
         offset="0"
         id="stop5202" />
      <stop
         style="stop-color:#ffff00;stop-opacity:0;"
         offset="1"
         id="stop5204" />
    </linearGradient>
    <radialGradient
       inkscape:collect="always"
       xlink:href="#linearGradient5206"
       id="radialGradient5208"
       cx="211.27251"
       cy="173.15433"
       fx="211.27251"
       fy="173.15433"
       r="282.51465"
       gradientTransform="matrix(0.98924181,-0.00788936,0.0091569,1.1481776,0.68735039,-23.990783)"
       gradientUnits="userSpaceOnUse" />
  </defs>
  <sodipodi:namedview
     id="base"
     pagecolor="#ffffff"
     bordercolor="#666666"
     borderopacity="1.0"
     inkscape:pageopacity="0.0"
     inkscape:pageshadow="2"
     inkscape:zoom="0.98994949"
     inkscape:cx="36.686445"
     inkscape:cy="818.13677"
     inkscape:document-units="mm"
     inkscape:current-layer="layer1"
     showgrid="false"
     inkscape:window-width="1920"
     inkscape:window-height="1001"
     inkscape:window-x="-9"
     inkscape:window-y="-9"
     inkscape:window-maximized="1"
     showguides="false" />
  <metadata
     id="metadata5">
    <rdf:RDF>
      <cc:Work
         rdf:about="">
        <dc:format>image/svg+xml</dc:format>
        <dc:type
           rdf:resource="http://purl.org/dc/dcmitype/StillImage" />
        <dc:title></dc:title>
      </cc:Work>
    </rdf:RDF>
  </metadata>
  <g
     inkscape:label="Layer 1"
     inkscape:groupmode="layer"
     id="layer1">
    <g
       id="g5240"
       transform="translate(21.381561,40.624969)">
      <path
         id="circle4898"
         transform="scale(0.26458333)"
         d="m 208.68555,-151.22266 c -0.99566,-0.001 -1.99096,0.0145 -2.98828,0.0488 -31.05449,-0.0936 -51.35881,27.83719 -74.5586,42.47461 C 75.638041,-110.44944 40.770162,-59.416229 0.85546875,-29.564453 -30.767489,-4.5413532 -60.952588,39.339249 -42.416016,80.447266 c 10.43086,9.680299 -7.179673,19.774964 -8.164062,31.240234 -59.562132,143.81297 24.792528,331.71424 176.951168,373.57617 138.88374,44.27883 310.05428,-35.15215 351.61329,-178.22851 25.38481,-74.13927 15.4687,-157.48298 -16.46094,-227.207035 17.17769,-49.744901 -16.61526,-102.852512 -60.34375,-125.65625 -31.22354,-29.604903 -66.93764,-66.903345 -113.89063,-63.593755 -17.85382,-24.8654 -47.73825,-41.7673 -78.60351,-41.80078 z m 2.9414,87.585941 61.98633,61.9843752 23.54492,-23.5449222 45.78321,45.785157 3.74609,-3.71875 33.98828,33.746093 -17.73242,17.607422 v 20.396485 c -0.75369,-0.124401 -1.50631,-0.23693 -2.25977,-0.359375 a 196.47466,196.47466 0 0 1 12.73633,16.548824 196.47466,196.47466 0 0 1 0.23633,0.33008 196.47466,196.47466 0 0 1 9.58008,15.56445 196.47466,196.47466 0 0 1 0.89062,1.55274 196.47466,196.47466 0 0 1 7.38086,15.21289 196.47466,196.47466 0 0 1 1.28516,2.86914 196.47466,196.47466 0 0 1 5.30664,14.46094 196.47466,196.47466 0 0 1 1.49219,4.48828 196.47466,196.47466 0 0 1 3.43554,13.35937 196.47466,196.47466 0 0 1 1.38672,6.17774 196.47466,196.47466 0 0 1 1.84375,12.0625 196.47466,196.47466 0 0 1 0.95508,7.85547 196.47466,196.47466 0 0 1 0.88867,17.16601 196.47466,196.47466 0 0 1 -0.55273,11.02539 196.47466,196.47466 0 0 1 -0.7793,10.90039 196.47466,196.47466 0 0 1 -1.10937,7.34571 196.47466,196.47466 0 0 1 -2.14258,12.375 196.47466,196.47466 0 0 1 -1.4336,5.61328 196.47466,196.47466 0 0 1 -3.79882,13.65625 196.47466,196.47466 0 0 1 -1.45704,3.98633 196.47466,196.47466 0 0 1 -5.69921,14.63672 196.47466,196.47466 0 0 1 -1.20313,2.49023 196.47466,196.47466 0 0 1 -7.79687,15.29688 196.47466,196.47466 0 0 1 -0.71485,1.16601 196.47466,196.47466 0 0 1 -10.03906,15.61523 196.47466,196.47466 0 0 1 -58.32031,53.93165 196.47466,196.47466 0 0 1 -0.38867,0.22461 196.47466,196.47466 0 0 1 -7.16602,4.11132 196.47466,196.47466 0 0 1 -15.78711,7.66211 196.47466,196.47466 0 0 1 -2.36523,1.0586 196.47466,196.47466 0 0 1 -14.94141,5.48632 196.47466,196.47466 0 0 1 -4.00781,1.33204 196.47466,196.47466 0 0 1 -13.77735,3.54687 196.47466,196.47466 0 0 1 -5.80664,1.30274 196.47466,196.47466 0 0 1 -12.32226,1.88671 196.47466,196.47466 0 0 1 -7.65039,0.92969 196.47466,196.47466 0 0 1 -17.21485,0.89453 196.47466,196.47466 0 0 1 -13.25781,-0.66406 196.47466,196.47466 0 0 1 -11.51172,-1.09766 196.47466,196.47466 0 0 1 -6.95312,-1.05078 196.47466,196.47466 0 0 1 -13.19532,-2.60547 196.47466,196.47466 0 0 1 -4.99023,-1.27539 196.47466,196.47466 0 0 1 -14.63281,-4.44726 196.47466,196.47466 0 0 1 -3.14844,-1.14844 196.47466,196.47466 0 0 1 -15.75391,-6.57031 196.47466,196.47466 0 0 1 -1.45117,-0.70117 196.47466,196.47466 0 0 1 -10.83398,-5.43165 196.47466,196.47466 0 0 1 -5.41797,-3.32226 196.47466,196.47466 0 0 1 -0.25,-0.1543 196.47466,196.47466 0 0 1 -12.298829,-7.94531 196.47466,196.47466 0 0 1 -3.132813,-2.38086 196.47466,196.47466 0 0 1 -12.447266,-9.92578 196.47466,196.47466 0 0 1 -2.189453,-2.04102 196.47466,196.47466 0 0 1 -12.066406,-11.77539 196.47466,196.47466 0 0 1 -1.355469,-1.54297 196.47466,196.47466 0 0 1 -11.416015,-13.61914 196.47466,196.47466 0 0 1 -0.732422,-1.02148 196.47466,196.47466 0 0 1 -10.425781,-15.31836 196.47466,196.47466 0 0 1 -0.304688,-0.53125 196.47466,196.47466 0 0 1 -9.148437,-16.8418 196.47466,196.47466 0 0 0 -0.002,-0.002 196.47466,196.47466 0 0 1 -19.558594,-85.06055 196.47466,196.47466 0 0 1 2.435547,-29.23242 196.47466,196.47466 0 0 1 44.623047,-98.257811 c -0.43403,0.06858 -0.868771,0.132031 -1.302735,0.201172 V 68.816406 L 42.578125,50.615234 76.566406,16.869141 l 3.746094,3.71875 45.7832,-45.785157 23.54492,23.5449222 z"
         style="opacity:1;fill:url(#radialGradient5208);fill-opacity:1;stroke:none;stroke-width:2.83464575;stroke-miterlimit:4;stroke-dasharray:none;stroke-dashoffset:0"
         inkscape:connector-curvature="0" />
      <g
         id="g4896">
        <circle
           style="opacity:1;fill:#ffffff;fill-opacity:1;stroke:#000000;stroke-width:0.75;stroke-miterlimit:4;stroke-dasharray:none;stroke-dashoffset:0"
           id="path4523"
           cx="55.99297"
           cy="57.125591"
           r="51.983921" />
        <path
           inkscape:connector-curvature="0"
           style="opacity:1;fill:#000000;fill-opacity:1;stroke:#000000;stroke-width:0.75;stroke-miterlimit:4;stroke-dasharray:none;stroke-dashoffset:0"
           d="M 26.621094,14.300991 A 51.98392,51.98392 0 0 0 4.6534444,49.391355 20.713386,20.713386 0 0 0 15.902369,52.715699 20.713386,20.713386 0 0 0 36.615833,32.002235 20.713386,20.713386 0 0 0 26.621094,14.300991 Z m 61.232438,7.652244 A 42.362217,29.666917 33.203979 0 0 65.448698,32.724672 42.362217,29.666917 33.203979 0 0 84.648042,80.746027 42.362217,29.666917 33.203979 0 0 98.259616,87.316687 51.98392,51.98392 0 0 0 107.97685,57.125766 51.98392,51.98392 0 0 0 94.584905,22.388867 42.362217,29.666917 33.203979 0 0 87.853532,21.953235 Z M 16.121994,68.190207 A 25.043617,10.249862 80.431733 0 0 9.8412408,76.037788 25.043617,10.249862 80.431733 0 0 9.1839153,79.631367 51.98392,51.98392 0 0 0 30.664774,102.49716 25.043617,10.249862 80.431733 0 0 24.332345,74.854399 25.043617,10.249862 80.431733 0 0 16.121994,68.190207 Z"
           id="path4525" />
        <path
           style="opacity:1;fill:#ffff00;fill-opacity:1;stroke:#000000;stroke-width:0.75;stroke-miterlimit:4;stroke-dasharray:none;stroke-dashoffset:0"
           d="m 72.135396,44.891369 a 7.0719388,8.9490565 0 0 0 -7.07192,8.948809 7.0719388,8.9490565 0 0 0 7.07192,8.949325 7.0719388,8.9490565 0 0 0 7.071915,-8.949325 7.0719388,8.9490565 0 0 0 -7.071915,-8.948809 z m -32.284852,0.617017 a 7.0719388,8.9490565 0 0 0 -7.071918,8.948808 7.0719388,8.9490565 0 0 0 7.071918,8.949325 7.0719388,8.9490565 0 0 0 7.071921,-8.949325 7.0719388,8.9490565 0 0 0 -7.071921,-8.948808 z"
           id="path4553"
           inkscape:connector-curvature="0" />
        <path
           inkscape:connector-curvature="0"
           style="opacity:1;fill:#ff00ff;fill-opacity:1;stroke:#000000;stroke-width:0.75;stroke-miterlimit:4;stroke-dasharray:none;stroke-dashoffset:0"
           d="M 55.992945,89.064384 A 27.662396,16.437076 0 0 0 29.165127,101.57732 51.98392,51.98392 0 0 0 55.992945,109.10967 51.98392,51.98392 0 0 0 82.829032,101.5861 27.662396,16.437076 0 0 0 55.992945,89.064384 Z"
           id="path4571" />
        <path
           style="opacity:1;fill:#ffffff;fill-opacity:1;stroke:#000000;stroke-width:0.75;stroke-miterlimit:4;stroke-dasharray:none;stroke-dashoffset:0"
           d="m 49.352291,91.803746 a 1.0233345,4.5435818 0 0 0 -1.023194,4.5434 1.0233345,4.5435818 0 0 0 1.023194,4.543914 1.0233345,4.5435818 0 0 0 1.02371,-4.543914 1.0233345,4.5435818 0 0 0 -1.02371,-4.5434 z m 13.280843,0 a 1.0233345,4.5435818 0 0 0 -1.023192,4.5434 1.0233345,4.5435818 0 0 0 1.023192,4.543914 1.0233345,4.5435818 0 0 0 1.02371,-4.543914 1.0233345,4.5435818 0 0 0 -1.02371,-4.5434 z"
           id="path4596"
           inkscape:connector-curvature="0" />
        <path
           style="opacity:1;fill:#ffff00;fill-opacity:1;stroke:#000000;stroke-width:0.75;stroke-miterlimit:4;stroke-dasharray:none;stroke-dashoffset:0"
           d="m 16.115381,9.305378 h 79.91359 v 14.141823 c -27.176217,-4.485562 -53.768908,-4.165469 -79.91359,0 z"
           id="rect4617"
           inkscape:connector-curvature="0"
           sodipodi:nodetypes="ccccc" />
        <g
           id="g4866"
           transform="translate(0,1.5875)">
          <rect
             transform="matrix(0.70962399,0.70458058,-0.70962399,0.70458058,0,0)"
             y="-62.590633"
             x="66.67202"
             height="12.672592"
             width="12.672592"
             id="rect4619-4"
             style="opacity:1;fill:#ffff00;fill-opacity:1;stroke:#000000;stroke-width:0.75000954;stroke-miterlimit:4;stroke-dasharray:none;stroke-dashoffset:0" />
          <rect
             transform="matrix(0.70962399,0.70458058,-0.70962399,0.70458058,0,0)"
             y="-12.233104"
             x="16.314493"
             height="12.672592"
             width="12.672592"
             id="rect4619-4-8"
             style="opacity:1;fill:#ffff00;fill-opacity:1;stroke:#000000;stroke-width:0.75000954;stroke-miterlimit:4;stroke-dasharray:none;stroke-dashoffset:0" />
          <rect
             transform="matrix(0.36119457,0.93249047,-0.36119457,0.93249047,0,0)"
             y="-122.21883"
             x="131.73814"
             height="3.1398437"
             width="3.1398437"
             id="rect4698-5-5"
             style="opacity:1;fill:#ff0000;fill-opacity:1;stroke:#000000;stroke-width:0.91380483;stroke-miterlimit:4;stroke-dasharray:none;stroke-dashoffset:0" />
          <rect
             transform="matrix(0.36119457,0.93249047,-0.36119457,0.93249047,0,0)"
             y="-23.283487"
             x="32.802788"
             height="3.1398439"
             width="3.1398439"
             id="rect4698-5-5-0"
             style="opacity:1;fill:#ff0000;fill-opacity:1;stroke:#000000;stroke-width:0.91380477;stroke-miterlimit:4;stroke-dasharray:none;stroke-dashoffset:0" />
        </g>
        <g
           id="g4860">
          <g
             transform="translate(0,-0.32196416)"
             id="g4834">
            <rect
               style="opacity:1;fill:#ffff00;fill-opacity:1;stroke:#000000;stroke-width:0.75;stroke-miterlimit:4;stroke-dasharray:none;stroke-dashoffset:0"
               id="rect4619-6-8"
               width="19.546701"
               height="19.546701"
               x="19.104797"
               y="-28.077637"
               transform="rotate(45)" />
            <rect
               style="opacity:1;fill:#ff0000;fill-opacity:1;stroke:#000000;stroke-width:0.88128787;stroke-miterlimit:4;stroke-dasharray:none;stroke-dashoffset:0"
               id="rect4698"
               width="4.9940476"
               height="4.9940476"
               x="43.910095"
               y="-40.769295"
               transform="matrix(0.39399219,0.91911379,-0.39399219,0.91911379,0,0)" />
          </g>
          <g
             transform="translate(0,0.32196416)"
             id="g4838">
            <rect
               style="opacity:1;fill:#ffff00;fill-opacity:1;stroke:#000000;stroke-width:0.75;stroke-miterlimit:4;stroke-dasharray:none;stroke-dashoffset:0"
               id="rect4619-6"
               width="19.546701"
               height="19.546701"
               x="50.653053"
               y="-60.536545"
               transform="rotate(45)" />
            <rect
               style="opacity:1;fill:#ff0000;fill-opacity:1;stroke:#000000;stroke-width:0.88128787;stroke-miterlimit:4;stroke-dasharray:none;stroke-dashoffset:0"
               id="rect4698-5"
               width="4.9940476"
               height="4.9940476"
               x="100.99735"
               y="-98.557159"
               transform="matrix(0.39399218,0.91911379,-0.39399218,0.91911379,0,0)" />
          </g>
        </g>
        <g
           id="g4830"
           transform="translate(0,-0.52916667)">
          <rect
             transform="rotate(45)"
             y="-51.124401"
             x="28.06163"
             height="26.190769"
             width="26.190769"
             id="rect4619-62"
             style="opacity:1;fill:#ffff00;fill-opacity:1;stroke:#000000;stroke-width:0.75;stroke-miterlimit:4;stroke-dasharray:none;stroke-dashoffset:0" />
          <rect
             style="opacity:1;fill:#ff0000;fill-opacity:1;stroke:#000000;stroke-width:0.88128787;stroke-miterlimit:4;stroke-dasharray:none;stroke-dashoffset:0"
             id="rect4696"
             width="8.6524382"
             height="8.6524382"
             x="67.935509"
             y="-74.181473"
             transform="matrix(0.39399219,0.91911379,-0.39399219,0.91911379,0,0)" />
        </g>
        <g
           id="g4825"
           style="fill:#ffffff">
          <g
             transform="translate(0.00885732,0.52916663)"
             id="g4813"
             style="fill:#ffffff">
            <rect
               style="opacity:1;fill:#ffffff;fill-opacity:1;stroke:#000000;stroke-width:0.79581904;stroke-miterlimit:4;stroke-dasharray:none;stroke-dashoffset:0"
               id="rect4698-5-5-5"
               width="2.1816049"
               height="2.1816049"
               x="71.783234"
               y="-57.360985"
               transform="matrix(0.5198442,0.85426109,-0.5198442,0.85426109,0,0)" />
            <rect
               style="opacity:1;fill:#ffffff;fill-opacity:1;stroke:#000000;stroke-width:0.79581898;stroke-miterlimit:4;stroke-dasharray:none;stroke-dashoffset:0"
               id="rect4698-5-5-5-1"
               width="2.1816049"
               height="2.1816049"
               x="50.485405"
               y="-36.063148"
               transform="matrix(0.51984421,0.85426108,-0.51984421,0.85426108,0,0)" />
          </g>
          <g
             transform="translate(0.2734382)"
             id="g4817"
             style="fill:#ffffff">
            <rect
               style="opacity:1;fill:#ffffff;fill-opacity:1;stroke:#000000;stroke-width:0.79581898;stroke-miterlimit:4;stroke-dasharray:none;stroke-dashoffset:0"
               id="rect4698-5-5-5-3"
               width="2.1816049"
               height="2.1816049"
               x="35.847576"
               y="-15.230865"
               transform="matrix(0.51984421,0.85426108,-0.51984421,0.85426108,0,0)" />
            <rect
               style="opacity:1;fill:#ffffff;fill-opacity:1;stroke:#000000;stroke-width:0.79581898;stroke-miterlimit:4;stroke-dasharray:none;stroke-dashoffset:0"
               id="rect4698-5-5-5-2"
               width="2.1816049"
               height="2.1816049"
               x="92.10656"
               y="-71.489845"
               transform="matrix(0.51984421,0.85426108,-0.51984421,0.85426108,0,0)" />
          </g>
        </g>
      </g>
    </g>
  </g>
</svg>
