<?xml version="1.0" encoding="UTF-8" standalone="no"?>
<!-- Created with Inkscape (http://www.inkscape.org/) -->

<svg
   xmlns:dc="http://purl.org/dc/elements/1.1/"
   xmlns:cc="http://creativecommons.org/ns#"
   xmlns:rdf="http://www.w3.org/1999/02/22-rdf-syntax-ns#"
   xmlns:svg="http://www.w3.org/2000/svg"
   xmlns="http://www.w3.org/2000/svg"
   xmlns:xlink="http://www.w3.org/1999/xlink"
   xmlns:sodipodi="http://sodipodi.sourceforge.net/DTD/sodipodi-0.dtd"
   xmlns:inkscape="http://www.inkscape.org/namespaces/inkscape"
   width="210mm"
   height="297mm"
   viewBox="0 0 210 297"
   version="1.1"
   id="svg8"
   inkscape:version="0.92.4 (5da689c313, 2019-01-14)"
   sodipodi:docname="UFO.svg">
  <defs
     id="defs2">
    <linearGradient
       inkscape:collect="always"
       id="linearGradient828">
      <stop
         style="stop-color:#000000;stop-opacity:1"
         offset="0"
         id="stop824" />
      <stop
         style="stop-color:#ffffff;stop-opacity:1"
         offset="1"
         id="stop826" />
    </linearGradient>
    <radialGradient
       inkscape:collect="always"
       xlink:href="#linearGradient828"
       id="radialGradient830"
       cx="88.135742"
       cy="114.63965"
       fx="88.135742"
       fy="114.63965"
       r="72.885098"
       gradientTransform="matrix(0.49979693,0.02890973,-0.0202266,0.34968135,-16.626862,-18.985234)"
       gradientUnits="userSpaceOnUse" />
  </defs>
  <sodipodi:namedview
     id="base"
     pagecolor="#ffffff"
     bordercolor="#666666"
     borderopacity="1.0"
     inkscape:pageopacity="0.0"
     inkscape:pageshadow="2"
     inkscape:zoom="3.959798"
     inkscape:cx="97.804957"
     inkscape:cy="1029.4856"
     inkscape:document-units="mm"
     inkscape:current-layer="layer1"
     showgrid="false"
     inkscape:window-width="1920"
     inkscape:window-height="1001"
     inkscape:window-x="-9"
     inkscape:window-y="-9"
     inkscape:window-maximized="1" />
  <metadata
     id="metadata5">
    <rdf:RDF>
      <cc:Work
         rdf:about="">
        <dc:format>image/svg+xml</dc:format>
        <dc:type
           rdf:resource="http://purl.org/dc/dcmitype/StillImage" />
        <dc:title />
      </cc:Work>
    </rdf:RDF>
  </metadata>
  <g
     inkscape:label="Layer 1"
     inkscape:groupmode="layer"
     id="layer1">
    <g
       id="g1012"
       transform="rotate(-180,25.104343,23.650093)">
      <path
         inkscape:connector-curvature="0"
         id="path10"
         d="M 25.104598,4.7409078 A 18.909319,18.909319 0 0 0 6.1951582,23.650347 18.909319,18.909319 0 0 0 25.104598,42.559271 18.909319,18.909319 0 0 0 44.013523,23.650347 18.909319,18.909319 0 0 0 25.104598,4.7409078 Z m 0,9.7554772 a 9.153981,9.153981 0 0 1 9.153965,9.153962 9.153981,9.153981 0 0 1 -9.153965,9.153964 9.153981,9.153981 0 0 1 -9.153963,-9.153964 9.153981,9.153981 0 0 1 9.153963,-9.153962 z"
         style="opacity:0.71600001;fill:url(#radialGradient830);fill-opacity:1;stroke:#000000;stroke-width:0.75;stroke-miterlimit:4;stroke-dasharray:none;stroke-dashoffset:0" />
      <path
         inkscape:connector-curvature="0"
         id="path12"
         d="m 25.10434,14.496126 a 9.153981,9.153981 0 0 0 -9.153963,9.153962 9.153981,9.153981 0 0 0 9.153963,9.153964 9.153981,9.153981 0 0 0 9.153964,-9.153964 9.153981,9.153981 0 0 0 -9.153964,-9.153962 z m 0,2.071192 a 7.0826425,7.0826425 0 0 1 7.082256,7.08277 7.0826425,7.0826425 0 0 1 -7.082256,7.082255 7.0826425,7.0826425 0 0 1 -7.082772,-7.082255 7.0826425,7.0826425 0 0 1 7.082772,-7.08277 z"
         style="opacity:1;fill:#b3b3b3;fill-opacity:1;stroke:#808000;stroke-width:0.75;stroke-miterlimit:4;stroke-dasharray:none;stroke-dashoffset:0" />
      <circle
         r="7.0826426"
         cy="23.650089"
         cx="25.10434"
         id="path14"
         style="opacity:1;fill:#4d4d4d;fill-opacity:1;stroke:#800000;stroke-width:0.75;stroke-miterlimit:4;stroke-dasharray:none;stroke-dashoffset:0" />
      <path
         inkscape:connector-curvature="0"
         id="path835"
         d="m 25.104597,15.080743 a 0.53040321,0.53040321 0 0 0 -0.530712,0.5302 0.53040321,0.53040321 0 0 0 0.530712,0.530202 0.53040321,0.53040321 0 0 0 0.530201,-0.530202 0.53040321,0.53040321 0 0 0 -0.530201,-0.5302 z m -5.692728,2.354622 a 0.53040321,0.53040321 0 0 0 -0.36714,0.154856 0.53040321,0.53040321 0 0 0 0,0.750177 0.53040321,0.53040321 0 0 0 0.750177,0 0.53040321,0.53040321 0 0 0 0,-0.750177 0.53040321,0.53040321 0 0 0 -0.383037,-0.154856 z m 11.369049,0 a 0.53040321,0.53040321 0 0 0 -0.367652,0.154856 0.53040321,0.53040321 0 0 0 5.12e-4,0.750177 0.53040321,0.53040321 0 0 0 0.749664,0 0.53040321,0.53040321 0 0 0 0,-0.749664 0.53040321,0.53040321 0 0 0 -0.382524,-0.155369 z m -13.715467,5.68401 a 0.53040321,0.53040321 0 0 0 -0.530199,0.530715 0.53040321,0.53040321 0 0 0 0.530199,0.5302 0.53040321,0.53040321 0 0 0 0.530201,-0.5302 0.53040321,0.53040321 0 0 0 -0.530201,-0.530715 z m 16.077779,0 a 0.53040321,0.53040321 0 0 0 -0.530199,0.530715 0.53040321,0.53040321 0 0 0 0.530199,0.5302 0.53040321,0.53040321 0 0 0 0.5302,-0.5302 0.53040321,0.53040321 0 0 0 -0.5302,-0.530715 z m -13.731361,5.684526 a 0.53040321,0.53040321 0 0 0 -0.36714,0.155367 0.53040321,0.53040321 0 0 0 0,0.750178 0.53040321,0.53040321 0 0 0 0.750177,0 0.53040321,0.53040321 0 0 0 0,-0.749663 0.53040321,0.53040321 0 0 0 -0.383037,-0.155882 z m 11.368535,0 a 0.53040321,0.53040321 0 0 0 -0.366626,0.155367 0.53040321,0.53040321 0 0 0 -5.12e-4,0.750178 0.53040321,0.53040321 0 0 0 0.750688,0 0.53040321,0.53040321 0 0 0 -5.12e-4,-0.750178 0.53040321,0.53040321 0 0 0 -0.383038,-0.155367 z m -5.675807,2.354622 a 0.53040321,0.53040321 0 0 0 -0.530712,0.5302 0.53040321,0.53040321 0 0 0 0.530712,0.530712 0.53040321,0.53040321 0 0 0 0.530201,-0.530712 0.53040321,0.53040321 0 0 0 -0.530201,-0.5302 z"
         style="opacity:1;fill:#808080;fill-opacity:1;stroke:none;stroke-width:0.75;stroke-miterlimit:4;stroke-dasharray:none;stroke-dashoffset:0" />
      <path
         inkscape:connector-curvature="0"
         id="path918"
         d="m 25.101241,24.506538 a 6.9689355,6.9216888 0 0 0 -5.834269,3.146062 7.0826425,7.0826425 0 0 0 5.834269,3.079914 7.0826425,7.0826425 0 0 0 5.840471,-3.076813 6.9689355,6.9216888 0 0 0 -5.840471,-3.149163 z"
         style="opacity:1;fill:#999999;fill-opacity:1;stroke:#000000;stroke-width:0.75;stroke-miterlimit:4;stroke-dasharray:none;stroke-dashoffset:0" />
      <ellipse
         ry="2.03793"
         rx="1.3707398"
         cy="27.598047"
         cx="25.10434"
         id="path923"
         style="opacity:1;fill:#ff0000;fill-opacity:1;stroke:#000000;stroke-width:0.75;stroke-miterlimit:4;stroke-dasharray:none;stroke-dashoffset:0" />
      <ellipse
         ry="0.43431297"
         rx="0.42540196"
         cy="28.215616"
         cx="25.10434"
         id="path925"
         style="opacity:1;fill:#000000;fill-opacity:1;stroke:#000000;stroke-width:0.75;stroke-miterlimit:4;stroke-dasharray:none;stroke-dashoffset:0" />
      <path
         inkscape:connector-curvature="0"
         id="path935"
         d="M 25.10461,4.7408203 A 18.909319,18.909319 0 0 0 6.1951705,23.650259 18.909319,18.909319 0 0 0 25.10461,42.559183 18.909319,18.909319 0 0 0 44.013534,23.650259 18.909319,18.909319 0 0 0 25.10461,4.7408203 Z m 0,2.1383706 A 16.771147,16.771147 0 0 1 41.875164,23.650259 16.771147,16.771147 0 0 1 25.10461,40.421328 16.771147,16.771147 0 0 1 8.3335412,23.650259 16.771147,16.771147 0 0 1 25.10461,6.8791909 Z"
         style="opacity:1;fill:#808080;fill-opacity:1;stroke:#241f1c;stroke-width:0.75;stroke-miterlimit:4;stroke-dasharray:none;stroke-dashoffset:0" />
      <path
         style="opacity:1;fill:#e6e6e6;fill-opacity:1;stroke:#241f1c;stroke-width:0.75;stroke-miterlimit:4;stroke-dasharray:none;stroke-dashoffset:0;stroke-opacity:1"
         d="M 25.105,1.6741293 A 1.3602113,1.3602113 0 0 0 23.743997,3.033819 1.3602113,1.3602113 0 0 0 25.105,4.3935148 1.3602113,1.3602113 0 0 0 26.464693,3.033819 1.3602113,1.3602113 0 0 0 25.105,1.6741293 Z M 10.506082,7.7125228 a 1.3602113,1.3602113 0 0 0 -0.9415252,0.397126 1.3602113,1.3602113 0 0 0 0,1.9238162 1.3602113,1.3602113 0 0 0 1.9238162,0 1.3602113,1.3602113 0 0 0 0,-1.9238162 1.3602113,1.3602113 0 0 0 -0.982291,-0.397126 z m 29.155762,0 a 1.3602113,1.3602113 0 0 0 -0.942839,0.397126 1.3602113,1.3602113 0 0 0 0.0012,1.9238162 1.3602113,1.3602113 0 0 0 1.922503,0 1.3602113,1.3602113 0 0 0 0,-1.9225012 1.3602113,1.3602113 0 0 0 -0.980976,-0.398441 z M 4.4887267,22.289084 a 1.3602113,1.3602113 0 0 0 -1.3596876,1.36101 1.3602113,1.3602113 0 0 0 1.3596876,1.359691 1.3602113,1.3602113 0 0 0 1.3596927,-1.359691 1.3602113,1.3602113 0 0 0 -1.3596927,-1.36101 z m 41.2312303,0 a 1.3602113,1.3602113 0 0 0 -1.359688,1.36101 1.3602113,1.3602113 0 0 0 1.359688,1.359691 1.3602113,1.3602113 0 0 0 1.359689,-1.359691 1.3602113,1.3602113 0 0 0 -1.359689,-1.36101 z M 10.506082,36.866968 a 1.3602113,1.3602113 0 0 0 -0.9415252,0.398437 1.3602113,1.3602113 0 0 0 0,1.923821 1.3602113,1.3602113 0 0 0 1.9238162,0 1.3602113,1.3602113 0 0 0 0,-1.922501 1.3602113,1.3602113 0 0 0 -0.982291,-0.399757 z m 29.154442,0 a 1.3602113,1.3602113 0 0 0 -0.940207,0.398437 1.3602113,1.3602113 0 0 0 -0.0012,1.923821 1.3602113,1.3602113 0 0 0 1.925128,0 1.3602113,1.3602113 0 0 0 -0.0012,-1.923821 1.3602113,1.3602113 0 0 0 -0.982297,-0.398437 z M 25.105,42.905361 A 1.3602113,1.3602113 0 0 0 23.743997,44.265052 1.3602113,1.3602113 0 0 0 25.105,45.626056 1.3602113,1.3602113 0 0 0 26.464693,44.265052 1.3602113,1.3602113 0 0 0 25.105,42.905361 Z"
         id="path940"
         inkscape:connector-curvature="0" />
    </g>
  </g>
</svg>
