<?xml version="1.0" encoding="UTF-8" standalone="no"?>
<!-- Created with Inkscape (http://www.inkscape.org/) -->

<svg
   xmlns:dc="http://purl.org/dc/elements/1.1/"
   xmlns:cc="http://creativecommons.org/ns#"
   xmlns:rdf="http://www.w3.org/1999/02/22-rdf-syntax-ns#"
   xmlns:svg="http://www.w3.org/2000/svg"
   xmlns="http://www.w3.org/2000/svg"
   xmlns:sodipodi="http://sodipodi.sourceforge.net/DTD/sodipodi-0.dtd"
   xmlns:inkscape="http://www.inkscape.org/namespaces/inkscape"
   width="210mm"
   height="297mm"
   viewBox="0 0 210 297"
   version="1.1"
   id="svg8"
   inkscape:version="0.92.4 (5da689c313, 2019-01-14)"
   sodipodi:docname="UFO_Shadow.svg">
  <defs
     id="defs2" />
  <sodipodi:namedview
     id="base"
     pagecolor="#ffffff"
     bordercolor="#666666"
     borderopacity="1.0"
     inkscape:pageopacity="0.0"
     inkscape:pageshadow="2"
     inkscape:zoom="3.959798"
     inkscape:cx="-28.716647"
     inkscape:cy="1029.4856"
     inkscape:document-units="mm"
     inkscape:current-layer="layer1"
     showgrid="false"
     inkscape:window-width="1920"
     inkscape:window-height="1001"
     inkscape:window-x="-9"
     inkscape:window-y="-9"
     inkscape:window-maximized="1" />
  <metadata
     id="metadata5">
    <rdf:RDF>
      <cc:Work
         rdf:about="">
        <dc:format>image/svg+xml</dc:format>
        <dc:type
           rdf:resource="http://purl.org/dc/dcmitype/StillImage" />
        <dc:title />
      </cc:Work>
    </rdf:RDF>
  </metadata>
  <g
     inkscape:label="Layer 1"
     inkscape:groupmode="layer"
     id="layer1">
    <path
       style="opacity:1;fill:#000000;fill-opacity:0.99514561;stroke:none;stroke-width:0.75;stroke-miterlimit:4;stroke-dasharray:none;stroke-dashoffset:0"
       d="M 25.705486,-0.46803233 C 23.37854,-0.46826233 21.543565,1.2324088 21.156658,3.4460302 18.531166,4.0235166 16.064181,5.055225 13.805096,6.5143895 12.997435,5.9399915 12.073826,5.5553621 11.064861,5.5690771 9.834039,5.5859306 8.6723012,6.0771688 7.8011893,6.9479833 6.1984533,8.550388 6.0741451,10.95909 7.2562675,12.78392 c -0.4804737,0.618996 -0.9698698,1.15945 -1.3847656,1.97461 -0.3369848,0.662389 -0.6402032,1.341636 -0.9082032,2.03125 -0.26838,0.68935 -0.504136,1.392262 -0.703125,2.107422 a 1.7387103,1.7387103 0 0 0 -0.037109,0.169922 1.7387103,1.7387103 0 0 0 -0.00195,0.0098 c -0.1153449,0.430136 -0.2016172,0.866275 -0.2910156,1.302735 -2.0255961,0.524561 -3.5435732,2.274395 -3.5449219,4.46875 -0.00186,2.268499 1.6162674,4.066179 3.7460938,4.519531 0.3976024,2.099293 0.9738939,4.195554 2.0449218,6.15625 0.3128008,0.572647 0.6686584,1.0063 1.015625,1.492187 -1.1120178,1.813144 -0.96642,4.165478 0.6054688,5.740235 a 1.7387103,1.7387103 0 0 0 0.00195,0 1.7387103,1.7387103 0 0 0 0.5742188,0.382812 1.7387103,1.7387103 0 0 0 0.00391,0.002 c 0.8233766,0.60935 1.7789,1.009771 2.820312,0.994141 0.858698,-0.01231 1.641749,-0.326361 2.357422,-0.767578 0.669088,0.455293 1.306743,0.93685 2.056641,1.318359 1.321364,0.672934 2.710095,1.214095 4.138672,1.611328 a 1.7387103,1.7387103 0 0 0 0.002,0 1.7387103,1.7387103 0 0 0 0.166016,0.03711 c 0.433109,0.116731 0.873144,0.204572 1.3125,0.294922 0.525068,2.027561 2.27882,3.545139 4.474609,3.544922 2.188851,2.16e-4 3.939047,-1.507655 4.470703,-3.525391 2.770887,-0.569361 5.293104,-1.810937 7.59961,-3.345703 0.775456,0.500844 1.636781,0.844022 2.576171,0.830078 1.224062,-0.01789 2.382288,-0.500753 3.253907,-1.369141 a 1.7387103,1.7387103 0 0 0 0.002,-0.002 c 10e-4,-10e-4 9.37e-4,-0.0029 0.002,-0.0039 1.550056,-1.549733 1.7188,-3.855148 0.664063,-5.658203 0.05376,-0.07977 0.106914,-0.139769 0.160156,-0.222657 1.490055,-2.320437 2.267932,-4.899019 2.765625,-7.49414 2.170045,-0.422329 3.830013,-2.237001 3.828125,-4.535156 -0.0014,-2.262208 -1.614504,-4.048349 -3.734375,-4.50586 -0.572721,-2.70101 -1.630981,-5.247087 -3.138672,-7.558594 1.181981,-1.824872 1.057672,-4.2335731 -0.545064,-5.8359777 -0.902266,-0.9019518 -2.114809,-1.3962486 -3.390625,-1.3789062 -0.905346,0.012396 -1.730381,0.356233 -2.472656,0.84375 C 36.492206,5.5595872 35.244301,4.6839096 33.767986,4.1100927 32.611377,3.660536 31.40314,3.3687394 30.187908,3.1179051 29.676881,1.0697392 27.915818,-0.46825073 25.705486,-0.46803233 Z"
       id="path851"
       inkscape:connector-curvature="0" />
  </g>
</svg>
